<mxfile host="app.diagrams.net" modified="2023-04-25T12:20:33.126Z" agent="Mozilla/5.0 (X11; Ubuntu; Linux x86_64; rv:109.0) Gecko/20100101 Firefox/112.0" etag="hVRIBjK0-mcOwV2rS9ES" version="21.2.1" type="github">
  <diagram name="Page-1" id="chNrh5IAOXUtzOCDfoZT">
    <mxGraphModel dx="1367" dy="763" grid="1" gridSize="10" guides="1" tooltips="1" connect="1" arrows="1" fold="1" page="1" pageScale="1" pageWidth="850" pageHeight="1100" math="0" shadow="0">
      <root>
        <mxCell id="0" />
        <mxCell id="1" parent="0" />
        <mxCell id="32GEzlC8_-ixo2tJrArx-22" value="" style="rounded=1;whiteSpace=wrap;html=1;dashed=1;" vertex="1" parent="1">
          <mxGeometry x="623" y="160" width="191" height="70" as="geometry" />
        </mxCell>
        <mxCell id="32GEzlC8_-ixo2tJrArx-2" value="" style="endArrow=none;dashed=1;html=1;dashPattern=1 3;strokeWidth=2;rounded=0;" edge="1" parent="1">
          <mxGeometry width="50" height="50" relative="1" as="geometry">
            <mxPoint x="70" y="400" as="sourcePoint" />
            <mxPoint x="780" y="400" as="targetPoint" />
          </mxGeometry>
        </mxCell>
        <mxCell id="32GEzlC8_-ixo2tJrArx-1" value="Oocytes" style="ellipse;whiteSpace=wrap;html=1;aspect=fixed;" vertex="1" parent="1">
          <mxGeometry x="380" y="360" width="80" height="80" as="geometry" />
        </mxCell>
        <mxCell id="32GEzlC8_-ixo2tJrArx-3" value="Class 1" style="rounded=1;whiteSpace=wrap;html=1;fillColor=#FF6666;" vertex="1" parent="1">
          <mxGeometry x="310" y="310" width="70" height="30" as="geometry" />
        </mxCell>
        <mxCell id="32GEzlC8_-ixo2tJrArx-4" value="Class 2" style="rounded=1;whiteSpace=wrap;html=1;fillColor=#FF6666;" vertex="1" parent="1">
          <mxGeometry x="480" y="310" width="70" height="30" as="geometry" />
        </mxCell>
        <mxCell id="32GEzlC8_-ixo2tJrArx-5" value="Early Morula" style="ellipse;whiteSpace=wrap;html=1;aspect=fixed;" vertex="1" parent="1">
          <mxGeometry x="250" y="230" width="60" height="60" as="geometry" />
        </mxCell>
        <mxCell id="32GEzlC8_-ixo2tJrArx-6" value="Morula" style="ellipse;whiteSpace=wrap;html=1;aspect=fixed;" vertex="1" parent="1">
          <mxGeometry x="339" y="230" width="60" height="60" as="geometry" />
        </mxCell>
        <mxCell id="32GEzlC8_-ixo2tJrArx-7" value="&lt;font style=&quot;font-size: 10px;&quot;&gt;Degen-erate&lt;/font&gt;" style="ellipse;whiteSpace=wrap;html=1;aspect=fixed;" vertex="1" parent="1">
          <mxGeometry x="490" y="230" width="60" height="60" as="geometry" />
        </mxCell>
        <mxCell id="32GEzlC8_-ixo2tJrArx-8" value="Class 3" style="rounded=1;whiteSpace=wrap;html=1;strokeColor=#99FF99;fillColor=#99FF99;" vertex="1" parent="1">
          <mxGeometry x="180" y="460" width="70" height="30" as="geometry" />
        </mxCell>
        <mxCell id="32GEzlC8_-ixo2tJrArx-9" value="Class 4" style="rounded=1;whiteSpace=wrap;html=1;fillColor=#99FF99;" vertex="1" parent="1">
          <mxGeometry x="378" y="460" width="70" height="30" as="geometry" />
        </mxCell>
        <mxCell id="32GEzlC8_-ixo2tJrArx-10" value="Class 5" style="rounded=1;whiteSpace=wrap;html=1;fillColor=#99FF99;" vertex="1" parent="1">
          <mxGeometry x="580" y="460" width="70" height="30" as="geometry" />
        </mxCell>
        <mxCell id="32GEzlC8_-ixo2tJrArx-11" value="Early blastocyst" style="ellipse;whiteSpace=wrap;html=1;aspect=fixed;" vertex="1" parent="1">
          <mxGeometry x="180" y="510" width="69" height="69" as="geometry" />
        </mxCell>
        <mxCell id="32GEzlC8_-ixo2tJrArx-12" value="Grade 4_1" style="ellipse;whiteSpace=wrap;html=1;aspect=fixed;" vertex="1" parent="1">
          <mxGeometry x="316" y="510" width="69" height="69" as="geometry" />
        </mxCell>
        <mxCell id="32GEzlC8_-ixo2tJrArx-13" value="Grade 4_N" style="ellipse;whiteSpace=wrap;html=1;aspect=fixed;" vertex="1" parent="1">
          <mxGeometry x="430" y="510" width="69" height="69" as="geometry" />
        </mxCell>
        <mxCell id="32GEzlC8_-ixo2tJrArx-14" value="" style="endArrow=none;dashed=1;html=1;dashPattern=1 3;strokeWidth=2;rounded=0;" edge="1" parent="1">
          <mxGeometry width="50" height="50" relative="1" as="geometry">
            <mxPoint x="387" y="544" as="sourcePoint" />
            <mxPoint x="422" y="544" as="targetPoint" />
          </mxGeometry>
        </mxCell>
        <mxCell id="32GEzlC8_-ixo2tJrArx-15" value="Grade 5_1" style="ellipse;whiteSpace=wrap;html=1;aspect=fixed;" vertex="1" parent="1">
          <mxGeometry x="530" y="510" width="69" height="69" as="geometry" />
        </mxCell>
        <mxCell id="32GEzlC8_-ixo2tJrArx-16" value="Grade 5_N" style="ellipse;whiteSpace=wrap;html=1;aspect=fixed;" vertex="1" parent="1">
          <mxGeometry x="650" y="510" width="69" height="69" as="geometry" />
        </mxCell>
        <mxCell id="32GEzlC8_-ixo2tJrArx-17" value="" style="endArrow=none;dashed=1;html=1;dashPattern=1 3;strokeWidth=2;rounded=0;" edge="1" parent="1">
          <mxGeometry width="50" height="50" relative="1" as="geometry">
            <mxPoint x="607" y="544" as="sourcePoint" />
            <mxPoint x="642" y="544" as="targetPoint" />
          </mxGeometry>
        </mxCell>
        <mxCell id="32GEzlC8_-ixo2tJrArx-18" value="" style="rounded=1;whiteSpace=wrap;html=1;fillColor=#FF6666;" vertex="1" parent="1">
          <mxGeometry x="634" y="172" width="50" height="20" as="geometry" />
        </mxCell>
        <mxCell id="32GEzlC8_-ixo2tJrArx-19" value="" style="rounded=1;whiteSpace=wrap;html=1;strokeColor=#99FF99;fillColor=#99FF99;" vertex="1" parent="1">
          <mxGeometry x="634" y="202" width="50" height="20" as="geometry" />
        </mxCell>
        <mxCell id="32GEzlC8_-ixo2tJrArx-20" value="Non-Blastocysts" style="text;strokeColor=none;align=center;fillColor=none;html=1;verticalAlign=middle;whiteSpace=wrap;rounded=0;" vertex="1" parent="1">
          <mxGeometry x="694" y="167" width="120" height="30" as="geometry" />
        </mxCell>
        <mxCell id="32GEzlC8_-ixo2tJrArx-21" value="Blastocysts" style="text;strokeColor=none;align=center;fillColor=none;html=1;verticalAlign=middle;whiteSpace=wrap;rounded=0;" vertex="1" parent="1">
          <mxGeometry x="694" y="197" width="120" height="30" as="geometry" />
        </mxCell>
        <mxCell id="32GEzlC8_-ixo2tJrArx-23" value="" style="endArrow=classic;html=1;rounded=0;exitX=0.5;exitY=0;exitDx=0;exitDy=0;" edge="1" parent="1" source="32GEzlC8_-ixo2tJrArx-1">
          <mxGeometry width="50" height="50" relative="1" as="geometry">
            <mxPoint x="300" y="390" as="sourcePoint" />
            <mxPoint x="350" y="340" as="targetPoint" />
          </mxGeometry>
        </mxCell>
        <mxCell id="32GEzlC8_-ixo2tJrArx-24" value="" style="endArrow=classic;html=1;rounded=0;exitX=0.613;exitY=0;exitDx=0;exitDy=0;exitPerimeter=0;" edge="1" parent="1" source="32GEzlC8_-ixo2tJrArx-1">
          <mxGeometry width="50" height="50" relative="1" as="geometry">
            <mxPoint x="550" y="374" as="sourcePoint" />
            <mxPoint x="510" y="340" as="targetPoint" />
          </mxGeometry>
        </mxCell>
        <mxCell id="32GEzlC8_-ixo2tJrArx-25" value="" style="endArrow=classic;html=1;rounded=0;entryX=1;entryY=0.5;entryDx=0;entryDy=0;" edge="1" parent="1" target="32GEzlC8_-ixo2tJrArx-8">
          <mxGeometry width="50" height="50" relative="1" as="geometry">
            <mxPoint x="410" y="440" as="sourcePoint" />
            <mxPoint x="330" y="400" as="targetPoint" />
          </mxGeometry>
        </mxCell>
        <mxCell id="32GEzlC8_-ixo2tJrArx-26" value="" style="endArrow=classic;html=1;rounded=0;entryX=0;entryY=0.5;entryDx=0;entryDy=0;exitX=0.5;exitY=1;exitDx=0;exitDy=0;" edge="1" parent="1" source="32GEzlC8_-ixo2tJrArx-1" target="32GEzlC8_-ixo2tJrArx-10">
          <mxGeometry width="50" height="50" relative="1" as="geometry">
            <mxPoint x="420" y="450" as="sourcePoint" />
            <mxPoint x="260" y="485" as="targetPoint" />
          </mxGeometry>
        </mxCell>
        <mxCell id="32GEzlC8_-ixo2tJrArx-28" value="" style="endArrow=classic;html=1;rounded=0;" edge="1" parent="1">
          <mxGeometry width="50" height="50" relative="1" as="geometry">
            <mxPoint x="419.5" y="440" as="sourcePoint" />
            <mxPoint x="420" y="460" as="targetPoint" />
          </mxGeometry>
        </mxCell>
        <mxCell id="32GEzlC8_-ixo2tJrArx-29" value="" style="shape=image;verticalLabelPosition=bottom;labelBackgroundColor=default;verticalAlign=top;aspect=fixed;imageAspect=0;image=data:image/png,iVBORw0KGgoAAAANSUhEUgAAAHcAAABwCAYAAAAkPO8yAAAABHNCSVQICAgIfAhkiAAAIABJREFUeF6N3VnPbFXVhuECCpVeRBGUZotgj4gSQGI8gBP4U4Rz/oZnHngIwUQTjIkNAnYorVtaAemkF4Svril3OXbxyudMVtZac47mGc8YY65VVS+bk37wgx+8f8YZZ2zee++9zXa73bz//vsbo/NJJ520Ofnkk9fRIJtMcu7NO956663Nu+++u7fJhnsHebZeffXVJef61FNPXfbIwWDu9ddfX/Lm/vWvf63zxz72sXXOPh265MNEn8zHP/7xpccOn5/4xCfW+c0331zyn/zkJ/frp5xyyprLX1jIT7tsZDes/JOhy451wxybMIcxriaXS/iDweaMNzviYK91flwb8Wnd/P3337+57bbbNrfffvtm+x/T/7mi0DGNZCwnnQvun//85+add95ZATmXYMEAaG6egTEky5p7BLp20Iv4gi7Q0BZ0suTpSmLFVMHQQX7FQK4kFAM/klH8+TFfskvojCVyJ248GNZKQsU3+YVn2s/n9J2M86GNiqVcpbediWqS8HSejLlAzOAjBpkCtuYs2a4R3r051+wEMn2yEU4Hie0mFQJ9A3EzKOszOD6M9CKdTbp8GZJ92mmnLV34jTq4uCex9P7xj38s39ad2WSnDrVbGOKCt+QmF79k4KuA4644wpiffHZPv5zw0f262I0jO9dCgc3zTOhMJMMOsgIoQc3XwXV2ztmLbAEWTOuRY15CKgYk1I2uO8jPJFYY4WHDzvD222/vd5G2ej6R5+hxQb+iYds8X+JpLVLp8ePoEeC65LIfRyWkpGajpE2eD3PBz5SPs8MzvZXcKsW1kbJrxho5bY5cRwSyNa/pTPKzNasvPzM4dqvwKpocQkq0e/YjLSzmFA175iRCZznMSS4Z8+Rct4XzWcIjf2J2TYeuwT587UhsV6hs5dt19shmIy5hSL54Zx7CUIzu40dM80h237kzwYfX855iSXY2gFHVbcPm6ZiX6IgrEXQQ6AC26nYv6GwixjGJZxdJ9CqiSZyu4ddcO0YvQnQ8i9mwzlc7DZ8lxQtmMUYmecXB1mGc1sIAb7ywR15cBjwwZ9uca/PFRee/DVjiNl3nEhuG9Nczt9F1FZFi6xkHpq2NM4BLbo5KWkSwac08Qt0fDrYkJt3k3JeoOqaiYcdcXcEHMtstIi2cbJmrAOATizm22G3QIU82O2Tgyv6MP9tnn332MlE8YeVLHPBZM2BnMz5KXlyXE/PhodN8fpzNzfmP3JYDQJGzAgVydqpAq77IT3bOF8CsZLbbBiOqN2ZrdOpUpFprnnxdGZElyT29OvONN95YnYd4eHuuwon8iIHX2iyYSWy+6bHNR/bIwVshsuswFx/hmtyKnx0HHOzN9cNEHiYcpjBOvW03AKQESNsLoNbcewt8+eWX94ZKOL3ZLQh/6aWXFkhb3ARnrkDNI6h1wZVoNkoq+dNPP30lMl3dZpx55pmbs846a2Gy5SITRsn81Kc+tTDzydYrr7yy+dznPrc599xzl26j5MJSvDApBvoVo7dq96+99tp6wy5mWOAy51D8Bkzm68ywWyvpriuGuGj3CAMcfNQo7M+OZ7+COCG5M6GuA+BszDmKSGbIxwEgCtCXEu4BbMtGaEVTB5awnkVVOuAB5IMdGASmQCROcgw6OtAXEciki3Ty8DTPR/6tsSHx5unpUPfW6tgLL7xwxeFou4YZoQqmYu2eLqLz5R5n1tmIA7jFJDY89vwm304xu0/RsgODddf8lOjiMt/BxwnJJdQkRxaBqMPMtQ2bS951SSRTZdGvwupC9ieIth96kSHotkL6uotfdslbl5BPf/rTi2B6JYBPXVrnRGBJos+2e0TR/cMf/rD54x//uHnqqaf2W6IExcUFF1ywfMJSUetYmMLMprga5otV7BIU1poBhqkTLzAqvhdffHHz/PPPb44dO7b5zGc+s2TZ4gsWBSY/4XSWExinXfNrWwaqjBOou0oggh3uM5YhzhhHrDkABKTCHOboOeeHLwei6NZJrsmyZb1E2HYltYJ78skn17qDTomHDYmPP/74IhaR4WWzHeCee+7Z/O53v9vvNGzwgdxf//rXi1QcfPazn92cc845a8cgY45NfpFdcitSvsTJD+y4gAdu1+QreDrms1PCcHb55ZcvvwZ/fJMz2DFm/O7JGDPBWw5mYglUnbPSgWJ4ditDnAraeoP+LJDm6VoDXDB0nMmy1VYmQL56nkp+BYZo93U6EnXU3//+90Wka7ISBBs5gZt/4YUXNo888sjmt7/97YpZwbQzXHbZZQuLbdpZ98D0xS9+ccEPj7V4qPj4MU+eXbxJXpjNKy5xwWLeOh38w8aGAoPbwYdHXUWAm+zMnMHGZ7tGZ/OrcymV+QQ7Ey6JrgHnmDMyVaKq57QKp0OeTIGbI09GoIJxT4auinfPtntbszlJQXrdF7lIsY1Z74eGfCoChLlnUwFJ/oMPPrhsX3TRReu5rYAUmzmkf/7zn19kI/bZZ5/d80KOLS+KcBQDPUfki5Ed8bUtm3OQaReY3FQQODTfoyIf8PNhTWGLxXDfYd3ovJJbMlJGHCAlMSOqlHPnjATKfVtgWxe7bJJx3VEF87EA7BJgjZw1hBjIjWT38+UIcYiyLmFkPR7YYFdHFjQZ9hEkMci95JJLVkLJ6pLzzjtvdaouV0yKUeLbSdqexa7IJA8eB/x1KJx89YgSPz4jHL663DVMjhJWARQrGXHglg3cOtg0yPNnxHOJN7dPbomaW0rVyIHAEMgwAwC4lnCj56xrwQJtnd06t62HblXKlmSxL0n9RIdw+hIS4XQki03yEqVzES5IL1X0+BEHv2KA25lOeNoiyXmG0/em/Nxzz614epkSCzt8OZAsebDBAr91GEsmXf7qzpLbzqMg+acbNvp2MjKzGyVwdmt2ZxJLclhWALuxntICrnMZLqkACAipCGPEHPk63D3dKhlYVW/dUWVWYQE///zzl46E6hr2HfSRY46sOf7ZMupyc0iCDx6d2Bsz/VmIyK/64bH11gHkFARyFZIC4CN87MLiEcHOpZdeuvixdTqLH85e6vpIxh9c8cYvff7atcRUjHUtHaPdyX2c45mdbCa7FHbDPXuN9cyt4gCqcxOyRmYqzsRKUAmrWyRMglU9IL44UOVI6hknUASrVHJs8gG8xFlz3xrCEUAOgZJQIgTPjgPJrZFlx1GBWCfPXgXJJx1YL7744n3RSeSf/vSnzd/+9rclz8YDDzywigAuBeEzdYUrpooBFsmvMWoePtoV8MZGBcsmDsnQda4gnOE07zo+JDL9ErxPLqcMzs7gpK0k0g+rhANkAzgTYa6qVf2GpAKALFsfmwjyIuQ64gXDluRVrSq9gEu2AM0rorZaXcwestixLgYkw2pdXLY+chUCvHWCWLINt+781a9+tTB5G/cRi6xnMD02n3jiiVUMPhcb7NZhznzbUQzyMwZzEsavOOAz6BjeHTRDhYeTCp9/B14ds2OX8m5skVu3EmIYaSXXmQxDS+GDasoRxyqRXkUClMEhOQAlmq5nJLm2Lz7Nh6OKJSOQnsN1AX9sRAYfMMIncTqJPfNsIL5uZgMWySIHG0LdS4B7egrje9/73upSthUM3Z7n5CqieGLnmWeeWf7qZjJss1cB62yxV1R4iv+29uKReHJsGM2vmzHaWQ/n169CEUTZ0T1hpAvMXICck5McA0DztmPBO0uAOcEakmLoWoAVRPbNF4wu6Zsaz1QJdu45ym6k8l/Q8ztjttimW+HRcy0RMHpr1mkVYDpf/vKX13Z87733rmetZNARE3/mFIkzXS90PYMVic/M8PKHePw58x32uhNG3LpXGM5s4kdBsAOXgUt4YXBdUrt2nmP/k1+dw6CBMMocO6wbuiKwrgEyBK/yVDcwbZkIYVNQzooAcPbpdLBhu5TUxx57bG3l7vmaBSD4gquw6Aqse5h0jVGHs+FaYUWaooP3C1/4wiLUi5b3A190/OhHP1rE+hKDT6TSp0OODz7FyZ6diU+xi61OZReuuFSgFSRM5nsssN9HN1zWVGy0E8HiupjpZ/9Dya3qnUswRaQnDLCEVGUZn6AFb8sh19sv0uj6qEHXtikACZ5J0xmSevz48c2jjz66J4cMH2xW1YJDqPkOc/wgxBlZRsRGRPGw5SWJPwmRzJ///OdLv04lK4nsKVByOBID/RLEBz3PXDpPP/305uGHH17bPFt4lFCxwMmWUQfDKr52S9f4MPgpnlkEuCQHA58dS2mMLecUDY4AqMMmeeYBMnpuuQaEnIoH3BYlUB0hINtVpFR97Du8YHhOIdlWXIeHpe5r94gohDYqTgHTNxQaXPO5CD89ZDkQAjfbvonSMWzQ6WtA/r72ta+tFxsJ8oUHXXp02LSGaINNSW3LxoUY2dTx+JsJcd37gTV26Nap4jAHGzn8ypXmyF85EkfFuxZ3Y2syBURxQohhAfUs5SRSyXFknZwA2dANwFmjZ1sNFOKQJeE62Zbn7VOl60RrBh906MPCvnvrMJQUGPhEsPUZWFsf+R4bSJAYwzw8EWnXYIcvfvhVdBJD7vvf//7qYl9w2KaRHQ62YIG3xFtrW+Yv7HCSpUOWH1hdSz69tmJ42t3Iw1aMFXT38cJXjep6/XDgKMkUkN02mIGSzCkwff/pY0HdDoCOFbyRUyTRN/+Xv/xlPVPpO9hv2xOoA+nwCFgXIapA4UI4HQmD3Wir77nf1gUbG5FV8uw0iBArW3Ab9PiScOu2WLZvuummtTvBwoaCZpN8WMUvRl0t9pJpVxKLHS2fsLez1FwltoJhV3x8kGGPHg4cFSk96+5PSC7gGS8w4Bkh7JDMEiUgCWFcEji0/SBQ8HXd7B4E6mJBewPVrUC3TQKnivnpFxHXCI9M8w2kwFC31wXmkAgbotns820fddgoHu8GYvcy5CwxYpJYcXiH4P/Pf/7z0rnhhhs2V1xxxZrnA0d1H7uSoVCc8dovUzAYbOJC3NbxDTN5sVSQFQydclDS+KTTI0g+HHUz+cb+G6oAVYUEOMkBo5IABEeCUL1tP22nwAeIvnUf9H1mtK25BoY9weaHTb49KxEpeAd77LRtRaC3XgQrqgJzD5fgJbck8wE3/HzqbnZ7ltUBcCkcCeMbdmuKViH89Kc/XYn/1re+tX/0KGw+fawib1dy3+d4NhUpnDgyD4OYwoQLA+4SzL97OuJoHR7y8OOMbbGyi4cTOndp7cbsTA5yWKUg1WGYy4nq7NsZwTFeALrV268fxlU/wIJFbtspX4KoGyRAQM58+EbLQDpZcuQdHgnmFYwAdSCdvv2iV8cqLP4VSTsT3GzqLDHxKwbFJVkIhIMcHc9hP/Sbv/rqqzc+D3/lK1/Zb892JlswTOKURHjgVDDHP3hxhLOklZA6mD+FACsui7XtOewSzn47KT/kxdNYz1yGDAAoMCABCCvJJcEcgqo+el75gZJM9hDEhqT+/ve/Xx1rHiDEWUeALdA1strWgUSQirQzFCQ8AuVb98AFE9vkJVGgMBhsV2jsG23ZsIm1e13JFmweJ2KzJgm6u6KVJGveG8RD/pvf/ObC70924MCPtQq4DiTjhZMtMrBKsIbBXU3EvlFSxcBeybUmfthwJpaaqQ5fBnZjyzBFxnIyn0+CjoyqW1BAkPfWCyB9Tjr8KH7fffftX0wkExiDHrsIlkxESqR1c86+wCfjzZovyWq7rrLh6gWsZx0yyOl4PiUO6QLnS/JdI72EKk74kc6ehMKBF4OsGNljw9Cld9555+buu+9e88iGkR7/dgO2xCqJ7HvjlnQ7C3vwW69D2cYxv13nn4w5B726VAyu6eGp4qC3PgoZKklwvakCJiiOKLSNIJFBYxJO3jx7tkldq1IlTrU6bKkSI1CVnF3g2K9KJUaBSQwy+IkgumzBK1ByyKzQXJPxJk6HTMXonh5ZX7DAojjZk2DxI07csMLjno06ybVktqNIVJ3vhxEk4yLC+eATLxVUXV0hwEUPLjKui6OOZc8cWx4T7MGNQ3O4pz/H2pZtgV4MOHEPnOqmDIjDKDHWJc0QXAAQ4K8KbcUSW8dVXX3ubVuStMj0Zy+ugRacbhO8Zzosrku+YJDPbsTBAJOdQwLIOyQCfrqChxFJ7sVMhj/YbPGu84cPRx0ePzDiogYQJ134+8nQTsRWSXVmF06fFtjUKGHDZbtLiWaPvPsK0zVf7tuGzYlL3Pho7HBtV4CGc60vAQwEzrprCWnrQhyi6DHqM6G/HrStscO27cm6DqOP4LZoBEwiBWyNLeQDLDh6bJHlTzC+AJFg5CgkRLgmS3dih4G+9WzAKLl8mrPuYJ9PhQ0r3LiwE3jWwWzUZa7hdN+7wFe/+tUVAxsGff7gIAt//FawfIZBoYljJjU9vNKti90b5NnQ+Y2tRQEiQxI44NB15EqoKqtCbGnA2lr7HCk4/1W3e07Ym2+2wLCDLIfAAamTEM0mkNbNG7C05bBbd8PpXpLFgPT0JYsvJNDvmemafcWJ/D47i5V/61W+BIlp/gkOfyXDWnb44oN/WzS7OhtWcnEqDljjki028Bo2vCnwkpsuOw6yHiEVAo7Sj699cgFgkDCjBCWi5wYnAkaYLRgJdZfnFT2B+ajjT0YFmkO2EGLkR3B9qBeQbqqy+aqTJNc1+3S6L1HJKiB42n1s7+RLQgkpyQgyKh6x0m+L6xGkcMXKn5jaFcQBF3t0wy/WivX47iOP5LIJJ1vWS1pdViNINlvm2WCbvBFePMhDsWVDHMUy43K91UHAI4EDwDlgzL11c84MCsb2wyAQAAvGlxT0OG+b40CRRKB1HyM8l+qQOp9tLwqem5638DjM81WS2YSFTRWsy8mbo69QEeLZKxFIos93hcaGOGCwHnH5oettmK0+48JZXBVgv+eyK076bNL3Utl/lyQGXNGHky08NU/PfaNGsK5oYVQs8BjWyZt38Mm+uRnj+utHiyUxEhK0VsUgnhMOA+D58Mtf/nJtX4IReB9LgJEExVNVIpJP97rONV/8Kxq7Q6QXdEQIrE7sVycvFwLjg+35mChZ1vljR1LZUBTIFotkVLwlGrYeD9bFbY4/Z3I9+3Ambkfb7F//+td1D6cGYN+AAyfsWZudigsDLhzAyUZ6ita9NUNcHWviYGwBrIIoBpqSBCJNstxzHkh2OLcde6HhUDKBnSDN0acnoL5FUgzA8k0G8XwY/EpC3WUtWevs8G3bhFd3Sapu8eytKMjwyy45eg735iWKfzFmk302vNF6fiIaDgmCQfIkBSY2Df7isSISg8K3qyj6dg/rvUw5K67eFdgsmXzBqRDM49T9LHw28++aTNybXy9UABsF2mdQiUJ8z7Q6KKIl1R+QAUgGMEQD5BA8gpDnJaNK150OOkb2SrROAZa9tlaJymaB+HMW9n0tKAF1LpxkzRVwxcN2zzq+JZUc3+yKV2IlFV5FAAMsbPHhXcOWTMZaL2PsKGTJosuXAhI/u2w4xItb6675wAWM5tmxJmY+4OLHcC/J5uIh7BXAEtyN9QdyABmEMsqAeZWi+igCYF2AgPzmN79ZgVZhCGUvQH1EISsIYNii47mriwsSeHZt/fwgqOT0vKsr6VuvK+F2zT8/BkL5M8+ugw+Ese8ssWQ8DmB0T4YNvks2TOK31paoIRQ1384VAwxkYTTHNiwKsa4lLyZfZ+LL9k8HVjj4cPCPW36tlUyxsCWOcuEel/SNtVv1jIgAThgRnGcLJ4h0BgRQw3asYzjmRGV21EVVq0DoRcw3vvGN/ccUNgRbItlGfAVnrZ3AdcG2bcHqqFMlSCzWS5I46hqYYI4EhJRE+JBIhj1naxU9ezoStt4PrLnvyxYy5nQ2bnWu3cVWDgd/ZHoM4NYuJi42KjwcwMy/eOKyAoND8bBHjgwb7hvbWSUmCXAgGa45ptAP1a4VgL8OtH1zIhA6riWJXh+T/HLCucQA7KtFxFqXdDuBymXD9oaIXrRKpntBIoJ/Bx+OmQSkIYENjwe7g3V+6y44swGXGHBgPux1nuQgLRvkXDuLNf90JVQ85JHe9skmf+K184TXnF2MvMTzRbbiqKBhlFDydbU59uEk70zegONDyTWBQIApMuDaXC8cABq6zU95grRl9fZY53JYgui69xMaW2yoZrrWkpM4QegCAN2TR5yg3EuQ67YiSeu+zkTQt7/97aVrnW8y5tklh4x2KGttifz3vK9QEB+m/OlanRd2NnQ8+7CxR9a9bpQ4iSfDnjhKCs7wXaGzZeAH/+TYYlcMZM0VXzlyzx/ZxvoDOYaqCkYoqxSVhlwGdDCCgbUl+xwIKF2G6TEsEEdbjedKWzKbyAPSgbTm2Oa3zmILgex762z7d2+NTyRV0fzz4zluJ/A2rislQFVX/SUWATDQgZcs8g32zcOnQ+Gy5uATB9bIKVYJIme0myGar7pRQYhDM5AXb0XLjkMs4jIfXnbYYF+MctGW7hof4iu5zo31tgyEwVCVwBglgAwGVY2k+chBznB2WANI8HTbXn1jJJi2WPfIBAppdSiyJB6BtmiY2O3lCSkOW3fEFQhi2jVg8lOjNfJiyC4Zfvk0+EcYUnW0UdEVF//k2GmrZduWGg66Ok/89NhTpO2A1s1JsOKzZpRkeMKPJ9fid2Zv7gR88l9Twl+DmafT2D9zS6oFCoARRqbECo4TH30kWAJUNzIYdDY4Mvytkd8vS6B5+ogGLF2+jDovcM7kHIolQiqqiG0by06dZJ4sQhUMG+YUVs/LnmdsiS+CPTaswezAhR3Atc6UDMkSswIyKmo2elbjr0SLAzZ4Ki72FLVdUDN86UtfWjwY1mCCrd0QfnPiga8Y28noxYfr9fWjiYJwRgqwkipBEikpQHneCtCWDZgkCaIK4txoW6EzASMKYEE6yLNjKARYdIG5OoU8nGy2lbvuOato+JA084KF15CAKp99WGHilxx5gw/rvWBZV1DsksGHwVZ/rA4rW9bxYc3HP7jZqvvxB6tfljTG17/+9SWn+z22xMQO/O1q8LALL7vy0nX3YiPn4MtZMTXWN1SeUYKpy8xRVFFAt9UgLOWKgFxdr7rJSBrwRtXWs816QAVFhz7fhnXzAabHJxkYJR5RyFB8sLLnbJdRBG2zbVOS2Ij0kkWmQmSHP75mXJJc9/RmrwsVukQafp2Cmx4ffHpjL/nmHbBJMOy6VaL49ymiHFQU7MJnKLKSW1LxYJ4eG/SKa+kwXsYt2lYkBFkAAtcW4N6WhWB/dUDWHAfsCIotQeoAgahaCXRNxpmcZy9/9M076PFl3T3i6oieRUiAyT1b7Tz8lnTXEkWmrxiLJzt1eNjbziqEdgWEskUOXj79MYJ1HSzx+OjvqySMjXYReuJwpqt7FQhdj64wi13BtFuVYOcKHUa8iMH8TDz78qFoGmuD50CwFAXiWqUCwwBDVa+ulDBGGOSwgkC0wMz5jOltWiDs2ILYELRk+8t91a4IyPPXFi9AwbY1FhR/8LHNJiIRK9nsh1fhhFd3iU8c9CO9ouIjDsRPRvyGe3I949LpWzT3Xi77AkPiSjbM/MJboYgLRmuu8eAHBveKmJzRdhz3dPIdv7DRq6idjc6u9/+VHyVJBKY2dy2QqgiJHPqxHjBEkOUcMHLu2UKw6kRMzz8BWQdAYvtTHISwS8+6wrGlsUu36nWvGHpTVcHkEOOvQPiqeuGLVHrWxKNoXMMi0RUWQs057Bxtc0jkn62KB06PALI4YA/+OGlOnOzD2WOHDF1dauCAPYOcazjpVXiu6fPhukLlJ3zlj43Gbv3fCZoZR5BgGO/tj5JnsKA5Z1QSBI5wzwFksUOnirJm6GDzhm7r76nqUDjYcnYYyGyLtmYIwoEcNuDQOWzDqADbffgxb6dhEyaHuMggSTxt88mYt5MYYgx3pCJYgUsuOR3rxwZFJnnHdv/6m/9ykG0YDNwYHiu+ALKNi4lNMdgR2YUBZ+WFDg5wQa7itU6+4VpMYTW//+vHKiACCh443cOYQABSqQ4GyZP1+a2vD3t+WK9jBKFgONep9JwrjsAmpzuTz07BwYQsSUMgMioSa+ZgbquHTUFIojNdZCkQcsirYF2TgVPBOtfJioIfjw87mj/fVVAeE34YoCfe47s/XhCPRDrXVQrAY0Ls5sXq0QWvgz9zzmIuJzhyzX+7RWs4cp08u439P5tQZ7TAUIkEhlFG5gMbMYzqHEYlFzh65KpK92RVdclAprm2Trat82MgjT77yJEMOrCYkzDJ7bOjBHgLVRQSQD/c5PltazTvWrIrXAmXyOwrPEkkx5YYrIuTTy9qktBbr2TDrwPJ6mK2Kih6di+xiNkZLkPsYiVfks2b69w6vTn4Ss412439v/1oou4hICCE9pzhVFCB6iMDHcR4dqhMn+HM+S5ZYBwCTy85viRAIpCDJKSQqyIVF9Cw6MBI1xmudSgZBcWOxFdU5N0jWPdISs8iNtvOxcaWuWJnA05zbdcw6TD+2LbeziAWBUnPy5WE4UlcFXRJZbPP9umJBzb8wAJHnInBPQ4UmXVy5GHo8SK+uCvRK58WKCOYkup3LzlAq0ZzQC2FnTNGHQKRpLY0QbRdIrz/hsecYqiz6SCWz5JHxqi76lhFBTgsVaXkCMLbMjlYyNSh5BBk0IcFfj7nLsAGLGI0EA2nc2/5bNbBtn8dLels8WP3wKFEGq79EibBJUfc/FoTsyTBzgY9u4CPlu04fLDtqJnowusQm6MurvPjbAHZjV2u/v0C44xADhgQcM8vgSJUkhEpWMDIO4BDCB1nNjxbyPa8Y9M9QG1VwJeUrgXW1gyga4HRlajsw6sYkUhXcQiuN28d5scDiUWEonGGoy53zy7cdNmz7mUH6e7h4xPudhV6kmoum+ywa3tWSD4psCGxdVn34qooJbtPJHVwOMjAoxgcRvitGXW0e7Zw1VjP3LYmk0iTvLY2c4JDbNuGIJrv5cgcBwJj03a/w7bKAAAcKklEQVToQ7qiMNdLQp0hweSQYg1IZPHfc919Fexct3jGI1UBwcWmAuQfRgHWTfTMS4xhng+EKxz+I0gMEq1g2K3QdCw77tnqu3V26iTrcQc3zsQOM5/hsr3DTS8cznUhDHzDZt5oOxZzccR3BUCOjXY+91vBUSrBAZZcwVAISJ2nGzxbzVunKzgkS6qzNcEd3705CkiwPkqpeIDYMqrAusJcSWQTtmQAd7BDn1xbPln+wmsefnbFVNB2lezWBYgSg0MinRUcXYmGPT9sKgAdqUDNSx4bfOOGXQUgbh+ZdGyPBfbsDD6fi6vC0a1iYmsmLFx4gcfBvnNy7g1cnZBcAibnaMvlkHMdKFiDM19QIAxgZ2u2IdXGKX0kcmTLZl8wfR5Vmf2aUscGWoD8kqE3u0vBIZV92z0bbcde6KyTp1f3RohziZ++KjJr7Q4lrGergpQ8SRZ/2CTPvU5k01+r2HXgVwSG4vZ8rfD5UZw489gruSWLH9cGbsTKR+sSGebWKwq6jsb6nEuh7FvIICUH0swhEzDBM2wrpKca3bOlSgX2i1/8Yp37h7zathRDyWOzQoq8PsALhm/Fh0yHe0WCoLayHhm6ll3Y4CpIsoZ7WOFUAOw6W++tnq45GAzyEsueGB3m6IiVLTh0Im7YLHFsSR7bbOICVvdkxEG/JiBfYhVnXShuYz5L6RUfn+UJZ7NR9z/WzwpGkmQATEGHMuijhQBVHRkB1l2c+57UdiShDt2FDG/NwAhAgIJlH0n8qmp+zAkGKZFfEJNo8jDZApHlgEXXWEM4Wwa7dJFrnn34JZAfa452gN416hbxVbwSoVv7OBSZzorawW9/nC828nzHWVu5uMizqTD5gS0sYXeeCXMPW0l133uEeUdj/ZkNQQAN4FwDpKskFWFVreeN4Opa2y5iyCKs/4SRjq/lzLMJgMQmJzhk882eNb7qVrZswUhxCNp9OOBmV5EhiT3FZ+tnyxrbdRh9/shKqhhh5I98He4Ma7sDPdcKhw+4SqYCM6zhASb/jIKvHsnAo5D5E4OkK0g4DPps07VD4JytkpdvMuw5Sj7O3eNzrtek7O//hipSBcYA0ighAKklHLkM2lqAVpnWVJ/gBUHPFxperhDnABjhQNV5fAmePYNfWxx5NpGlaiXfYJ+MZxg9xcCXHQYxdHRGiZVc8s7swFBBIbY4zcPFFvzFAZfr/LqHpZdChVS89HUhGVj6qCTB7Eoq3XjtFy3yFZkYycgFnZm02Qz4Ec8s/DimE5dbnVhbcyTQnhNIUlUUgJRI/8U8MPS8WEkgPV2KZCAExybnggaELYSad02XL9u4gMiy204QJgkOsGtBILWCoOdeAtvWYDDcOySdXDLW8mfOQGjJbL3ns7OiFgvbFZd72NnIvti9gIrZi5akKsQeFXYO1zh29uiCbzaTeBUeTHUrTHgTj+7mkxw9o9jjytz6yS/BiEQyoSq6DrAV94Fbsh30bVWCse0IEihOkWKtTnAmZ07A7CoYNvhiu44sKPeOOi+i+IAHmfTtImTMKYy2TB1kXTzW3bPt2hlhbNKpEBBvtL3XsWTqZP4MCVbofHhjhye9kigZrsnwCSNfFRb74oGj3cW5mOkYzuyEvxzFlXM2ye+/W2aMcw4ISY57ybKmWl2rNNUnIABVtLPuEZigbePmyPS5UqJ7PnrZ6hlFD+Hk2UWsonEGHlgBIQCutvW2pshIhg2kSBrCFKpr9uhHoDObDtg6S16JhiniFZ74rZsTW9dwllB4YdDRfVKAka55tnGCI5j5gNc8XRy129Erqdb4o9NcybbmuoJYAruxPgoJvuRyorNyADTwjCLKAXhy5iVVQrwVH999rpMshDn7hzG9RUs6guix6ayC+RZ0W1CfHRWWQ+B8SIYgyAsSXrhKUMHTQZBu4YO8g292KjA28mEukuEwrCk8uuyI23tFu04fj8TVbgK7wTfcHjmu8UCmfwVAQ9ius0uHf/HA5Zp/eMXFVkfdab2kllhY8dFY2/JURpoAOSbIYVsGgAK2/QCuGskBVFd43rhGhi5Hhn9VjUzbl+Jgly5/iLLWWyy/ERTp7tllz1wJd12x8GneIVA+HIYY2SVLjl5bufgUM/v0XCPOvMKjYw1eOMTdc1jRKOx2OvM49WLYm7EOFrPdAyeSjA9xV6Qlq93APFslbp+wXWxiMe9cgYozG3tZxgRBUGDOAmPYUUeZt5UIxvC67yvIqo2Ov4tCgC3XN1aRiRB67gXJlnu+6fOr6/kzb9uqktml47EQ+QoB4eyZI99zDYGSp/jYsM4H8kuydd1jzq7jqAvoKSAvipLMbgWkaGChCzP8DjoOsSv+OBGLhqDjXxTAX36sse3HDXNt+fC6Z9+RPOzsirkkwkPeYTjD01h/t9wCxRLaVsN4JFpDpO9LbbUMAW7bMVz7dzFUp2AA75kKiAQhgD47ZHSPICsyvpBJ1pgdi4D+XBSuOhWuCIW7Z5tra+y5Vqjk+tIAblspEnsmk9d1/PoEQE8RwAm3OHDGFn3zbCpmeBywwcCOuMi7VzBs0XXmU6HzJWFi58+ZTb7ETB5G8xWkNbbrYHZ6xC7idmOlXECMq+C2g7aZKsi8YDj1RQVAfYHfz3oq2hYkQJ0ocDYrFImRXBXs31B0Zsf2RKa3X3gARxLQbPQWLFGwCFpnFaQ5wSPCHBsGOzCzY54Mu8d2f+c0i1K38iMh5G2dfOCFDYnBRRiR2mdlBUxO0di1PIbg7D+lYbsvLCQZL7CU6LoVRvismRMfDPBoHAO38Mykt4sU3xLcjfVjvaOW1lGI1jl9tnOPPJWmChkBBNDrr79+AbLOKX0yiJJoa7YsZAtGp7Dr3MeVgmUTKchgB2FwKYC2UnaQqTA803pslEyEsN9XgDBnC164+NGV7Igd3j5vIhJZnqO2Tgmr8+GBjc8KVqHAx44EiNcZXrub/6MmG5KhGfynrx5fMNCp4+LQPdu9A+BMbOzBbljnF+cwGfSMtmjXW4FXRYTbAko2IwJ2b83BmW1Id/omahnaJdyBKIc/GEOSwAzgBcqW/yYGsT/84Q8XQLZ0hIQBiSyBIKlC4RcZ9CUPBrJ8dObfetsV2+bYc00OSX2sQ5xrMmxLnGuxik0Xer5LNP91PU4kq7hgZFsRKFhFHVY2/Es/Cou+HcDOVxGxEddws9OLpcQVZztSsvQrCDbcky/Z5vY/1gNYp7jmCMF1nEpyLKUdAf1z8L6x8i+Xci5oNpwFIfE6AmAkIglwCb/rrrsW6TfffPPmjjvuWGT68xRJUJnIgYE8O4iDpy89rBt8CRJmuCRP1/bNGlyuw80PH2LR+eQdtmHEwUtH0fNBVgGJq67nx70dSSzWbfH8+nMZhQsTW/6LQ3LuDYXNds9qPuPdtSS1+1VEYlccBs7ImWu3qgE/lFzgLdbqEkG5SndtzWENiba63iQFNx2TM1Sw5CBOIHz4F+ZUPJs+MhkPPfTQKhRboK3SV3YVVVuRM8Kcq3hd7VpnwVJRkRE0nLCYhxcpSEMKGXjyw6c5ybCuGCSw5xp7YsyXQnVtnc26SDz8KYr4YotvNnDKp2LNPz92EPG4bucoJ+T5tqsYOO09iF9yhtzMs+v9v0MFEMMqDPmMUQDSvWtrwPdxSHcyjjwVa3uVbAcQ2QCCrCBtvf2NEpu9pSJBJ6l+iWyenYiQMG/YMLCFXHOIK8GKiq5OMucaXvfk2ary2dDJ5vrBAiax9IiQRHHDxpZ1dsyJE9Y+9mUbHkn3d82u4cWtRLmWTNjYkChJh6kC5SdbZPiEVQHKkwJkz6CTrus51raM/Dqibdg8YilUKVVWVckJ4hAuUG/DupQ8MNYBE5Rnqn9PUaf6EsSaOURJrGD9QyhkBaeLIkKAnrMwegO1rljgoSvBguaLfzZ6sxesNZ0h8YjgV/ch69jurRlW9+KwbYpFshEMJ11x9mWFdbjhwZFHBQw1hvgVgzjF1c5WwSuYklRhxrVz7xe938CBc2t9ijFnwKA4cPWh5DJAESDk1CUCdl3S3SOmtzd6jPXm6l8KJ5Mtb4aIErTgfOa1/dFDKH9IoqPye9XnwyFoCYUhH3YCpEscXeswCFoS2Nb5dPg051oR0OWDjCSEX8ywsXPVVVctwhSped2LOPbr9jCIQUGYV2yKTFF5WdK1/iN18zDgsEeBuAz3uGIPxh6DcLkmB0M5gc813upU92wbruNuTezG+gM5ioQsCiRCzDU/n8EU3VtDcjb8NzA33njj6jrPTyMbbAqafeRJemD514mShVAk+Q+7EEXO0AECRpgXlCqZri7QSX1zFTZrJVbnwVn16zbY+PN2yzbCbdMIVEDwKQQFKCayCs0BI9t1EvwwkJUwz1XdCxM53MIlHjuHQmNfHLiJq+y5pwczXbLW4CFfgltjOxvO5LeIQjryCPbgJoAccwwKHhAB1GXWI7dnkw5GlqP/FwDdQAjefNuvDrNds80uOUHA1I8IOgThfUdru4MJZvYkCWkC1ClkG+Ykirwdgj/bM7wwkFcwbZOet/R9RpVEmNrm2WQP6RKtgO0UcPCvAPjx6LEmDnPkSyYsEsYHWYdrCVN4cLhXaLigZ02c9GAtNxLYUa4qFDJbwFU1gASBb0ssoYgvMEEADTBDGbVdmletbCFSh/bNTBVIRhCKypwkCgQhdAUvOM9WiWDLISi+YGGXHn3B92WGOTrst13xjzA+DMWrc8ixWRwKSULqLqTjxTpeerz0uR6GdgLrZHFp9/IiBYviwJECYgf2MEscnO7FZdQsOMKBRmKTDbmoaOtS5zlXAy1ju7FVEZz0uYsCEG0BFOpqhDgQF9E5AEJAtlZbKhKvvfbaZds8sgqCDsJ1D9C6xLqu4SsydLjA4CGng+kihH026PEhjroPvr6lEiTyFZ+OlxQ2JatHBp+KhL4kIFVx8UvPM5k9MR7bPWsVJhtska1Axe1/ioUza4bCMxQUnPzAT7/mgEMc7Tr8GOQUDd7sFBLJdvzjQmwVBR33jW3bgkmBUVbRHADOoedqSgz2psgogDlrW7GuwpHpy3bkuQaQfSRKFpIAZh9B5gtc8rydKgByyOJbJ3oW6w7E0ZFYONhyz4di5bddgjxMtnYJY1dsZNnlD246dT37YsRFu5iXRHqKvILGoX+W2Od48rbiOt29BMHBhhFWDdQ97ttdcKCwzPXpIzk6FQXs7BeD8xzroxBhwQqyN7wSDbhAGBF4Tqs0oOkbFYrgPIt0HnlbtESxgTC2A86mNYH7lgjxyHCw1zNH4N7ABdeP3roLEWzAzjbibbHsKwRJ62PNd7/73dWB5hDhWtHwU4GYp1uhiME7ATwVg3jTU0xw+TVMDL52xaHrOHPmk018xBPMfLGhsHDJP77JJtfWi2PyGm12KPvG4fz6sZ5yxoCQaILmEOeoWhhRlfQyWsUAS866ZDj7otzHhCuvvHIl2eBDAnQrGToOieSz7rUNIwrxzuzwiWTFgxTdyC/ybX2w0KdjHlF86XZJ7v/DYI18RcwuDHBHpuTD1HsC7HCQ4UMCJdbOUmx4q6slkh8xOsMmYXC3w/DPr/XiT8+8pFury/ll3zDv6LoOXhO7sf4ovQQjG2k6ACBAJRYAgfRMmPO2MGS0NQPtpchzypYsQcd3f3pjC/vOd76zSADeiwff5ukDLwl8uEYYsLZRcuxfd911K1hDkLZzwZUglS/Jgoe3b6XIm5NYsXm2u1cAbPgYQ34mpp3slltuWcmUFLhxxTeMuPEi6J9LtIYzdtraxQJ7Hck+mQoYV+bEUNex75pP87blfONDAYh3JlZ8NRt/jfX/FYogTm1lAaTgmvEqzLXA3M+kt2X3POqLB86Qp+t+9rOfre+RJfHY7sVEBwMvYEmpSHoWC96zWqC2elirYH8J4l43GhUVfDAoGnYlQqIMCbCVI8g6fQUgTnjd9z04f8j0Bq1IyetaDQCDQuHLe0TfdrFVM+DGukS5pgMXnPyxVxeahxEvFYA5eemx5xo/MLWzsOO+znc9x/rrx3kwQlgg5udLBrCcORAHQKSZMzgUoDWHeR0iOF2jeBDpTRrRksen5AInsX1hYA5hCowcTD0/6SDITkCPjFGnmOfb1ippvfzABgsdNqwh2Xwdw46EwKGwcFBnwOeNWFJx4EwWVgkix26JZVMyzLPlUGTwmpdsvtt+cWaenlFu2HS4Z2uOsJmba/vkFqhgDU4RJXAGIw9hnAMRaYIzyLkWdKSQcdARgHkAfvKTn6wkexZfc801K3ESLwmIsYYwsrZQdlU2wmFDECwIZb+tGwZvtHUmfbrmyTnTh79iJYtg98UEDz2Y6ehou4V/YMzLFGy97MFKTtHgSTGXPLzGHT94cPTYEwc8BjnzJciZ74Zr9sR6mGAyM8nuV1YoOSymbPtpO+GUQUeyQFl3biuMSES5RmBdkn22XOscyfzxj3+8fsQ/ttum+wihW8kgjwxbnpPNsVHneWbCJcltc+Rt+eQQ55A0WEoIWQlyFnO7kARMPZ3a/74OV5Loczl/EoEnRYcDfIg9fHUjPYXItgFHsvzDVleKpSFeI85dH5XU1qcc2dW504B7jlUXwM4AIMhaW62kIjjSgHNfN7g3IpdNawJHgO2y4W+OfAHgR39f3iOUfeQjbwYPiwCRwAeCnUsQ4thHOBl44UKsjoKhM7sO2BwGWdg8BjxG+ggjOWyTbwdiU3zm+1xN305jng55sdixyJOF1XqNoeAmf+ZLtjMb5UnsrmeS3ZM7TPz+X5A7XADCHBAAI8k9xxLOmEQ5CiA5LxgIqCAEbvRsYaudoGSZ8/lVp3pj7/MuGxLIhgSw616SBBW+Atb1RgXAZ8WBbP7qUtfmxCKRfjSAPduSxC6fbJgXY+8H1pLlFxbbOXuGM64a8YZD+OA4/KhFp6Pic56jXDmXdOeuk13JncKuATaQKQlAtdXMrgaiJAksWz7Ik6c3gRWQc6TzQ44+HcnVNaoc8ZIs2QjVcRLbtj1tIwoedmAsMW2FEQuv+JwR6234+O6jGr8SB1fdjix6PfN1X3HCAS+fdNjrLd+WDbvBpjVntsy7TxdWGJNpjW+2DxO2jO7GzFlzh+cPJZcAECURgQICGCkqU+WpegcwEQcI8OTq9LY7dqw7I8N8tpFcUXW2HbJjTUeT9SJjm+ZzfuwooWQiLXIRruvZgd19mO1ODkN3FruzeTYQD1NJZUO8sJkrWfBa6+fDkoMjfOGjIp7dWpHDXSIPG0JhGNYdM7Gum3PdGvn13wplLEAE6kqGOQbINbAlnwG62aCPuDoje87myLLhTE6C2TbYmLbNZ4tvQ5f5vKyLvUgZZJAMk25iG+G6HKG99fLLDrliIu+6F5/WKpbsVwzWcUOPTvjMS6C3Zl1uVBTkYcIBX3S6bofkzwFvj4xl5IMxEzav2THY7RqPBrn1FlHGE8oAhQ5rkoE45xIHoOAqELq+K+6rQ/LZqxMCQreKZbPdoGSFx9kwjxzkVhiuIwUGNrxM6VDdR7evIsnR49e8roGNTaTAV5fVkebrNLLm7WJsi1uSe4ayad3ZWn7MwQ6fuXazGqh5a7iZCVyBfzDMx91R5/KY/AnJFWTjqEqwPmWqEsFk2LmXCkQLZK7Tbxvmq8S5rrvpVEh8sOkeiQbi2EEaYqy11SNb91g3l3yJl2jbNL9sl5BZxPxYi+iKyj15xcMHm3VwyYaVj7octvToKjC4jZIobkVaga3F/zIOE1yespdN9/tn7kxOQRUwwZIAQBVpLvDpmNM1vRDpTIFGNN0KJCB0yQicvKKoA8LALvmqvM6YhLhmg30vP3QkgU042S0h9HvekidLrp0EzpKf7/B6+ZJwibVWgcFMhl1zZMzBVJHya8wdy1zFkL0l9BEjXuI90ROSO/WPUpiJBgDIgFZFAiEXCX05YJ6sNQSSd4+UAnJPziAjATPprSMI4SVKssjX4RUIDG2BEeieXba8+PBfrHCQY8t1drJNx7o1NnS1goGRL0exu6ZXYYgpexWAuRm79WJfF//jmBylMhNr7t+f3HcXBessIECNnDsDCFjbSskr2QKr42zNPeOQaZCz7mxIjFFxmOen3aCk59t9W1g7Ax1zBtslThKtSaz17tmq8+iIp5cgMffcDwvCKo6S2e/PJUzckwNy7nvm80kmjtnsSK+Y42YFNMZMXDmZdg4TS3Wf3OwcGsl58+4F5TAnkLpIAEafAV1HTF1PXtLp1h2uq+YKBDF8ua/QyEmgxPYSI3Hh4c+9ZHmuV4QKDSb3sNaFEXpIOp+6lS3Jnh/dKjjzcGVzYmSfDXGyjQODzUbyFRF58WX/qGSla631Cq4YSjzZ/dePUyEjKRwaBSAjBUk/QgTsjRJggQpyOdsRS848GwJDIJlIKCFthYdBui+hs2DoK4ieo9ns7FHBtqQrDgmbyYGPrCGmEh/p/FbE4tG9CsyOoHCKSWEdvoXHDT0YKi7+w1eSFoDdEM9h7K05z7V5fUJyM4qUPpsBmnHXOcto62Qkia7AHYfPMzJ8OLcLTDt0eh6WePZceyniC4FkehOOLDbpt5uY74ALmWz0xQdZSWZTEuBiU7H0GTibZI12D/6tsSl5zhUmOffJ9rmcjXaYGWeFQC8/+Yqr4jA/E+a+AZPCmjzM3Gz7XFeQSJkOpzHXnB7lrOSRyYFr8xNoc4iYyTYvMAOmEi7RkaGbFaCAyLJLznq2YEe0JBru2zrJi2++0JEtMe1C9OrediNnc/w3zNGt42sU+NuZyMSNc8nbGzni4pDfw3vx5LddII7jZcVukTByGHFdQghQ6nyYpLlGJhscdE0G+Y7k+WjbnbbpkWub0xnu+ysM80Zy7LHlCBt5CZVAZ/FZcw2TYtFZc2t37bkoceRgo0OevvuSwj65klfCinEB3A3zPb5cx+lRyZ3Jm3LxlT67xcnOLFxY+XMks/6GChE+2Pear0LnSDjjRyU/o2RyQo79yC+wQANkmJ96rhFuIL2tjR3zdbX1WTT5KlklCB5zDgVSt7dDhR3eOhS2CgCGil6yFUdk0oHfMYuBTcM8HOSsO7q3XmI7L6UPxn9LbrtZTRJX1LLN3upcb5MmPZucA5bxw/N0PgGYnyBdd5RI97NzZiUn06OiLz78HCch/QHB9BOh5tiqg0pmSehebOYQ09ZrTqLpV5h4cbAHB1lrkj+32rCEgx/X4izpJfiQx8PEdk+u45DTbMDFj0Sz3/uSQszO+g/BIsWP1JTcNzJ21P3h2pTJBkdIcSbfGTD3JSMyCsYzxVrdle3ehpNjWxKMEuLaC5P74iMHk+D5Dh8Mk3zXkmfEBSwldMZR4WSje4VTzORLNpuT2+VkNyYv7ktO6/McT9kvJjzhxstnY/2HYP5QjQN/7OXtEpijBsMFdxSIQOU4G+6nzblNHxZSgSJWcoD298Xu6xzXYSnY9CRB90jIxMgPPbuCGNkyyJeU+WJVwtiHI3l2pu+upy+63VfEa2I34qj7//U8eYdBjLgRj3OPEPcV6/bWW29d245FBhD/Ucn9/8AUrAA70ul+ykRWPt27Brhu0X10YJQgdshEXB1W8pNni53m6bW9mrNmjl1j7hLhmUkuDvIzthmXQigG8+GdRfC/cFiCyE5dNuWoL2nci4Vf3y34KTTd/wNtYSXD0moREAAAAABJRU5ErkJggg==;imageBorder=#FF0000;" vertex="1" parent="1">
          <mxGeometry x="170" y="650" width="85" height="80" as="geometry" />
        </mxCell>
        <mxCell id="32GEzlC8_-ixo2tJrArx-30" value="" style="shape=image;verticalLabelPosition=bottom;labelBackgroundColor=default;verticalAlign=top;aspect=fixed;imageAspect=0;image=data:image/png,iVBORw0KGgoAAAANSUhEUgAAAHsAAABxCAYAAAD1XNwZAAAABHNCSVQICAgIfAhkiAAAIABJREFUeF613VmvZVXVxvFN1REb7FGxt1BRUBFjYjR64QcwUWLi1yHcmPhhvCHYhAsuRI0daJTGBsFS7PsWsEHe/ZvUfzvOqnNOkZB3JitrrTlH+zxjzLX2Prvgqttuu+3pf/7zn7v//ve/u+c///m7/8/x1FNPnWn+/PnzZ65fSf9M5f3i008/vUSuuuqqE0Wfq/8r6Z/odEw+1/zOnTt3pour9gJPI/oFL3jB7sknnzxT+LkungZydiPjND9X0j9Nb9rPxtYW38/V/5X0rxTfNqYryV9pfWvvqs985jOL7KOjo5XsswVjyl1mdNM5AclP187u6eoIVen63//+9yEGxfef//xnd/XVVy8ZOuScdQF9I5vW5NHa8573vCVPLr0A4suRLTr5+Ne//rXEwoQ+W8VPjq7Yit01H+7r8OLIVz7S5yObrmdnTpzSL4fWtrmwLw5xX3PNNTt5/O1vf1t2P/3pT++O3vCGN6wFE20jW/Iyuj0nN5PZ6s6gZ3DmDed0ClYsgUmm2CLNWrFaCyRniUpY0bieRRyZFUl+ihE4+c1XZHjEseuezWKI3BlP+UwizWWzmMNAjtYnFq6L01oH2a3d/LErRkO85p944ondX//614XRkYWEts6X1hgZbWob3FY+EAv6JD1zdQC5OiQiIgh57NUV24TZEV/y7HSf37p+5hnwZCcZxcxOfssnX3QihTz7xTV95D/8rMk5GfP5nzLF0Hr+tnEUT2dF6z1MPPIzLhX//yYCeCoX6Ey4ueRmgF1PvYKb5+ljJhP41sm3Zl4SrdddJZRfW745pDvbfifw6WfbPdl5roPNAQno7CLIfd2cXHnV/RVIeFpnQyzlU37puq+QZ+7hNHEtn86t8cuHOGDFpzVzCxcTDo7axiYRrnNepW2DSf60x8BMKH/OAZ4P/s0BySj4QHr88cdX0BHaM1lCASqGSVyPhmIslplLpADJPL9GpM4518W39VtudW1kzPkKK92JzZbQ1maBhFW2u3cOP7h44ZaH956///3va+0IgIwJIlADZhqac1tHBTlB2AYVGWQCI8ADlY61upasAwliI59s8TpHRnJ1NnuS5ZsdRdKIgPIKg8hMvhiTq5jEUyzsu6/4zJuL0Aou3CIvvLJ9CG5/EdHNbQthynbNP18OMchX/PF69MIXvnC9oFlEfI5PMi64SXQJnRSQuQLm0HXAOdsO2+7abtlv3lxy5sXz4he/eM1NAvhxz5Yc6BsVTED3wlJcS2gM9tMt7hlzeLDHX0SGgRgr4shMPwLy3c7hnizdSXxyxTHtHY/6mTtyhpzZdujkGuGwHqA6gLAxiZ7GCyjlzifJF2gJO8/E5nzJqsQAj2BA9axGduRZt1W19ZKxZl6S5l17UeGrgpZPBUNeTHVofsRBFx5k2inYiTjrkV5hbfGoCCOrAjbPTvrhMrGe+J1FdrjShZ28NbB5pPORrXM5mlvcdDSvC9DcNDIdcnqafp3sHKnJVzARWPW/7GUv2730pS9dOPAvmflREVGSM68Y7E4IVrz/+Mc/DsSLl6w5a+TKwRzybHfmkc4mf2yJSU7mX/KSl6x7um3lYkXk3JWKH6705BfJfFVQ7JZb8YSJ++3cFttkm+dLfs50jbA9ijgTOV4SJ4ytTPIzgGk8J+nVeSWQXvfWA6kidK5Ts40IYCFCUgYAXZsHvOtsRYazg0xEtvWLAUjm6ff8rbutkTGvsCLL51gkW6M7DzLlUVe345R7BdKOFEHlGobsbsfEd7t20v0iu+MkgTm3Jbv7CqYAnSeRAA6Mtj/rBZs8GQcCgOo64J11FHAB39YbKZHBvmtvoHx0T95g0w6gUHQ0m2xUKBWCb57MkbO7vOhFL1pdjxy2JmZiKx7yiKlIi0EcrpFtnR1zBnx6HIVl5LMTLltytxguY2eM9ZDOCOVnO+h0VI3pB0Sd5BwAM/CIZ8d1cgBv67SGDEcABQxCkcKmb4lmHIgi5/zrX/96+X/FK16xbCBbjH/5y19WMfGVfDG/8pWvXARXRNbZ4INd5IqZfmSzzS655s25psNWOxI72YA5GYUyx+Sjwmg9zp4tX8sHIxkKrCsZmI4iig6gCpCtSO9MBhDJbAOmYy5wimN2DsAQq8tckwfSH/7wh9WpPa/rfvfkEadg/vznPy/yXSsUQ+fy7V2gzvvTn/60ioE+ghx0PEJe/vKXH94bykFOcCRTUVQ4bLId8XxZI0uvrZzeSXw0x1fYbc9hddb5mdfvvcQW+JOUOJjJRY65bSCTUBVsvWJyPqlSdZh5xLhumKPzm9/8Zk3pMsQ6kIfotl1ywAUkgl7zmtfsbrjhht0b3/jGRRJAzevu3//+97tHH31097vf/W5d/+pXv9q99rWvPbyckfNyKBYFwx8/HiVe1PgRq0N+5OXdLsAXUs0b1szBo1yt02VTnuEmj/C2Hl5bnLMbVmedD8/ss4RamwRWnebqvNadrRdw8+RaKwH3ErGGAPNAdG6nYEenAgRYOvPixYuLfB2OyA984AO7N73pTQeCdaDBbsVlGzfY6jHx/ve/fxUGgn72s58tmw8//PA6B7a4yIiHLlmks21XUERy4DO58ooccZKJ7N4hKhiPJIOeTjfCSPzdJ3PSeQmdMY69jZ8ht5ZKPsIkPwMpMXNtZc7kHW2RAVHCkV03swPQ+bwExo9//OPVYTpRNyGKjm50bcsFlE7it8JhKz3EiNu2ygZZNhB3yy23LBsf+tCHlo9vfetbu8cee2zpkineihiB/PRxTTH18idX5IvBwS5/jeZ7PMBAAbFX7PmDl7m6Oy6uxNd2fZE9lSNmChZYlRnpAAKcQAygBjQZwZrTkeYLNn0AAARIZP74xz/u/MnV1gxA63z//Oc/3/3kJz/Z/fa3v91dd911uw9/+MNre3Z4rnq+ktXx/AW0rZZNZ+TxQR4hCNSV9PiXBzn6tu53vvOdKxbd/sADD6wYjNe//vVLVyHqYvq9JNrmX/WqVy07itNx7bXXHt7eFaJ8YBGRzu0K1tiqMfjjx6hwKjSy9JzjzL1rMq3TjePzt9566+3zmbIsbwZFg5GTOtlaxutIDoAhADolat6czgJ6lc1GhYIgQLVdf/3rX18F9d73vnd18Jvf/OYFgoKg4zy3QcSSBxxykeCZrAicrXWtgMSEQMS++tWvPqyJia+bbrpp+dHlDkVAR67ImsQhXyzWAp+/XtzCyZwCoxv58oiYielsEvOtdT115nq8ieULX/jCM3/PTuAkQ+Yy1jkj05nAJSn4tmMAmpcMYgXdt2HmAG6w50CSMzt2Dcl/7Wtf2330ox9dcrZgo+eldSAGtoJSRBWUe2ti6IsYdvkxAO6+znTtJU1B6Egx/vSnP13kvuc971mPC13+1a9+dffWt751xa+QnPlVWGzaQQwdrijlbBeSPx9i7lFHTpxy6bGiYOi1Y87CqljomT+NE+vx1PnwNm4xgUnmNDgNNO8sqLYOQUcweYBJUALmbZnu+aiizbfVR5C35Iceemi9dAFHAQEDoOQvXLiwzuzyz54dQTy9nOUDmXRV+PXXX7/74Q9/uB4VisfnaTbp9MZdEbLlTd99hNlddPs999xzeNQgkW2xV8zsw8Q8O4pB3q7JdzRHVgzurYk9zCKYjOJ174iD+IqDuLQ+x1GCGZiEuqaQ4e47t9Y6Zx05sibAZF0jr6T6CKVIkIUYz+A77rhj97GPfWyRiqgKiB2kOLNVxwIGSIgDODt9vAE80BWFLvWsdt/OYCdBKB8OMYtFMbJPTrwOtl/3utetov3sZz+79MTCdrnRqSvZYwsudoawcC9mcbDbPWzzYx0+NYCGiK9JYtdbct2z2/z6vi6iJ+GT2GQolZgkGDKqUkEhEkhsWScnQV2kI1xLwprgESshA0Cem7ZuL0g+UtVx/CLF9obsOpx9XUMOAWJhG4jO7R5ic1zcf2RjgyybbeHO5sRPznAWk20d4XJgl3/EfepTn1oFpXj4UZR02CXrUcCe/HyU++Uvf3kgvk8A5OFhiNdREctrfgowb2xJXJOX5ruec/F0/pOf/OTtkTMFInYqNwfgOoUhgNR5rgEnCcF6bvVcBQage4GRJJt11fe+973d3XffvXvb2962iNZBba3Ao8uPTmWLb0QoLPMO9mbHyq15HQN4RdbzP0LZoNcnA7bpid813/Jiz1yPDs/i73//+0sWMWTZqsgigbx3BT4iU97knB1t33JoZ6iTy4E9Prb8uDdqvPTIyvGLX/zibm3jLRTYtnJar2sEwgBDbUvuc2SOjIIwhxjbH7sAETjA6SgE5P/oRz/affnLX17fdgHcUTG41snuXQPItbjaJfhqHaCexcAFIh+GmBDFFuLEGfk+UolDfOKKULbEy741ccvDC2d5ffCDH9zdd999Kx5z1itMOt7w+VNs5n2Mg4uPadZdGxVLPt33rGdbfDCP7PTiLfyXsf2oALo/N5UtToUpXAGQB7Z7ATgLQlDWJFs321rZs05WNyEkovMH/K985SsL5Ll1I4M+sOk5G2T68kIR9XGKf13PvxcrYCITwGwhHmn8ViwKoC4VI6ArJvIeM9b7yfUvfvGLgz2+2HrHO96xtvLexumImz26SO4vZ3JwsGNbr/PkRd6aeA1rvdm7V7ST4CW0H/Raiydz4Zfc4d+LEOrIQMRTLPBkJOAaeIwKshcNCVoDmucWQgSNdC8rbAW4z9Kf+9znVhcCFMDsKJ5e1vjokUBP0QBC5QdyQJuTeAXXNs2P4d7oxU5B9PwWryLpfaDuVAA+gikcej6b+0o12/L17Ru8zLHZy5R4zclJgYqdDYXyyCOPrEK1xnd50q956MqVbbmRI+9+ckZm8hfBcel82XfjFLaDoTrAmnuA6g4B1jEFJRDrggK6+57TAJMIP+Y97x588MH1zVgvQNlXRBLkGwF2DWfrXnhsj9Z7GUJIncOHouLDtWe/TmKDjjUFxladYQ2RckJw3W8e6O5d05GPXMzxL08drQje/e53L3/8wiYdfpDFv9wU1sX9C6PR46liJyuOupwMTGEhx5OIndy5ZqPhen3OnkJTwFpE1xHmXM/nIFJVMlnXus1wnVNnAEimrRJY995770peNbMrEXaA3nOe7cjWHXYHYAHOduhapwDXAK74EAIcdvl16CoA8m24F4/7tkJyZIDdXOR43kaMzhSvN3NF5dOGx5E4xC5mGMBUIcAlrL1TuFa0fL397W9fO5viCV9x9PgSB1zo8BW22ePD+naYj9NjX6pQTGEaYSAFyQHBfY6dBdgzGtgCJTMrkR4QJAC8+++/f33U0hUG23VD2yYw6g5rfcWqQNwjufjYNewS7HsMsMkGeUNs5BDsWoztBrZ68Rm9JMlLsdFHluIyhyy5kRefOLzkecHkL7zmdmuOLBzY82lD/grb465HntjxQLcY6dILczKuw7dCyK+1rldC+3HsZ0lbAc4obA3XfQUkCAP45pqnB5jeeHOOMDa+/e1vr6TpV2TO7AATMOTEQc4ZMLZNXSNeXeFcEbkHvMo3zNuu6faduWsEig/x7tupxOvoi5Bk7CIKoG1VPGzrcjFXsP5Ic+edd64tGlGGHU3Mis9HtUiTI302fU3Lpu/hne1KhjzEEMZx4hzWES6HyaFrR+OybXwrgCBGMwh8MhLn0ABcLw4ZrvsBV5cIHLhI9OdKW6JukYwErfXCQoZdYLCBQB0rFvdtcQoDWPSAD+AKgCy7dZOzYulN3j2A2FA87iNZLPybmwDassWMNAQjTH6u5Ww75qMdhx02w892HnnwY7+XTF3OnsLgkxy85SsXXDjoRfpZnRwXcXrYxmdCVYyzMR0KmgOJVXUSsoUbzgAWYHrOybo2fO+t4/n1fbXEVLMuQAB5IHkOSmy+TAHzLW95ywLQGpK9fAHdVhqw7vPLfj6QK2bFJkd/1ECOmM0BXA69UcupghS//BU3opBuTsx0PAp8f27IReEhWDHCTE7sunbYuvljQ+fLw7zC7v2EDb4idhnfj0l8jdda52Od7aaqcS3hBJwDq+oSCFIYBwBd4ElUwm2HbY8CZYMtczoAWZ7XKhohda5nmHsJW5O87Q2Z7AKJjboQgO9617sOL2Rk6PLnhS+AEMmeWHtpIysXNhGsQCoe9pEZHuVnjh27ByJ8GmiXAbzYkPe+971v2S0v9hBua5e/NUWhgMXBLz2xeSeArR0EFtbNwwCWYrA+eav4ZvdHNo4qhPMf//jHbwfOHASMOjthQXHi4CBD9AWhGp3JIYqca3KunSX6gx/8YPeNb3xjzUmmlxDkuQca++ZVvBcesUg+0nzjxlcflcwDUwx0627XSNedkWcN6LrM4JdtefJNru2fvsIRy4X9H2XM9xWurhZDRc8WXUXEJwL7WEZfcYijz9oVLt/stJuREZ+CMicGOJifXLXGrxgUF9kO83DjZ/09O/IKNMWImgS75kAiDHPgvrmIFpgqlCDyClYBcN6Wlj3bueRUsMAc5CQLOJ2BCH4AzY/RdkyfTeACro9tPU6cEQtkNvjpsSNPHSaXtsve+Nm3rqvkpOv8yRX55K2zJ9YJNp3ide66Am77pusXOGK2+4iTLfn6NMIvHfac+TDihN04MGdsiWaPvnHZ27jJBJwdDAkQGALiJKPINBew9AuOnGtASahELu6/SEAowBWObkcGshQRm3TpSEYhOLODKCAHuOcdonU1XWvIV1jsAVRxeETMXGz35MnKzZATeUUqJvH1CJGHXcMOIgY2kyk/ehUiefYr6AqNjNyd5ejsixjkil0+7CosW7k59s2Ln04cse2YhE6y42Ip7Mex/ZtgBEeYMzCAIvgI5CTHVZig2DCqQjqKBHHOKtjzi93Ap88eXdfIdQY28Nh1pu/tvATbQdgEpjiBY13HIEZReCaLx32+FEMFKEajR4i42DLPr2v26/i2WTuCIp9xljc/DrZm99UstvSe+3woIAXLVl2sKbw8KrjwEqMGEVNzkc1f+MsnPJs7kN0CAw4j5Tqb0YCpYisKCQkgGXK6JNDISUZSRiS61oEOFY/MPsbYMiWv0JCGHASb84IjBjoAqQD8Rsy9OHRLO4j8XItJLOJVJD0qzJurAOtivurEXtzE1wuVOQTQ15H0nZGqa42JnzjIKEoHHKzD+pvf/Oba4dhSmHLhR4drELFURHCAsTN7Btvx5/oyspuc5xSqmAxlzD1gJOkQsMR0i+4DDpIF7V7yzgZwPHclCGgJe9Hhqy5xryis274QrQja7oFdQbLlr2DIF4vfh/V5G5li9vFNwdTJfAPKUfGRAxxfYgGynMQkV2s+1slDRwPf8AhBgFx1v+HeEGMYOvfpADZkxMEvXz5+iuc73/nOsg1Lcrbzvl+YRLJXgYdF/FQ84o5X8azObiJjzhQyZr3tKXn3SI4gpAHCkR6AgIzgXkIQJmkHPxJixzWyJKGSFQwfAEduXe/zNRLpKQRv6nWaa78+5d9HNnbZ41sOxcKPXcZAFrmGQrNWHtYUDyLMt3uxiSSdSIZeIPMp3gpKrmTowsuAjaGgxU+XDL8Il2P5KWQ/6ICRIpmk1+nFz7fDiOzWjjjhOEIZEqTAzFel5Kocc21v/fS2LTY5DoGDXN3HXl3EuXuy7Lh2tnXxDVx6/CAbOdbEZl4H8WfN35LZAZqDHZ1BjkzPQcSQEwN7wHRPxj1gkCLu3oLtJkgLg/5o0ctehaoL2UBk+ctRcbn36UB3IhWZZGEpV9fsi6+i9vLoS6caQuHCufcSOdLjX9xx5mxYYxt/riP/2D/soyyInl8UBCfhRh0tkOToOSTXixxQXdMHPIdsS941Ox3sIMp2iwT+bKe6RZL9ZUvHA0ICAG+blZStVdeLubdaf4ECtHs64gAUfw4x9r11u01rbd90IhypCOHPHJkaoy084OXZowN2djf34pArf/I36PCrsz2S7E4KtncEu4f8FDwd+LVr8dOuEcbt1AfSLl0cfl3aAscpCUxSkjPPiKES64QqR9IRGRjA1DmSjFBygqPHXtsQEuh5LvZxA/EIBirSAcCvQqCnCNgHkJjbZfxUmI6tjxyf4m/rFktFKGax8Bn47gPVurgqzLlDVewwYlux1hjZl7uiFKe85cxG5Iqbj+wj9Oabb16PJ//8yBqyYck2vYqGbtcVpLk4dG2I31jb+CQXMHVi1S1ACoIWlHs6gnfPeBXd9iGhtlJzybVz0Be4TpGgwzXQyUgOYG17bGQHcOTJ8msLDCzEKwrHjTfeuOR0r3W56nRkto3zyYZcxRQW/LquGMjoSM94c+SRABddDXTyzuLif+ZNR17swMW5e2t1KhseI75ytYv5/bxY2CWnePmUw7yuccohTuJ3kU3RBDCMOi2yUqo6Wmdcwu45sG6bQ1JbuqQEyj47isUAjucQMCokssgHEjnJs6VLxYacdofegLMnBkTwIQ7fl9v2fPTiQ8f7rK0omhNXel1XvOYVlMN2C1g5GBHED7KtKTC7DTti7tnLN4zkRo49cwaM5GW+wXY8XNh/NesN3ccvXeslzbbeDjj5oNPzvWKFVQUmH7aP/StOBhwEKQt8VgYyARooAOZI4AEtYcm1hdchdATKrpcVoAueLCIF1FuvYhA0Utmlx7c5ALSVVijiBTZbBnINsUWKWL3d9qnBPHts80HWLiBO9vioGCOgLdmaIU5xu69A2HRfcbDFV/hYbw42EeyaH2vNeaR5jGkMjwmNIEa+2HTumo7Bzxx1uvVzHLioO3UE8FPMKDkBuSfvQBxn00ldDRgVWaXRb1vzlusArLmecxGgEDyzANbXhAoDEIpIR0ne9kzHnGu++CUrPkB5W9ddikFn+6IGIGxHaN9QkYuYuU2WR7nQl7tC6bHTc5UNpJCBjXPk0jfqZp0uBrHCgax76+7l7kWUH7rtmvMl0+6WLzl1mHNE9pIpKZOC0019xKjCBIssibStCZqO4BSBQ/AC0oW6jOP0BKUTkKyzgc8ukhQYgpzZUGwlbO7i/mtDdvgjzz4ZFU+PTyQHNL/8mfdGj2Cdze+F/fa4qvzS1iYPZCMUIOIGNP+K0dzMQzFEcs99OwnffQRDfMTChx026Drz7yzmGkB+sO0lzHp+XMOqDicD73YeZzJGjTjP5bp+N54jQRl1pXlG2h577kgAeD2DnAUQ0QJR3eQE6RnGDztsutdlbAAIoVUnXcAh1dk9ggDrIEu3blac5tjxQqMb+GRPPuKqW8m0FbNdEfNRcZnjR6yKE5Bt9TUG8OTcDyjI8yMuIPMhftgpRmd2HPTCix1z7URyYoMtxBs62yEf69YqIFjKjaxrhxjrZmvtHAtfC5IVoAWJIUPQDAtUUIfquHRdJdVVEjBXMpHnbLDbtmbO9qfTdIUAI7PiUyyCBYQBBORVcK4R62xLJyde5/kIUVBI41NRiEEn9/Guv4fbCeRfjHUdHORkvl9/kmWjvOyEDgPJYmQLNvTCFT7iiJSKxzwZxIe5YvQYmn/5sk4OLq6d44ZvdhWrY87DlN/DnzhNcBowhOdWLGkjI2QZBQq5Kq4tPNIKAkACRCo9YPUFfzsCAmzzfCBRMg7dSwfYhjl+GwAQjzjM17H5zo6ExWUAuu273COCbzbdAz1Q/SVNfO4VIxtemOTe7tUbel0MT5jIf5KAGJhGBHm++MwfeXpsO7c181sn15TibTcwZ728BnfP/LKSI0Z0goMjjgVRdwcuIw7yzshxrquBHljskHO2gwBD9Qtet/JLP1KtkQEqG2SsG7oQsEiSjCE2uwZAxRrISBc/n2KzC/DJvjkF1i5mZ/BSyIbCst4uVffJSQ7siFWhkvGrG2tisqsoZvqRVgfKJVuRUBGyYw4pcuWHnlzZkqtYybMTmTWF+3Jni+9szaJY/+3S2f5VXE4DtHn3EUzXITiBAKttRqDk2nqtuw8EOqpet3pZSx7wigYwJUpOsuZtlxILMHoIEG9fZADcSx0SxKfiFY9vuJDi4xufHiE+3lhvJ4ls9/w766zA915g0JWv3cgvSsWhkJzFAXS+3bMfIfBx1ETkIrsi49ORXk2ngNmGA9lJPPnskG/EkftzswJdU6gr2y6qlFl9AhGwwaAAdAtSySfby0OB6S6F415XA74XnbqbPevkJNe9ZzzwFARZ/iXddmfOQHI/vheLnQoYznJCHpIcdo7+SNHnbDrkejwFJNv88+vLHrEpFvd+Gm3IV0wVN0wioZ1vrle0ZNohKwD4KHJnGMCD/womO/y2Q05yzWdfTocvVUwaEV4XUnZdZbctA47jCmE+t9mhR1aAZCSfLr0AQL63TVu077rN656SrIgkKDlD5yJsJbD3UYfZAcQKcMDpUl2PzB4FigsBjoqELfEj1WCPL50ExIpDAZjrr1i+OROXud6i2Yw0sbDDF7y2ZLqHi7NcWjcHI/HADxZw4odNcvzQ6SBXjrA3rM2x/p7dFp0hwhwC3nAWtAB0A0cCAJCRfN3GqUDJWSsgc6754ZM8u7ZW/6UF9gDjK0LJ9cLmq0665OkhkSw7QGYTqUjyxt1neF8xklcEvYcgG1mAayfy/PWeQBa5bLsWg3v2nIudD7+GkZvCtCPkawGyH2TrMriJQbG0w8nFgFUHv3Dt2c4GOWcy7MDLPRnnuHNumJ8j8g//GJ8xk4w5F1gdnhMgCapC6MVEB3pB4ZQOoCLXrtBWyA/gzZHr6z/X/kqFSF8e+Ned/t2UBHtp7Ed4EvEHgn45IhZyYlBgzgpF0u6RY/cQm7k+ngFeHN6yDf4qCmvu5eGZLE6Pj/5RgB8JwqgXJ5hEEp91PLsKBW6wakdDIjn+2yVh5L5OholdzDr7FTsMXVtvV2PXPH1n9/J1XVNe9l9eYMRi1VF3RpjABVXH5rTqyWmVZp6NAigIW61rBxkJ6bo+/+puz0SJA07SdLygIYDf5nWe+Npmzdu65cE3WcUqdmvujfwDzA7Bty43AOmljl3r4vMpwFXvAAAcYElEQVQyyY7jwv6LHgXWLmGrN88mH/Kn02OITd0dfuTgyA95+FSM1gwcsKlQXNMND7n1cU989I14iJ+a1drhZ0luKDgS5CCynNsyAjoH7iVuAKeE6DvIcWrkHAmugdGWr2sQSZ4diQZcFasrEWN4+zXc67y2SvEAWic5AokfhQEcvhWU7Vvni4dtMgoL8a75V3RssIsIZ0CL08ulx0w/TS52MnJRoHy5pstOOCpOecGuXWE2CezYacdybZ0demKm2+5n3YgXfsN78WixLnZmrCQpB3ZFYA4JHEgkB+4ZJk+/oK0HkHmDnPkC4bcdJMLMeaNWweQkp6r5QRDQPHMViGvPbM99sSEPuNaASN+wVnch0zwbjXSRDWD6fYMHrF7Y5KYA5OPZjXj5iLdcnMOCHH3229H4rIEiEQYVArzZSM+93Mmyxw5M2hXouifvMOjDPn6P/SMBAlXNJMk1BQAKJmKAjAyBmOe4Z1dERhQbggh8gbPTs10CJcuWP14AXMcEfi9futNzVGd7I6anW5Fh60UQPSTYZtnj33NbzNa9Gzhc06HrEVGhKgI2PacVBqL46XECK7uH/Pjxj/nkxCZ//IjfukOsdp8IgIWY2DRXQdQYbEQuO4iEnfXItu4e8T2XKxDnOIjsw39TRfBIo4w0Zw7rRnOcFlidLgijSnPPMXAMDiVlZNNcgUraPfsAklA+Ki5+yetKgJGZ9rrW8eKyAxhkEYWUwEOq2PoCpHy9/OnWvtSRg4OeeBSFo52GDfLewtmKcDsMeQciawS51SRiMw8rZ/nw4zpirCks/uQe2dYrCLjBnW345bfzAmE/6vRjz2wLEYwgDhgmLFBzHdbMCbRKqzMFB4yqWiA9uwpAQJHumh1yCOavpPg3EAdQRHoO89ULlC6kg9RIrPiKT0w6F5kVkbhd85U++XR0Nhm59DxXPOUtNkDzac6O4xOF//wG3exYEzf5yIRzjUKuXc96hWmXkFs8KAYYsAcreq7pijOS6+hJtOv1dWlHBApsdgKCGWOcIcmbC3gAWANwTqs0CbIrEDqRJ0hHAfIXQHWmjlbZZBCMXOAiSBwKwODXoRMQ2lbLH3B8tUmWP7F4445EueTXzlB88tG18ggXOAHfLtBuZc7jxTzSfSXrESQfNsRLnx0j++2i9Mk2Kjw68phki18ucpK/QU4O8p82Kqq4tba2cRNtN8CVSFsKB4KRiIC7JkePUcDpKmfr1gKpnUFw1nSIOUAg0zU99snYZnsRs0Y+4BSVbTIAJWlOwjqXPcAjj70+s8vBy5a3ds94eroQMa4NoJKjp7Dk4LHRI0SurmFDDj4GfQXGFyzo+3zuLR0GdMRLTx7O8pSbPMOJbls6GXk7y0sRioe8QiUnbwSbF3vkwqJPG/zxRX5xTMiEwzXSLHKEBIlFDmfdzzly1tpi3NeVgp0HcAKwBIEWAK7pe8Hyn7cUMGIQBTQE9BxWMMit8CTqOapgxC/BCGFf7HTFbt2Qb93T9ju7UOzipGueLH3nhvjkLi/Y8dUu1BYdbjVVeIddctaR63Hj5VJ+1sJet8PQ7mZO/A4xdYRlvJp3vciuKpwZEVgVzJHhbM4h6XYAgFqTHCAFKwiAA8pgl076grUmAGMGijDySNMtbOk0PiowBQBcX5yINZme02yy3fYZMT0CxFxH0feNnSNSydNnLyzEImddw64Orqv4c48INsSpABSm2MTOlrhbp9POCDOxIV5cCp0/OLmvuGBsVLT0HfTIGGxtD36X3mrvvUBDMBarUGeB5pC8dYk6AqUvNiQmcNU5u0vQgqTPFrLJmm+7MQ9MSdKXHN+9E0QSOwC3xhegXdvidBe7bLCneM2RN88vWbZWte/zE4PnM9l2NtcBzY5rz/1wgFMdJh7r7JYXfYT3CSEislkMMGIzLJCs0OmJW5xkYFQXJ9vuqaAiXj5ku4/LSwXwv/8ygAUJEBSMwCQFUMBMUhBNVlW1rXp50IXmena0A7Bljh3B0xVsOwCf1oHlP6Hh2y1kC9LZs7pOAaL4JOnZCNhe2sTLRtut2MVdEQETOek7e56LS3fT4xOgnptAZ48veZlni1zdV9HwLU9DjuLli441OYrHERlsio8PBSdvmLHtvqL10mfQ5UNBwEusfLVjiMWhgJq3tmLklELnulGARp1u3dZpkJHs9u0ZIY4qy7bmyKbAXUeqoCUZQNYFBWDXigiJvYyYIy8mNsgVp3Md3DMbQQAXN13zdgHX8qHjsCu1hfZiZL1CDFRxmhdjBeO6Xc4aWcOZTcUk3nBr9wjvHn1y8aLnq1eYFSc9fnEkD/ZgaE7sdbUY8hPZzs2xc3hmV3kCFIgjQwCuQim1A6g+TlWbIBDtbbdOBKoKrLs5z/Zyvk/A0bDuxcTRNqeL05GsrZT/nl+BxpdYrBk9MoDeXEXgxYe8ESF2JPp+lOAvbn1vzg5sAFwxVcwKKeCt0XcvD0N32Xrp8+McBjCrwBCti2Hl8FIW5nyRNRSlfM3hhj2HGGuosGotfNa5SWcjggXVdsOxKhI8clSn0TdK5ICFGNuNFycHByqUnENQHewh1LkAJeG3YA7xIASgfOqAnlEAoesAGP+SFV9z/CBXt9TJdiJjzsmFjtgVq1zFykddjsS6mg8HW4HMf7tHcbS9ituAq1wVPh/80uPD44M/Ha042SbTITZNJFf6hmv5Odh1b8Qn/jrWwn6sbbxBUJARz4B7yc2Occ+QZAUmYINTSV/Y//mvAhBcv0AhyzZADL4lVLVLtC2THN3+w3QeG/wBJUJ0qF0AkGyQByIbvdzQ8ZHq4v43ad5yndt2xeGwW3huOyMc6HYtNnQ6DPhgy7U8FSEZOgohoioyeLm2RpdeeNaV4um7f50tF7H1TgBnOvDt047CNC+2SHYt/4iGbf75bVz2H9ApGYYEmgEOECkgJAW8ytXVjNOVPDJUI4J69kiGji4jR352gbl8RVby7vmRUMXVt2C61Lz/5ifgxIkIftiXByLa4tvu2DTY5de9POg53DuzrcCcfQmDKDbIOgNanLbrHj1k80dezBVxuwIZ23W7oxjJRSJ77DvDCqYVp7j5Mj/jNF+jtltGtPljZAvAELyKEhgSKFpjXBLWdS4wBGhIHrE6gw5gVCkZBdI2bo1s3RghgmGfX/bdV5V8Ik0MOpBd25eE6ZtHmuoXj2vyASsu8QISaOyWW+8AfIqLnqIhq0AN9qwrLN+OWWOTDXbFLT8/bhALvJAwHynmYKEBxCwOZMuDrHmH3DQKu9bE5IBH/PDrvoakH1/mI1qedCqAy/6jdxlqG2CkLhRI5Jszqm4VaAvlyJxnDPlA9RJi25OEIAFYEQnGUbKCp2cARbGQF0svZnWdObq6zzXdYkcIv4pFTAgBoHuxkWPXGaB8Apo9fsnQt/WzW17irgPrcKDSJxMGkcGWQ/7tdO4VpjNderClo7DYgKemUJCGuZqMnrjDKV+RbY18RNM/1tl11FSo04DrWnJtHeRdq3hrKrkgbLPAsl5FAlmyVZvHAhvugUe+La/kJIMghcB3nwD61yHWJYUUMfibtcLjh00gStxv1hSK+wip2IBaoUaYfOmJxxYLdPee4X77xoa4yVlXJK7ZjBQ4trMpWLHLEUb0ncOHX1ggjT5fHkdt1z3GKm6YVPCKhK9wpt+uGI7HyCbMUUAQnpUmGDKccUJOlZnvBUIF0hG0jwmzU0sKMLZJxHtjR4CE3Lc9Cpodth11lSTIAal5c4oGOOTqFGQjylGBks1XIPIjbmS2ayCEvjwc/QDCGegeVdYjDZHi6jEgFrY8cvo4RRdOcBPnzC2S4A9f+uKDj7N5WMMTB9bFnR4iy7tic55EH8iuk527ZoyCZDkMJA4YFpQEHYJHVM82a4LTYTqNDcO6t+uqus+77iWvEDzH3IsDOOIAft2HWOsq25kvBzk6Psbw1zMQ2OJDJoLIWnMvJ3q9dPGjm+Z/fouuQ57k2i4VfO8HYvGTJAUuTnGFi8/r4iHvEKN1ONbByBOX+4jlS67u4WhNrGwY5RuhYoy7JTBGxB/bxinUVVVIVcY5kJBqCECyABIQolTzrE7X/bVKgmxIPMBtvQgAjLm2NdcGHfYlwbdtkE3z4jLMG+JRMNZc123WxAYcxYaMgFaQDnErCrkhmx3X4qKjY4FsB3D2UZIPxcK/uCsG9uAobi94fnKs4MXlgGukwEI+zn1ktA4nduRY04gHLhVMZLO1HZE7580tsutiEwJiwJwgJOFaMBJIpm2u7UjCEvfsEqR7wNFXFJ6xgrXGfi9USNHNwNMhFVnAIIYNtukCQuLk3Fuva9p1iq1tFvhA5ddvxJGH4AqAXMCTEbdY2BcHsvigB/w+frqWh5zJwUg3GrZ6jyvzCsYuxgefdTH7HfIRo9y83LJNjk0xVYDm5FnTwYOuHMhZq5jMu+441tkMEm4IpMqjwDDgyWQ0sq0DGSCRyo4EAaBQ6nwdgWAdBwjFUDLsAMgQbDFJjg1+xeFsvW3dfVscu8UONPMeCZGhQ/NjzrORT/9ey7U8vGDKBemArLDqcgWkCMTQY4KcOPuVKx3xyWEWerEjHhatwaGOVvxh3I7KV3NsuzfioDnzbIdhcsfIXqv7AQij7kYYMLYBk+NcAUSErnAoEiA7S5hDNnrhyHbvA7b0+bEn//T4ASgg2fRMpS9JCZq3rnDcI4uea3P8igFxSHTd9sh/n6frdnZ9wuDDr0YVpjlF5lAQiPGIgo3r1mBU5/Lt+wZxiFuRwWsSRt9Bhj/nCkC8yZvruVyxyDGiyzdinTueYXXz0YujWp4AYQEEOOIkBTxyEeZa9XGsq9p+kpOMDpp2BMweAFQx8HUGUBRO3R3pPULYJ4sYyfPLvuuK0b11/tjreWodgP4U2+/EenSIhRxdxcqPlz2ySHMWA2Kty5ltGJSb35C3k9jGbd1k5dqjYmIaUXIlww9S2ROHeMm4pkfGPd/u04eR+CO3cyTXvJd1doQkKJkOTnsRAhJngqMDbMPzjGPz5AVoKBLFJGnyhmR0peTIA9h9H1GW0H7UxQqDTTIlTrd/lgO0dhn+ept1bUS2e1uw3UQsfMtHDq49h3tOP/DAA2tb5o9vsdB3Lx+DDb5s8T6DK4oeO3zCQ/GJjQ47BizCI7KcYUyOLlvkFRafiKsp4S9n/mvKsGV/Nq77Y2RHTArObSvWHILJGXAimWPrKl+QbeUcmg9wCQO05AKjapUcEthjO5CrYoAa7sXBro5AENuu2VR0PUYUCVCAZlsl541akSgWHwcrOuADjl/dqfDE69HgrMPJsCcWchVH2yy7/lPY4lAEhuswlGu5hSnbPV7kVeHxA6t0KhZ6+HFYI8fHSePEzg5wChFehVkDnsE5UIHGibW6WJCAVp2Asa1Zi1yywHR2ABtodQ0SbZ9Azh+f7AJZPLNL2FJg4qDDb2/TbNMTazF5L+gjH3DJKgY2/XXM2XP94qW/jonbdmwe4fJRkO02/CkU/vlDgjjM+VKFbzHUmXUz+QgPb/EgjG5dyx6cxGEOL3MNHskscsaYTWv6WGdblIQR8c0x6mgbk5gEAMBZZJP3HPVSo+tUbDbosmEI2AAeGQACjl1k29LrFICxjyhA9EgIcHEAlox1Z/EDD7iIcmbPxyH3ZL773e+uly1ki7dPE/6ejozmxSqGgKarQBUZvz3Pbf2Kx1u9szh7WWSDfw3iDAc2neXsWoxILUcxWDcPYzixI98aQSyO8Fyg7odYJ4fm9ng98wJWFRBImAPBRSZnEa4CBSghAUaka/IIV+EOMgIWkGu+yCCjewQA19bp/1ILLL7YQzxZOgpCHBWXArCNTjCA1Dy5ioEtwOpUefItPjn2RwrkyE0RWnNdZ7FLToHI3Vrxu0ai4Vsz9/xFVmREOLwUjDjlRq6uhgOMYEaOL/k5xMCWebk5dz2bKg7jy/1lf/VKaEW9HxWBs+DrVEYMDoElMMEagBIUEgzzfT4VMFv0XdMjy65Okbh/QuMPF7oQUXyQpydR/uwECoKeQqlIAcWuWJHiGsFiIadYXDvqlB5HfLgWLx2He3EpAnGIz8ucj2aGeNgUmxi+9KUvLbsIUKTW5ScetpzZRyD7ZOmFRUSac0Su2Lo2P3kRR/fhMOdWoPtx7B/2TQHKjiqnzlXJghSwoy7jpIDIqmAASVg3uDdfhQKuyqfnWkGwrbsR3k9xJGlrYwOwiqmtUDzk2CZj3UHHQFTg8M2vuMmL3dFLWN3sc7eXNs92O1Ty8PBi147U7iJH9hSQAmXHQJw4y9l1hT93qIqYfMURaQrEQSay44nPeDKXzjy77v7YPxKo5aeRSTiDggWws2SB5d5R9RY0JwL0coRw1yVujQ3k0qPjmm9rCPSFBuKtmXMuRtsf3wAErq6taNgLBDHaBcjaRRAjBuvtAHWT+BzlJT73ZHsXsHP4oweydCfyveF75rvuP2ifPN/8IEx8cqxY3M/Bb3GZty42u1tFY35y4roxiY3gaf/YP+xj/DTCKTEQoEgx6hBkN0dOEM5tg6p+vszRBUI+JaULESVpJPvvhl+//09vVEjIUjQ9N+tgYAAe4cBlh23xmOvvyK7Fw761XnLYMZDLjsJQQBW1GMtDXvJoN+DHLuC37oaXNHNsi6XHFJ8eO3YvPipIOmIpb9f0YUcnwuGTbJhtiV4CJ4zkFmMcVC3O00i62/V0mi/4iBGoAD3fdIekbYtVOL06tk6SJKCz6QsK/wuFfuIEYJ3pQCibgAOMYlIgrnUBP7or4JEnRvd0xMkX4JAglrrV1t3HM+vkdbScEehdgB/3fN11111LV7ziMG+wwwe/vS8oKEMccBFnRHa25uC7woyXLQ9sndTFU3453I/1P4TJAAcNBqYRMm23VR0AI8wcfckA2X0ku0Y6oCQAmLmFi6Fq5T/7ZPzmqz9XeovmD8C6CQHAIK/b2GBLnAEFzPyRoWsrde4xgEzFoxt9jBI//XBhQy7kbMGKjg8vad68fYniv2uugPpoJyZ+yRl8wkf8Pc56bFivcOKDLP/hYX7yY40Ph9H9uhljkn74t145ywF5huY9AAoUyJNsSQhGcn1fTaagAW2tZ2x/6DfHDznyisIccHSube+WW25ZID344IPrZ0HARwwZpDsD2udza+wpBMTYBdz706aPdHJgH7l05EPf2edrc+UlZrqwsa5rKyJ5eE77PlyBKAA5kC++dqSwpSsPR+RMPM1X9Mll09nB1mkjrk47n7/11ltvD/CMTIKn4aqo6mstsugBIf3kq8i6Refw2VYfuBLUDXYAdsi7Jtd/Y9Q9EoBEho6BWHLO/AHcetsmPfEgVkGR6+/SvYgpLsUjBtfyaCv2hq5wEM6Wwx9T/Lddwo+O0acKOCke8dYcYhJfxJdrmLbOplExbDG3Jr7J1bxvPiw+//nP785/4hOfWGSnnNHTzkvwkiPnKg6Qbanm6VeFdb11AxHpSkZgzuQjBxhsOmy31pCAJNe2UKT1Ft5Xmvlinw3xISzQ+mtUX9EqPETaacg4yEcceTb6GMamTwreum3fCrXdCo7i77M+PTmz5VoukenevMM8u3RrkPCRj7mIPInQBeYYyYcfH5f9/7MnwXQTzs6souboRKK5wC4B57lVkZEYwnuGsmsOkfTbXhGBaCC0C/g45g3d1nnfffet7jTY8BMg8SCuFzAE8N9HLyC795UmouowWzJibeWu/aMD8XnLtuXbrr0/iMV3517qxNROxr9nuvjJyG/uYO4jqiIMo+JfiexHhRH+9OJmziXvHMGuT+LJ/LHvxilsFbt35jAZ9wUBUGsSdW0+UAs8GXrtJORVne2RDtvmkG7QBRxSXAOTPKI/8pGPrLdipPncq8sBaj3/SNL5OlW3se+bOdd2hoqAvfvvv38Vic/vxsX9H0LYRDB5MvyJR66Rh3T+6tAeH2wohOIpH7kj2wgTuTno1smz8cgrLDKnDTGQC8dJeLYW2XPhNGPNJxvpMyjXdYpEyZhrG/Z8kowB6NaR4t4agCVVJ/dRzL1uLSld6H90pgMR463Ylxq2WwD3b6d0oXu+FRG5C/t/i1ZhiNMgY03hIRTx/o5Nx2HrJttbtRjbtsXUG3wdHU5eJCM4UluTE3z4pge7OpTMxFaMk6fkVvCXhvVk5vngL4G5yMnWyJXu0y/AqnAWRVupOevpANHh5QfZ5skCI9KdjT4Lk9OxiPD8RYw5NmzDOt69ePrbNqLY9SULYBUZu+69AComRaSD2dXNbIjN2bpBt0cOf+JFlh1IbghuB1DE1sVhrSJvbosruY7woacRtrykO+XMhbnrCszc4X+8SmFWi+uUrDnmNpKD6bC5EomsiAU0m4AwJ3hVDxw6ALOORJ3Ys88aEtzroAZwA8a1bR5Bnum6Ppvs8cePYgkEvno/EFs2zPUsNk8HwXy3OykcBLBNr1jJlUc48NP2HPiwcd1OR5/8PA6J7i/iwty8DvMpO2Umj4dtnFJGEjjNaA5a7x7wEujZwam1ErJWAVThZAuuygU0YjrzA1xgVzj0DUTQI9vjwppnL9vI6IeBSHRPXqd6nqdr+6ZfR5K1hkj2ECh2sfQxrgIyx551Ps2TZ8u9dRiYd81uGIdNO9fEdhI/uViJj7Hlw9LkM9GjgkmhhYCfQc05ctsArBe0JAo2YskjhU8k2QKB6QcAXrKAA/DARTjQEW1rZo+uZ5zBF5/02i7JsknWmu3Wmmu6iBcDXTIVSN3JVi+QxVE3sqFYzNf54mgXMofk9CuKCoC/1sphvqSxVY50Igxu8VNeC4BLY/IQX/QNPJTjUdXmPMl0P0fOjk1unDHMRodE6LVlAQl5ACWL8JIXkEFGoGTqELLk6jwg8qEYIjni6QQYG5I3Z90zWjEEfi9G1swjcpIongk6ebE4+KXXOtm6tHPYiqe4Ok/y6Ipz2to2UjLNb9crDDYq5DDqveLIcw7o3mIlHDgZZ2QeVY7ztgAY38qz0xAEsp0N8gHn442ucM8GcgEDYGeHoMVqTtwlDHjPdEXQVs+H4igf14qDfWt8scOXmHS29TnIta2zI94KuNyBa429rsNmiwV9MjWD9Ygxf9rIFz2jvLccyEd88vBY6eXVtfyOfN4EQM+YDE3HJ821PtcEHDGtV93kXJeUBCKALBLFMAmXHLADhRwdpBq6UOz9jboCMccPW2T4rsh0dzEGlmIBFNlZsOSaI9uWG+himDmbz/aUWcHuRxhE9pxvncwW71lYyW113bMrHvKIdi83Ma13Ch9bGPdxw5f5Jdt5GjcXQAVVIMlNsnNexVf9yKBvvqMOQmakk3HPBx3XOoFd52KQkI7W7ey1c5iPbERZc99Wze6MP7vm2JZLOKQbyBUgXwEsxkAv9+7DZ9o1x0drWyzXwqURBsnOta51ryGOfoOnuOUO3yMVX7UXtPMkW0CRXEDuG805003eurmOtiwkRHgkRx79Op6d7CkA9z0rJeAwPAJ6a64Ysi+P4qDrnv1ZlHz0HmFdbvQj23rb98x54mWd73YVdvLtzHf4pJetzmFaEU9fdOf8SfjzUR46GWZ2TI2wcLu4//ZJy1vo825ETweMF/wMchLdtfUIn0GlH9DOBpmI3II9ZYHUM1yBAlYStnXJ0dXdBjmjXHozruDoOqxXOO7lkF36wGtHCWznsNkWzSTbtUFWnOLnr5gmeWTCbCmNMTEOz4lrPvDXlz3w4J+cL5jY+D+OK2ccrnHvdQAAAABJRU5ErkJggg==;imageBorder=#CC0000;" vertex="1" parent="1">
          <mxGeometry x="283.5" y="650" width="87.08" height="80" as="geometry" />
        </mxCell>
        <mxCell id="32GEzlC8_-ixo2tJrArx-31" value="" style="shape=image;verticalLabelPosition=bottom;labelBackgroundColor=default;verticalAlign=top;aspect=fixed;imageAspect=0;image=data:image/png,iVBORw0KGgoAAAANSUhEUgAAAHgAAABzCAYAAABTo8YRAAAABHNCSVQICAgIfAhkiAAAIABJREFUeF693deSbEmxreGiabTWGhZay0Yboo0LngEzno47HqIxLmjUBVrrhdZa65Nf7PrzeMXKyurex+yE2WTOGcLFGO4ekZm1mod84AMf+O+HP/zhi9e85jUXv/rVry60Rz3qURf/+Mc/Lh7ykIes9/9tu2n9f//737Oi77rrrrPjN8nfx6c+zzfpP6v8MLiv3993/TfJe7Dj8PnPf/5zxQ42/Pvf/179v//97y/uzqgPfvCDFw996EPXZZBxxghxZewExtyEMa651ruMn3I6GebcfffdK5ge/vCHH+c+9rGPvfjLX/6yxjS6ySLf2uRbk859bII7n7One7K85/O//vWvi3/+858XD3vYw46YJ8P8fKbfsys7zZtzvF+Hn3mzmdulv/F0d5+YshVO7G2cvq9//esXH/rQhy7+B8Erah7cyzRoGuI5Q+acadwjHvGIZRQjEeiZoeY8+tGPXn2BaYzh+nIewPW7m2t94+Zr5E2900P9kZyd1gFN/5TfeDZ4rxUg3qecOT71es6+vf86W5tH/k1zmnsk+IEusDDHpoPzuTkAyokdDHP+/ve/XzzykY88kgbUaXxZmbyZxeZN+XNOMvJpgt+85hRAkZkOd8HChkmEdfWVuWSew8/YdbZkTzJOzd3tb039bArfibN5xxLtpYVz8lzcnOZl9BR6naPT8ECSgfZ778gGnKzWZLVLn1IZyOQANnmISOfuMNLm2PRv+kh2fmZbwdVYWZ68fc3EYMoyPzsKoubu7/rnfPbm08S+56nz1Li+a0v0A1nMwIzYFTBskuI9Y5HieuYzn3nxpz/9aS1NXwC3vyG3kojwsjaAI2KOBdQpH2Zfuqoc3vOJ3K58C/zmFWiN7z7s86ec3bb5nk/k69/n7lif0l/ftQTvi6bQlE7Sep7rIlhfwFmLMKA6SP30pz9dz0984hNXppYpMrlyaT1nkUiPeS7v0/lkB5D37HLffbJeM78DXTqau68rsKa/OwG9z0pD3pQ1n/cx72G8y97tyc793rqzBO/CdyEZUn/KM05/JAf2zAzH+D//+c8XT3/60y8e85jHLBIRF5meyfTu0iKdPGSYM8HYCTgFZOSQWUWYvhr3Psv/lJu/+5r63XfsJibZNBNg2jlxnLLqn+PT91N679iDTxlf3w7W7sSptebkSHtOYD3ucY9bACOYbBn9lKc8ZZH2hz/8YYkzbsyamdF7qaanwDDmo1elfdpP1qwmPWfbBK+TtL55mdv8ZLtPfDyHD9t7T4759bdujhk/he+cO3Vf93z3LiRCioy5cM6lKJD3/tYAODk5mPzGEGrMuzLt5OqyB//1r39d68vS9JH/t7/9bfULigIFYNZofVxCOhl0/PrXv7540pOedPwixwGveSqJz9/m97ly+h74AUwme6os1tBfVcjPcMr/gi497q2ZGGUzG9LZXV/j2VXftNnzHQTPCVPgvrD3c3OMcbqMtYaDwHCVkUqtU7R3H5sYD3j7cFm5yxIArXFQM9/c3/72t4soY3/84x+XDH2agECy9vznP//ie9/73iJbgJhvfSBbW3DRFYHTH/PNqUVW1YZNc3wnI33hU2WI8IIhGd3PYX405vLhuAdbPI3ZJ970vitNnnsOBw7Dy2DjgUdHWQGcSbZ51iDCRR8gtN/85jeLKETIaOM/+clP1vxnPOMZF0996lOXDUhrjzf+85//fO391ijpxjRzVQhjZOifAZm97vnHHrZHYvZF0uwP5z1AlvJDOzW3NTvOrbnuftyDE5qC6xbM/lPKisZJbITOsdbKXkAhk8OABVREmAf8ol0JrjzTIVuf8IQnLLOUWeMy8nnPe96Sq89+bk7ECB5BYHsggy4BopGt+SaNvfTSr/FjEq06eBdYxgpgNlf6J+mNk6Wf7nAve42ZVwJ4n9x4j2zPN7U7DllT2IMR1Nyc2O8BYF5zc7DPsOYAKxsACyikBTJAZaTs0pBjvTLd/vvDH/5wBYx269atBeYsl96f/OQnr3UavcjSTz9dkWuOi636NKSTx05rO81Hin6yzHev0hh3eXclj8zWeE4XX+snp2adObPvOLg9nP2YdN2ivT/SIjVHGKev90paBHMSoAwFkrkIk0U+Qjl0WSubWiMTkUMWkH/5y1+ufRW5+h7/+Mdf/OhHP1pl27j1L37xiy+e85znrLnm9W0ZvcYFh1/S2GA9OzyzjT3Z75kd5FZRIktQlM2TgIK1YO599ke0PvLY5WrLmHiHw87Bde/HQ1bkRNYDFXSK3MoYpcnN6ZzJIA6RAURlE9ieEanMArMfHozr9/673/1u7amARSadyrVT8rOe9az1LIs//vGPrzL9rne9ax2szK0yOHzRzQZ9Akupbs9lY6Syie1lZsGqbxJjjTGtuXNOxBr3XNsJt6Yyb87Ox1x7FHLi4UjwJMpi7zcJmUrn+iJ+9jU3R9w50VeVQEGa/VJZfeMb37gyWCaThwDZV8l2QHJQIseal7/85Rcve9nLjh+BzCebHGt8Y6aRqd96pR4JdD/taU9bfTLX2nS6GzcvPJAuu6sQkSFQ9JkbflWAMr2Ajovk0ltAJJ/vZBdcyZzBcILTK113EzpbCgnjGMWMirSEWxNJ5loXGEV6Byfr7ZmdgJXB9ktzZBgC3GXZ61//+gV+ZVZpRSK5nmWZMkyebH3ta1978eY3v3mRV0bT10eiiJTxiKETiHQKjLYJazXlmmz63I07uLlHBF9rs2TDoct6VzjZGgogmJFhLnzMCWNj5lU9IjauvJOreZ7jc8z42T04Q4+eXAoskinJ0BlpDNUPMMC4Iy9gkSuLCoQf/OAHa+zee+9dpVUmAwOJSBNodCqh7t///vdXgAgGZdxc4AsIgcBuBAsG4L/kJS9Z+gHph3CEm1/Gkc9OdlcpyPFcKa7SsFmfuZOAMOK3xobAn2NzPNmRRWbPYWztfG59Mne93uecGwmewndlEZmzjItozovCDisyIYLcGSGDZMsrXvGKize84Q3LkQ5W3/zmN9de+7Of/Wz5YD6S3BHzwhe+cP2ZkebdlxZImEFpP/YZl30a0pGmFNPlGZGA7mMR+wWZPns02dltTGC4+EdXhATqJNVY9pLjmd76Z/Y2lv0FSPgnfzlyaPr3vvne81mCCWpid4Kn0ggFyHQ28pVFp15ZZk+xtr0UuK973esu7rnnnkUssmVce4+sss9y1rNgUZ5l5LOf/ewjoXRbgxB7KTv0yWiHMuvodJETYQLCmiqLAKIfefTwQZnPHn2TJHLDhc7Ig1skekauq4AgV5C0X+vX5t18Psy2Ezp5yK4rCw4vZwm2aArdyTUWwTk01wCSke07nJLJSjBZb3vb2y7e+c53LsdkM2DJ8SwolFiBAXiXb6W8K7Gyz+/J5spIYBmz7mtf+9pa+6IXvWjZT593jT3Ak9nsqip4ZpO7VjDJZn6Yb51M1zzTFwZhU5B7LwvpbLxMJsN6ZLM9svTPRNkxN15fpM61xmc7+2eLkTVJtjinGIKUIk1/mZwjol6mABJo9lWZpCS/9a1vXX0ymaP6i3KZ3195kiU4EFaZNc/ejTyyvZPzi1/8YumTubKVTLKqHsaQ5d042fq8C5rA6pyABIdC8s0r+727zJ84tT7wYQSTiRNCBbpWguwYR7I5ETrv6Z59k9jsOJvBLciJ7sjoArzniOGIVqkDIGcQCUTvr3rVq1Zp1g9UwAUAAJHka0Ry+/Hg1uGjk1bWAU1pRYRSDKCyjVxrZTa72jOVW/qA5/TdgarAsoZcQcTOLn4jmm4Xmc0JI/eJk3c2TTnk011fJCcj0lprbkTtevTP+afG9Z0leEZHxpe9gAgQd4SWweYyngEB6o4IH2ne+973ruwEGkKLYmS2VlYiRvb5KOPE/JWvfOVY0m7fvn3MKmtkrEtGCxal1HqEINYc8hEr0JBamWY3+zS+sIvtAoadbOm7asHo6tRtvit8IsddH/0FkIAMtzCL9KqANbU9q5NpDvvS6/26dXcQ3GLCAF8UJSBSGeoCDOeBIjLLZI55B47msIRcByr91rRHA5wzAFdmlURyjT/3uc9dB7Avf/nLK4gEiYZ4+o0JJvoBX8Zbj2R99m7BkW1Isw7g3/rWt9a3X2SzmV3089daa7yzxTP59nlrBZA+1UZwGSuwBFkneD5997vfXUTP7wM8W08OTOiELzvIL2km+eZUASbB8dXcguMKwRY34E55zTuy20844IpIaxmkNeadU0rlK1/5yvWxBhDf+c53lqMA4AjwkCz7clbWyRLgAg5Iso9TggXBPir5jhlhPhvbk+nptCsYZGF3p2+2FGAFH70I5y97fTRDWsTyyandOj65s82ZQDPPpZ/vHcpUHT4KMMHtMzgb+UCnYGADDOBoraDy3pcybCq52pfd8aF/v5ZBox0PWU00NqNgPpfRDHRRbpxhjAKsObJHViEJ+BzhINA4hjCOAZVecsiThQBEtst8BJlrXl9Pmmsf9yOCzPz85z+/xpEAeOCwq2Cgkz0CyyVj2QlsgcY+xDppA9qYkzoZ/Iq4qgLCBJtTPBLdzWufptc7m8j98Y9/vPwyz/mCvve85z3Lzq9+9atLn8Dms4951sE0cuOGHSVdBE8yT5F9zGCDWveIrm8SXZ+5MjplHNM4xXhZ5/7ud797ZS4HEI40Y+Zxzpi1HbDIvXU4VAEb6KJaWeyrS6RYS5ZgkT2Cpcwli3yXj1FO7OxALtmIsBbo7GeDZ3YBGLh0CQTPdCFcxfD3Y84EyLIuIpDv4iP5CK5yFED8UKoFIVm+kuXLxz72sfWRsWoDw7CMh0neAvnQ6L+pXSF4J3knm1IXQjXP7cOc6wAhW9p/EKOUcU4/o6yTlTJUVCISAS795tGh/AKWHeYgAZFAQax53gFqTqdpMmUKkGVaZVcgyADECwbj9MlIthsjt+cCib18YIvyTVfBySZ2lLHs1Mgim0/Ww8Oaew9fx5L7jW98Y9n4jne8Y827//77148l7JXNfJkkk1kiRfZO8J6E1hwJjrQWVx70R0r7b1FvbkoKBkRHFgNFe4C4M15WkmGevdM8/ckT8cjwPTOSHYQ4zCYgAQtBgKHPViCzvFuLpPZKGdm+p5xWWayTfbJGkFhThUAk+2Q5OwQiP8mnW6XRkEGGtUizHtmeEc5WwWec7Uo1fb4LoENlMfelL33pCrKPfOQja9tBvrtqYJ2L/i446YuzZcw17QrBk2QCOKkPARxBQlk6hRuvPMoOex4QAOcU7J1xotvFQGuShRRZxyEHKM4DT78SK9IRAhygmVMDkCrBXuAihG1IUQrb78mSffR4Bry7NeTTwyaBwk+NTwJMqaYTMfQg2qV1KGQfGWRGLlvpo5ft8w8VBB58vvCFLxy3IVvVJz7xiYu3v/3txzXkRnJ45XvJWHJ1b9z9rlNRUIQQ6EJuz0CwxpxIRRpHkIpMzpsPZM4qz1UBd+TJBA5yylyZpYlkfd77GtI7Xf3lBhDpZ1dfQVYKvSOMHnq900OH4KuCeOaHi838Yisw29fZCWDkqgJ8NE8gsoW/AoSeSjNd7DJOFpLZ651d9DrN0+XQSL45Kp19mazPfOYzKzhLKLh0wJqkTkL3/sbu6oEAl3dOdCLsndGeGWSed8aKTM/6gcwRznIUQIDmCLKUTWN+KQJs+6Q5QHbp78sF8ltjHZKLaGvMk3FANgZQMmQH2dboA1p7pnmy3FgfzwpGPkdaz5Grn3/KLBtUDoHMFxmuPJNjjGy2O9TRRbdAYxds4afPL2DmveAFL1hBg1T+2JKyWyDwz7tnsl10rQw94BC5ns0rENf4mnVoRfPM6LK1EtE8AikBAsc6QHHYGuS6KAIKw2Uz2WQpwcoVg2QnUDRyBIJWWfcuaDhJnjlIB3iZTgfdxkS9fpc1ZRhbNUBXitkku9hCBtB81DJODh0uQcEeJdp69gtsJ2JrYCHDZaAGE0H9lre8Zc0XFJKA7xoykShIyIYnn4wLAv0+M8NHIFjr4gvbtMnTdc/mnfybrCXB4MF4yiM4wiOYUgZo7p1igYk0d5lkPSA50eEHYD0DAcDApJNc0QoYDYDmA6MIVuKtRypAOM8GZGllf0FgPR3sUlk8qwB9rKnU87EAYgfZ5pRJwESwwGODz/cyUeaxxX7L3/Zyc24dPvIJ+M4S5IcbfWyDD9/pstYvYvZ/Nug3jyz2zGTExd4a13/MYNHSdWXCoT9iLZhjM6LKZEAglhNA7ERbWaEDyOaT609czdWsU9KsAxICECSbvNNHjvGCKNsAI4sBd/vwPbXSaT1dQIjMvh0DGl8Aq9EDTCDaI2U3PfSxlX7yEUUXv3x06plcvlhHX4FRoJGh3CvnPh20fVWp2CDAVSu+wVHFgJdWGVbF2D2Jbaz7WnDZ7vguWn8kWgDAImhGjnmURQTngdTByhogtCf1UcE6Y4AlW6njkOgHJjIBCxAHD2MclzUA7HADKPoBYK01rWUL+Z2i6ZH9QBdA/GKnfqVUUCCWrfrNa1swR1UgUyCSQ5cgoNtHGt+qlbkCgO1kKcMIFjh8g5/1gkJ1QqK5MrwtqLnk+Ajp4xJ7rW/MPd8jct4n+XcQzAitOycQMjPcOCHmABd5gPHtjn5zGcF4hgmC1gOM80B0t28BGDnmmocEwJD97W9/e+kHDHnW0WONrCRPAAgEpFpHjjLHBsQYs57s9lZ9xpRm69pGfCZFpGxTIl0dEO3PMg65bJJh/KVfE1D6jFVaBb136/grENrX6ZHJ5BeciPYnTNYLAuvgwT5zjMPde5nMBu+ueInkI8GR0IDFwANKhPcueoA49xIfb8qI9kF33xXbezhijrLG4fZBUQxkUW09O5BHNh1dyGQbUvTJvMq3fpVAfxkDGC1ys9kcegSl4AEYgn1eZx+b2euuSrizDx7mCTrNoYpesr74xS+ukzDiyCtYq0rIYisdfDfHXBUJmaqFTBUcVTxVgk+y+E1vetPSX+LEETs871f97lcyeC40yPiixHtZGLmMWUIORiOGMcApe8zTLwve//73r7tTYpEPlD5fIlR20mEcSCI4QjnsjwQcPgRDH3UESIEBULbQoeSShSAAs0OQdFgzl077IV1kI4E+wedbL2v4IGM/97nPrQqCEDJkK9vJ8AsWfd75ZF5Vge4OaIJMAApgl9IOX0Qi2clZRXOG6C9BZTcZGn48s2nycorgteDQFsFFB0A81xfBHGWkqHOPOIIBBWwlDYD2Sk4A2tz3ve99C0DOIJAMQFaCvbvI7IBR+fMu0/zxOoILAnLYJjvdjbmzg2xge7ePsQchZAGSbOMqSecF65RfNnSKZXvfQJFvWwC+uWTKQiR1OEMqcgv+zh+IRixi2C+A2GMdvOFXopDLbrjSbQz2Ko2AgyN+4OXuvaSjowSNwyPBBhimUQAE4OmPfGOzXBvrVCtrjQEUiJzigBLns6CDCIc76VqHJCVKf06JVnKAIQuLdI4oyUplhyugdJgqEPW5kIM89qgCAAEU/YgUbJGDbFmOOF9M0A8s+gpg2Bjv5MtmurMlcM3XT3aVK1/18U8/bDt9w9Uz2XCLODphSKbxiC24+ShgJrFsJz+iF2fzRYdG2LwAWCOAUEACAfiUUaxsmSsSfT70ZbpgccBBsrUcBoKSpxQLjvY1MoDGUQ5a5ye1TrrkckIGkEcOgszVB0T+2EuVXgSbT27ZClwBJOPIZbNx1Qdx7CUr/e584iOSa/To4xOsAtYz+62BE3xgxTb+mKfaIdu7y9Yl8NjkEnAFN33sYre1BbFnrbMKvfHUmPHjFx0cKxMYZiEHAFSGJdCYrAAuw9oXKAfWrcOxX7nS7Mv2ZHd7DMPp8s55oNED1Iwv080zh76iWRab1z9MA7SriC9IzAGMd/L54BkQiBVoqo07fcb5wlaBpx/5mjHBpMzbWmAScXR7Dhvy6dHPbu98YwtcyWGrCiVrjSOZvea1zViv0ggGe7KxfJ2ZSqYGK/2aebWTH5MobbKJHCxSKwmMFGmilUDEWeek6AIQozjEeBl03333LedlInDJYhjQKtXk2POAy3GZLljYI+qtN6dgpNs88pFTcFbW2IgA/QJRULo80y1znVJliErS6ZhMMgSytZ7LILbxv0s/efzkC2LZWxbSb67AUlX6R3LNE1CChw8IZpNKxkc2GeO7cwN/4Uw2nXTTNUk9snt4OJbo6rlBCzlcK2II1iI/RxkRoCIzsDiMyDICAcBFoDX0RCiwkWE+EvtOmD4g08l54+S3PXDMWocg45418wSGvi6ARSwibA/W8508/lkPNMHJJ/bSH3merXUIquIIYiSSZT5CNONk6uMvAn3OhgM9fJeh5luLVNXGM5t9UaJimRsGEod9bC7pIrjSHE9suCODdZrQpJ5FMUEEi8bKD7I44J0DnWKtK7oYDhQkAJLRxoCCLHsmmZ0a9Rsn+9ah3Ffe2EAO8ukCINLMBwLnAdRpuYw1j+3mRiA55PtTGTbTnW/0ALjDozUTZLZ2kiUTUezV33ZDvkA1j7/kd5ASOHRU3eiyjn593o0LeGQb40M48KU9mX6X+S6tBFzPq+fQcgIxJgbeJLh+Ywzn1Mxe+yKjEK7JAvuuOxA4oBwq68oN8pRra1QDjilfPgOSLyDoUNY4RL87W9nAeWPWcUofOR3S2G4+e4AMPODKGmDJcGOeBQxdZay+Alc/EAUQH+gSFHyiSxMs5Hs3R4bz+/Zh/7RW5iKKHQLHGcQJnxx2kqVZyy+6tIIpPmBVUJnHlrMZXKaarMU+MDmmn9IUlAEIaN/x7LOqS+Sa6xeWMrWPT9YC0h5tnyG3THJ61K8PAMAwn36RjxjPCOM8Hb6rtp5MY8C1znjVgY1KIAKARa81ZYAs4zNfYcEOJZR876oBsmdpt9Y4jMi0bxsHvLls0ODSQc025S81EOvjmDm2M+vYyoZKeadoNocDWTCwhg9scE6gn+0171r3Y4kGUCSXtYAiiBEu4xxzUSzqAvrewx+TMVA2AcmfsjJclrRvVjqtAyxnGY4AkSwoyjpgGXOXCfQA3mEDsCoAQukgt1MmoIyzQYawH1B9DOI43a1FAJ1sMKaiGAeaMbLYINiMw0CmCkT20QMLazyb25cr5mn62ciePlXwl8wSypg5+UM2AmHlY5T/FEWHV7rphDc7SwS6yeNPck/uwYwyKQMQzTkCGmMg4aLXXEqBkWL7rn6kVHYEiazmJMDbr4Ety4FMV8AixnwZyhaZV4aZX8kGBEAEgbttw1xkmK/JCsGnH/Bkk+lOHxBlH7uA3enbfH4DPn30lDnuwHSnm8/NpbtKwV72sKEgMhcmdAgQMsyTqWTaothHHzJhWyJWpZZzh2Z+/OClrL72LzoIAoA2I4UQwjnbXzTIXgclxiFPOWIs4hheyfLNlR8fEIBczjHe13CCoFIVCWS46AIeAtpfZaz1HGEPu8yz9wHWGPuR75l8svjiYterX/3q9XlaY7MKQgaZBQM9+qy3jh42V90QyDaBUXY7SHoWOGRZK3jZX7VBHLzyER7GkC5rJYhGj3+2Qw855MGgrF2TLlvkm0OudvyYJAJKbwMmc4RzGpI4p59DLiAolQ4QQL19OFAgR9Yas3fKFs4BCoiik2NOwmQBmhN9+VAUcsCYKOY0W6zzfbAA4YBMaKso6DrRzj3WepWADeYBgI2IZ0/kVLr12Qr4GLnWspF8RLtXrZrH9sANN7rbYgQbv7LBOgc+c/rYJ0CzgyyBwF/+OJvoI8MaclyIr4LSC1fji+D1v5dN57yASGB9nIoUZVPW+iWljz7mcwIZolcUAo9hQNEYzwhkm+fQUMQzUpDJ5HTSL7Lp4iQQkWOdsQKP0/QJHHd2asCtvGUbvYIDwMoxkAOrbYLcbDEvoPnINra4841NbCSXTewX8OFhvQx1Vb3antgEkw5M7mTR10ncOUYwkkMvuXTxWT/9bIFrnMXp8c9mGeaK/bLZIpcxQBnnAOFIlMFArIQBi2HGlGTZwCjzXRwgS2OMoHHXypbs6B3Y7csAzWFkmMNBss3rJE0G0gDt2Tz2yGTV5dbhI5rAKnjY0N4nmMIBgAV2Wwh9dKlW/Pac/e70WcPmAlCg++JCZSiAjdki2OwMgLTOG/z0Z0fkaOxjE3u0ggy2+vBlPGy9a8fvog0ErMWz3Jg8hQDCJVvsKwyrJDKWY8Ajp/1bEESw+aKRXPue0ts3Q5ynC/AMJg9RwDQPYeS6mwsk8swh0zMyi+h86nOtj1aCEnCCzVyNvy79+sipeWYPXQVONlR2+ceegsl8JPFBQMEBSYLHe0TI6Oznozmqi2B0t835WBUf7GttpMNVH5vyhS3aXYFhAiEW6YsAYEcUZ0QsJe7GOOACOAPJcSEmZ5Ub4MgeayuHnK4kJoNhQOhAEWnW+AWJwwHBAXt89pCh3OkrogMWWLKWbLbIKPYZRw6/+UeWtfQLimTzr5OwubDqsMMHrQzrXLE6D812Yr4kINt8WDik9kcD2SLDkS7gVap+ZbJeYLCrhMILne7zmQ42atd+TDKI6DKXAZHP0Mo0EBDo3kcAa2S4CPaMFIaR526+O3CBkXP2JYa2JxZQ5pYhiOYs4tlgPR3e9WeXd5XEVdm2FiAawpHMpuxprQABcjIEBDka2wpk40oq8s2RtWxGTpUHZnzy6cLn2Eqw+eELB4FkrnXWC0Y2+j7BPGNk+Gen/CCTv91LrGXkoeXnWYJnZLQgEL1ztA/ofdnPaQ4DTXQijVPAFFmcsY6DZJFTFgLHuqoHwM2vypDVlwdIdRmrnEYW/YKCPgcyusiRvb4KNV+m6Aeod+Mana7W5Ceb6Qe6QKbLmMDTD3SBr7TqIxd+iCPPmK9gHQBlL/tcgqKtxxz2st/eDB/y9NmPBRlslGT28h+xWnc+W+fSbiS46DE5UDkrwhkRsZRzUpR1qDJmPXI5jegMIE+pciG2LCTDu3nIJCsCzQkYoHnokd/3AAAbDUlEQVQ3h7P0i3J6XBxUOSpX/VfxkOMED6TsaU1lDTHW0a0y0eWLjwKDbGWXLQikp1LeXGOIUmHIYqvgpQN2iNXPbvg4s3iGrf8SgurnT3UEUXbBmwz6rYVtmeuuj+2zXfmYdGXk8FKUUuKqTCMBqKJJdBFMMUONcRLwsrtIKls7+t8+fGaW4eaRC/ACg5GcUubJogeAdJjDFs90WVulMc8FVJnmMGUfk7lOqexkE+BlEpsCpu2lj3HsIlcmZwN79MlY82Up2eSRwx9BLRAQpZnnmW6BZIyOGaBlXP47bX/2s59d2PhrS2vooVvwh3G2wY4M45Mn+s9msMkWuwBetHQa1gdQ0cZZjZEc4oxIFZUM4SCSgMQYmevdvuTdfHNFvjkaEBApKMo2ztIbYMA2j9OyzRg5lV6nZnpcdLJPY7OsISd9ZPOH39mIDO98Qpa/sjAHCYKIb4JGhlqvpCJaxrOtr2YFmnf2udjr3Tq+8yG/JI+/3qx6saFPK5FIlzVxwsayt4Tk51mCOV8GFukMinTgOwkqeZUc8znlXalBmHEAkcH4Skn7I2cZBTgyPZvDQU5zBGGu9h56KpHI826ue6UccGwhlwygkB3h5tHTQS+A+4hmzBqZRBcf+FtmV3LJIRfhglrJ9uxAhvCC1RjdyFdBvKsyKoBvA7372CiI2K6CVnHM8VNr2csnNrE5YvnuOXzpPVuiTSjaKCMAuZ4zFnAcqnRGmpIo65AKMM/WiUSXksNRBDAaIFpkWGeeKFemGM4W+vXRT7fsk4lkyzCXrDLfGGCABVjBQZcxcgCkz2U9eYDvENV+R59LgAHPXBdZ/KZP1SBHpvo6lV4BQUdnAXOQ56AHS9VLKVbWHfr4cetwemYH+9itJMMBfjASTPQWyCVbpJbh8NPuNlBJKlsCUj8DmwNUCwk3piGP0rn3cUyfMggsJRbAWkCSKTrJ4xCZAKLbHMDRzRlB4L190zj5mnEA9hk24GWd+WU5uTK1SkIvMCqP/CGLP9ZYj1BrNPYh0vqqDLu988Uac8lDiFMv8I3RZS15lV3zVQcnaLrgwwdzHFStZRP5zjb95QlZZM692NwCl0+uqsqV/98kiwFkgkZQkVHZ9M4xBotqWcIhSvSJskojGYKCM5p1shGI+usTBH1Z4BcejYxKNN0cYp/MYDxZQFEpjAGLHkFivmwR9RrbjLMVEHykv8CmJ9LKkLYD9wKNfoHCzwJCYAdo5ZwN7GuO9eT70qI9vjMIAq2DCTmwZCObzbWf998Yo5vP2W9OnLlH/nL6sp3cgxnWZVFpb41n0ZwDsosiJMkkBIhIRjJcQIhS68ytRaDxTpVlGSfI985xNmjthUWnOyLJ5bSPLpXKqhEA2esdqYHCtgJDpQGm9cYLPlsI24xbr8GFbUgTGBHmLoDYyF628UMw0M//iPYucOjXBAS7zYcbHWT0i5Z/PCA4nGW0fHDXyO5aHZd97sf/Wx0TZsZm1E52AswFBEPtJRwBiN8uGUo5g8hhvHEOAsG9iDNOVl9PKkf6+vAPTEAAAYjGgMdeoCNWPxlFs/n6kUtfhyaEWIdcAcl2tpJTtrOZfHPpBLi9sVLNdhci2QIfuszZy71x24TGH7roZi+s2FKw6rOePLI0OvwDAhlchYlUuFhv/myTL+NnMxhoCTC5thYeCGQQELocGIAKDCdIxHJI2bEGAdYBjfOA9w5sWQK49tC2AkEEmAICGdaW9YAhuz0JKMgpC8mkT6sUd2hRJgP21uFwYy5fZIvAYJdGl+zmC1nA9tx303xAVHs2GWwuYcwNv7K4ykU/38iEAbyVZdg4rPnvadv2nN5hYz197mToI9vdezjH1fHnwsqCiUAkoGgw2UICyiBgiXoOB4YfAzp5koFgmWmvziGRK5uBZrzsU9qBAqj2IXrZQZZ5LjZVbgGDUGvILAgATEbks9Ea48YA7r0A9a7xCZH8qi8grRO01rATAW0fAOej9+Sak6302kZgo0LRU3lmv0uwIVhZhrVv3vyzHfhZL2NxE0bs8+4ybg1uXOwp009mcOwHWJHoriUMgB1cGE25zKkUAgXwHKeYUS7OyY4+H/e5WTlDTJlQphR0RSvQXQC37yMEmPQhk52Cp/l06sufMq891hg7VR8E0WuMTDIEkH7PsptuwIeHcYCaLwDgU1DrhxMSSwa6NKSa72KbebDzUcp3CA6QHSaNk58f8Ox52tGc+k7uwZQ3YVly2crogOIYcBnmmx1fpgPH5zog6u9jRM5zhoNI1mf/RoD5sloVAKJA4RwSAQsw9w5NfResj07B1TlA0CEEWGz1DHQy+SWQ2FEFYUdjXBVwymKB0fnBnZ2yDDmeySZTcLGtABOk+tkgawVM1UamCmTv5rAFHr5DEDgOVXDlP0yM81HTx1bYW8svzZ0fBQK7tCsZPCdYALyINqZFMgWiCEi+fRGpDNbXadQP1RQy3r7imVxOywJzkUkPo4HUvm0uosogDtIJWOULmEivlBrzLKh8jiSHXo6WMSoG4GZWNs4e5FgDRARYV8kzxkdg00N+gcE2l3djfGGbd3YKeFuQd/6TzV4yyVfNBJQvQOChz1x3/sJF4xsb2FcgwYmd5B5JPczho3a2RK8Zl40giyKaIhHM4SIRof64m5H+M7lAMy6aASsbPTs8+KVEdAIGIABjZPsYtb4gEdUAQbZnwWFNZLDBu7UAobM9zhx6gUyGud7JApzyDmi6+ccP/pXx5gGTD3xHAtnsosd8wU0GX/zXB8gRgCqKuYLdXaI4HctmhPOF3e7msI18csxFGoz5QHf4w8V4gceOmj44lJT6jwQbcM1WxrlzPIIJcgHCGFJErtJGIcKK5CLL+v6zCGU6YJQrgPWTm2glU5MFLtFPF6LI4zQA9QOhwGnfLHsByxYEsRd4+YDoAoJO9rG9O/2CkV73AsCzMmqeky0d+YMs9rGZTET2k2nnEHb7AYSMAt+dPDq6zKsCydywZhcfIrlM1a+vy7t2bQaXqZHbgoIgg5QXQAERQP7uWXZyHAHKpaM+MkWv9Ugx7qtKpOWUoECeuZoo9mV9hw8ZIKNq9tKyTr+Lwy7ZZ1yGcRqg5gKuE3BnhAKAXvaZB9ACIrnm6WMv2110sLtsRKx5gkzQ0jUTw7wqiYAsyOBZkpW97G7rMJ7vkVgiTE48R/61BEeue88JJYBgihlnvEhXamRTeyBHOKh0m1PWWwNE4HAe2Z3ABQUQvVcVyAG+ufQDyQmz7DVOVrZ1mkYSUCr7bOZHMoxX4gKXDuvTxe4qBx0C0IFSyZdh3XsmTybbptiFLDaoJC7P5PnKln7yXAKCj+HJzgI+u/kbmezLdnNLkgJF3xWCc/CYHpcPEey1RfooiDDOeWc8Qxnexyf77Sc/+clFYt8zW8dJZHJOJDPWOmM5p3z3DEjj9Lj8dYO1HFNukViGFnwA6lBVVlXezecHezX91pEHaOPG9MEG0eSzmW/53hg7rbMN+UWJv/AIfAHLfljZ/+nOVzqR5843a4zTQ2dVrQpTgtGdjIjlS0Hg+Y7/B/Dl7aFNYlugr/6EcyKFQPTMOeDKXB8pGC+SlW9R7bdPfU7WQOQQx5EOBFUACPrJB6roBzanVQoEGPNcmSQTkECqzHvPZrbZJsjtcyqA2Kpc88m6ApU+68sy5Z4d/KOfXfS3Xwpm2cseffSRaWtpK+Fnv/F2aDOHzVqyYeFiW/g3J38it4DwXpbTrV27B0eyxRS4LIrkhDIYIUAgHHCcCUyki36GGvfs+2pEkUlOxPY9MEf6CFSpBpqMVp59CRCBAAa6DCefHRwt0Nz7NqiKIaiUYbLpF1Ts40syjLHHWkHBD74LVMTTrwx7N1fmOlCxw7nENmM+XWHAL2vd6TNODhvpZTd8tH5A2UkssbqbG44RrK9guPKH75w1KRLdTYzgeSfEXOAyioEaGZzLAA4CyDij++iDYFmTMYgDdNHpGRjIJ9O4wPFXDf6jZQAlA1BsBNLtw995AQzJ1niWJbYAutmKEFUE6GSaQxfZsodMstjm7pBnvMzIN/Ot1W+7EGj6+D1Jy8fmCgbN3doqAh2aysCnsjcujMFbM5dtfHSHU9yFhSqknc1gixhcm8/6ijwKc4zhgGOMy0cCZetTn/rUAl6WyIwALIrLKONkRJTM7RBnzJcB/XMP8pU7cgUOmeQB2xi7lEfkslUfGeyzdWjms904vRFAv0Y2wK01DyFwASB9/tE70o3rQ7LLu7XAt92Yqy+/yQoPuloffnS0/+8cxIv+rmXsoXkny6WdJXgKNhkItTItx0Wj7Gjv4DRylCsfm8om4+bOrDF3GXNZpoyRr18GcgiwqkF7PqCQBzw20C0D3ekUyYjkg9JchiDYc4BW0gO0z8TG2cyGCGSTtbJMOWaLMWXZfNuKPn5YK+gEkgDpRxY2s8s8a8zVzC/4+KSFLdu0stl7JJvT+M6XNWcJjsT9vrQdGoEcpoAiDcgyzhqOAFqf3zRlEoIbR0RgAA3Y5tePUGuR6Q5Mc5RRc8gS8QCxXub6blv5Ta9+9umrLLINmOawm2x2CODI5AuyBYxmjWeXOfQjhVzrndarAvqRamtimy2hj0yRQR/bylJrrO8jnmeX+RHrHrns9o4DsuKIrdYV0DcSPBcuTw9tRkrllGLgtx9zTObcPuyLspCzotb/T5ASXSAwRJRHLgcRBcjAMMdalyBhE/LJlzWcNeaZc8B1OCLHWiDKIIQC0jrPbAwcawRS79awMX/ZQ77AoEOQ8asSWVC1D6s4ZFpTMAp4awVDGUwnoslnj6A1h36y8rtsZg//CwD2FgQzGPinnSU45xKaM90p2Uuc6G4fNW6uEka53zd9uyOaGSw4OMJJznu2xnqGF4X6XRxjOB3kAgaR5gMn0tlrDrlO3mU4mfqszc72d2QILoC2d2a/rcYV8JVFchAoEDzzy39VyMGMrWW/MTLpEBiCzboCjt0anBDMBusFo4t8OukvYMkyFhclondYu2tnCW6SxT1b1DOFM2o8V7IZzSgf+hnuN06RCwBAcLj9DniiFegCgOMFD30RylH9yrA1MojsTsSVTnMQyW73AoZ9bHLoE1wRQR9QAeYu+wRDhyV6yFCFzPUMYOPeXdawQ8WiV+DRbawKRL95voWDD32RKwjb0gosY9a4NP0u8gsAdkZ+69bky3aWYHMSNhdNQQCJcM8cNy4zOKccIsalvCLVmDsHRKxo9qUIXX38IRMw5JlnvWcZWWYjFyjekeC5Axb5SDQmk2alocc2Ufk0ry3BmDWCRSBYR7e7fmsQ4wCVToRrwPYvEvjff++jStJ6ZAlwdxUIFvwgr6wMXxjAUL8725BJP11s9qwv3HfOjgRPIgmeGduiSXIOcTrl1jDcXUllQJHWX/hziDGiu5IIYMHRt0DWW0u2MWsESj+t0VdplMm+aFEdylqAFRjZAbSyR5AgrT82KACsYYeGPPbRo1mPGHf6NPax1clYYAlg7571OWmzn15B0Hy2mkMvv1QGY7AjH3mI0+CnGasa0GGOxma+9G7+5O5sBk/Sl7TLltL2zN4T3Lo+Eun33McJUV0UAiXAEcjYypZ53gFRKeKobCCz6JUJMkCzJbALGZw3X4DoM78vXZRQh7t+u0Wk+YBGbl+O0I901UFTlmW/4Mgf434LZjebP/rRjy69yGVnme4zO70+Uegnkw362ccPgYBkY+SZJ0Pzlw30sUtf2b6Mu2z6XdodBEeWQYu1ucB7BBpPQetmUIhSjmrA04ro9ieAmePLi37P5aRo5VjRyVl9Ge5OvlJY9pNtDuDnqVkGIZdc8rTWI9afCQmu9mpjMpCN1vruXFDpQ4RgK9sFkiClV3+6+FPgwsThig2+GJHZAlLQm08fH/gLC/O8CzZNnznujdM1uTJvf9d3B8H7xMgN2ElkipcVhxa57ohnaGXTMxADzVolEBEupTYZxgocjniuTzZb50DTZ09ZA3AEA1xWAhwZAgMB+gEKeAcahMn2bCVf1ninswAjG9j6y5wyyscwFaH/zgj72xroqPLIUkHna1a/qFmjNAsAuJpHv8auCM7vNXDZzGdL9k1e4ibOLLnyT1cmeQYnuQn6v6r+52lXMN8ZC2QNKAUAMl94+OUFUUBHsGhFvnKKKHM5LeM4w1l95JMLJHMraRGjn9xIQBZiyGKLtZp19lJAkw1k+skvOJTWW4e/l0aESuNfApJvjuDqMytfBJBsZK97/vDFWsHga1u2OFCSUZbSz17vGv18aFsqs917XhMPLUy7zz7Pd2RwJF+uP3sryxLqzoDee24e2Z5dAQ8I7601BxEIQIZ5tbLZfBnhT2acWgFqHX3+0Rei/KBuvXkB1R8J9O2Wgx+ClXrNvIAiSzYKAuWULHKtKQAQLADMiRRzrOVDf00iAHwHoJrIbPb2kc78yn545W9cCAYBapyNniexR4BOPFw5Re+CKxv6d+IpnX0czJAMEL2MakzGMZBDnASQZ/NkkPWeNfM47z3gyQI0OUgBtnKsVe70K71INK6Uy8SCizy6yaEPQbJRoCmNbEKEKoNgGdvhyTr20sEnaz1/+tOfXlVI4JFPlt+6Nbrt4eayhV5+mMs/duWfd3Lhp0+LWPee9ZcUa9Kh8WU+935HBh9njYed3F3QjCYGBqa7sgMUYHGMYgCYp5wB1VgG129NnyGTz0H9CAacQ8+XvvSl4/+Ddl89yn6ZmwwHKTplIuLoYBcy6FAOkYfoAPZuDpvZ6ORMBplsRShC+u918otOd3rIFWjI9eUNYlWLSCrLYek50q3PX/rpLmvNKXkmT9Z06Z/PR4JPTeDIvniSSZk5kUp4RBWFACEjIq2fuhgte8nomZxKNzk9l2VkyCrl2f9jNsL9+E63jyGIUzbJk8n5IRs9s6UDEOD7SEKv4DBu33QvMJDHFoc0OpyKEYlk/jjIIVC/gFJZ7rnnniVPM6axnV0aeS7r9dfnPfyaY41+9jTXuxYH4WpN7UoGt7DBBBxnj4c5lkGRZ9qUNZ+b656zDOogNJ0ocIwXvcZzSBb7VwD+b9Ij10cee549GHEIkNmqhaBwGEKerAUWvbIRASqJ59uHrxtr5iFaPxkC1rgtAZlkWCdQ+CNrfc71uzX751gf0cwjh18lBH1842e+zufw2jna38O+/htLNMGuWs8EJKQ53ufcU8rnOOfKrmnYXNf8Ge3Zooz2g4O900kVif6qk1zZE8jWkIEI65Q9czyXhWTIfgGhOnhHoD6X/RZhnt3J9my9knzrsM8KLjaR28c3cwWJYCo489d7uJWl+VppnuSewpSsydPk5vhHd9ctPNV/ioCUBP7+ntKciTgAurQcc8+5gmCuT7bP1fZh/ybK/++9Z58zga4EyzLlmy59lTfECwQZjnD7qD8DQorDEWIini0IQrr15iNeFTBHFfHxSXDZ361lsww1h93t5WFTZua3OfTM/XYSZl3+J2MmSng01nz3sxl8ity5+JSyuYbR3ovSxrwv5ZcfS7wXpfoj2PzASNeUp0QqewD037DwS5US3WdSgFsPbFlGHxBlntLbt2jmkEOvtcpx/66KbQjt996Ip1M5tvf3J0TIJ5M8RAugyC1Q6dDYkK+RG8F7xkZm+O3kkmNszmvuHXuwgQYnqD1fd9/XmDdJm7LSAfjmcdL89t3mAIvjlS9AiXx3pAASqDLJvucvNpEwSTWPPLIFBcLMKYP6tsveam4nXjIqx/T3MU+pRiqdspvs9mD+6COb3flENxmCrEpQ8NZf1Qora6w/RWhz5j0OJtFnM3hOnIL2/j0oGt+N670MLoo5mIxAd0d62W9OFcFcsmSHhiCgyiYkINmJuY82/YUIWU7DZAdyhy1f+CvP2S776UMm+fZVPzDQrfzrrwSXnWyxXpC0x6cr372bnz+Rm2/5m6wdw52H7I3c1jXvLMFNSsgUPp8THvD7vNZPOc3lUP0BNecJgkjXDwjgFf3GEA1065VX+2kfW2QlGcplWVspVLZlaX8yhNQ+spGD1A5uAgHRdJPXDwn5yp/IYqd388hnV+v00U+2OfrLXO8RTMa8ph7P5lbuPbu0Hevjd9EmVyYnwAnbFXgv6nJorpt9M/OmIZxNZ+Q2N1LNJ6uIt6Z1iDVf9ho3jxwkyeZbh1Otsq0k+8zqEGaODLNGWa3skkkekmUn0Kc/fXtlXVtLmMx7NpjjOWLZxdZO05772DQxtmbq3fGfYxHbmsa6r4A7ZeQD7Yss8wmd7z3PewZlNCIA0T5WZhmPSMA0HyhTl4zUF/k5lk79dNinfUvlUJQs5ZUOBFfqCyY6K6XTZvLpMz+7JrjZMeXQV4byr6sKlD07NvmwDL5su39zbD5PzI8ET4EZeJ2SKYDgFKdkH9d/StYkNqICF8AFjbUuhGjmupoT8dmSLPutBtQ5Rpa+PkJVFtNNTxnXWHqrFEgzFsHJJ1t/V7ZEbGTPhNixuY7Ifd5y6tAm3pML/Xecolt07j4NOOXgVLrLmQYgWJmqVCmZ9kWGAVJLfoAADgHm6AOg++y31jtQ3ctG8goGQMvu9uHscpehxp2g05tP6fWejQFMl+auj35zyIrYxpu7Fhza1N/71NW4sfRdLj17O/uvC6fQU1IC66Z504HkMHJmENIQ3l7oywgAV/boMjZL566XzIDzHEHpB7j1tgV38vp4g1TyOhTRJwCSOcEOZLbpD/CCofJrfQHYfeLYOWP3I3v1NzbnpGfn5JScO/bgGR3T8F3YufcUnVtvDiACGgBInfuhPtckeQczO8yTJY1716yttDdeEBmvfHdgM8d49k1ik12GBnR2endNm+kIj/1OlzYx711fPrRuTb5sU1Z6Dc1n72f34IRNJxPSmPtebubY/jyNLRs5ItqNyahOqgDQhyR3eub7BKb+aV/jshJp1rvorXyb46IzoiqnEUnmxKCAy65pk7kRXKDsdvYeFu71TT09z77w1LcHwJTn2XVHBu+E3PROUdcEN2U7OFMeAwOHjPZgfQiP0GQFQmsirADLqXQgsv0Uafb6WYIRUDltrXtBYCz7Iz+bzQt4z2VjgaRvJ2D6PjE7h1s68n3KOLUurPLnSPD999+/IlsDgg/1AP9/aSn738rIqcCY7w9E5lzX88zKCJhAzef0TdDm+CS7/oD1XuA9UFt3O25al12Ciq0d6pw9fPYXoHf7WczE++67b5WpTpY3Cf//Mb4HyP5+XVRnW/MfbGA8EN/Ivkn/DKBTMh9MAJxarw+J7CCLvs4QSHem+T/aEt3eu66+NQAAAABJRU5ErkJggg==;imageBorder=#00CC00;" vertex="1" parent="1">
          <mxGeometry x="399" y="650" width="86.5" height="82.89" as="geometry" />
        </mxCell>
        <mxCell id="32GEzlC8_-ixo2tJrArx-32" value="" style="shape=image;verticalLabelPosition=bottom;labelBackgroundColor=default;verticalAlign=top;imageAspect=0;image=data:image/png,iVBORw0KGgoAAAANSUhEUgAAAHYAAABzCAYAAABNavaiAAAABHNCSVQICAgIfAhkiAAAIABJREFUeF7F3eeOZcW5xvFNd5OjTTAGA02wyTnnjOALvgRuZe7IQkKILITIYEwGkzxkTMZkMPisX838mzrIAp1Pp6TltVbVG583VO29m/EuGxsb/1nGqmv1fxy77LLLL3L8+OOPv7i+trb2i+u/xv9r+n9R+LLI7//P8Wv+/5ptxW2J4woW33///eqggw5abVx33XWr448/fvX111+vLAIyZ9fX1wfh/vvvv/rkk09W3l3ffvvtau+991599dVXQ+8+++yz+u6771bffPPNao899hj8nhnt/pvf/Gb1xRdfrHbbbbfB+8MPPwwj6PJOPt277777eKdzr732GvIzGO2///3vIZtcMujEg44N5P/rX/8a654//fTTMZ8tbOPnnnvuOebI3nXXXYdt2fO73/1u9dFHHw0/yKUvPvRku3/++eeD1xo78Od7uHg36IMfzPCwDQ8s3b2Hu3Wy+Oo+X+jpZxP/u/B/+eWXQ88jjzyyev7551cbJ5100uqiiy4aBsyE3gME42effTZAItwz4CkJZAZQKDCMMkoQ4ANcANHRE01OcvCAAw4Ya4BlJB0c5ixZjHc3z7Z333139dvf/nYEgI4Sgw52okFPBnmAZrvAlDzoCqy53//+96v33ntvrLMtGyQJuXhLFnKTQzddrrDgIzxUkIHPHJ0F0nP+mSuR4RCGc3DNeQ97PvKt2L311lurv/71r6sNGUwZJxjlGVHCKEtJa+4cyijZyzEGzvLwJbNKZVD8Zeq+++47ghZ4AsBBsgJhrtKcL3hscZGLznM+9FySlXgACUi2s+XNN98cCVgV0q/KYAE8svGXLGyuCgGebDigJZ+N7DLolIR00RE+0ZYUaPHSi4cMNI0SDA5h4E5meG0wmMAC5TlAZ+AJVlVlf5VmPmHWAolzDOdsjuIxxyC03g0VQzbDyAOudxWONzA9c9Ql+w8//PCtdl1rqx3yxzM68g2ACAQbqyp2AB6dObT0Vv3sLRCwYQvZjblawoItnvlpXTDJceHN94KXbSVfRZW8+d2zeXeDnfBil3mXLrPo3rFvEEoxZYZ3Dhf0+Z1QxlclgQ9wQgXaeuAlT8JkDD3ojYAwl1zz9JcgngtqCWSN/ey27k5n4FkTXGv5ZR2fYKHbb7/9Rkv37hlAgEo3e8g1YKBKDXL4qbWT7ZmMADeHDz2/rbkEwru1MJ+fzbnwC9LsP9l1q/BJt3m22svH2YQDZTDgCJPVBqMw1F5rCQBxBSqDyTGHxsW4DLFWm6qiVQZ9gJcM7kCiU/Ukm7Hku1sjE61RlnoGToH1jqZq4g+b2GHbmNcFk921VOt0B7C1EoftbCO35Kl6yM4+62it1Xpr5eznS7gLTMnALu8F3PucuAW8DugdBnU6dsIKzwZwKcrxGSBKEKWAIO9oBZtBGVr1ZCRHPAOg4BT0IXAZAur65z//Od6BW8XiZWSJZj7HJAX9eEuo1ko4/Nb4o7WyB/DoyAxo/jsJl3z2e0Ghz0VOQGe/uZKKDVVcvlZtJUu2fPDBByMIVTC6iopNRnc66TPc4dtzNDM9P9iBlr4NDxwo8wic91hrjEEMUIH1jk525yRAOFLAPecQ2QBwZ0B7qlMwevM5TN8hhxwy9Hz88ccjKNbpA5w26ZDF0aOPPnrICnh3gPMJD1p2CCJ51uYEEUzvqrZqc8pmozX20UlurRW9Z/dO8eSyhxz+1A7pxptu1QsH880VnILlXizQ1EUlQIGmv6Q17xJUY6sQTVgwwVgGAsJgiHdOB35tiXHmOF7lCKTBgCpf1XGWHAB4J5/BAuQd3zvvvLMVRPokCrk+KnjnCD6f0fAJwIcffjhsCOwqsr1y/hxrjj9skAzetX7Ax8fOfK6i3QWKPno6CAGXLPz5A0Pv/EdPLjr6whgu5LjXHcjxTDYsYDq3V1jRQTbcFRQdLrx0hCOcXBsUElRmuiOkoEoog8w3526+6qCc0jKLk1VjWeqdUXhLAHTkuPc52XtV4TNtcj0b1tgJiAMPPHA4YgCHfHRk0OMzqQFowSzAdZ8CzV9yVbkk5AdwzbHN3XxVSD7aioAOgWRXyYzPOx6+869CIZvdfdQrYdhBtjW86IsFf9hrSA40dJlHG27oF907TpUWOWMSgzsmgnJMlpmvagU1nqFtGiUD/lo351zeyTTsO+bICsSSBp127J0jfV5Gix9gKlri0AMEayqRfhXr2QDcoYceOvZTtHT6RgxPCViy8BHg7lUpuc2ZZ1tgsqUghiPddTJ35wj86eiZbglhkFHX9C4OFUFBdod5lcpPQ0zQukZg/Y9FF2NrFVUnhzhPYMCjySn85mWueQAmp2yimAPWGU9mwarlZRC5OcEBdmm5JQhnAQWYzc3NESjyVA9agcZPl6qUDLoJvWhULF4+obFPdlLGz478wEeWOT7hTbZOQReZ/BRIdgRyxVFRkOUK1/CDF71VZglqrsSCQwEmV0KTY91l0N072o2CRRAmlxHwHLJmjExYAPKOz3AXNMozmqPtKwJHJrAEpERKByPJ5CDHORY9efi00zJUBQJBW9NeAUxHe5CMp4MM+7Zq0BWqKICqVHLNG2it56t3PqLpbg4v+W077BBsvrM/wOHBVzaWKD2zzTMZ9PHRPftKfnx0hjk786s2jJd9xSSaEdgAK5AECwxjCQ5cz2g4V1CqLO8U4Av0AlSbYVT7ETkyrGAwjF607tYY34k33e7mDzvssHE5PftuFz3d1gVe9dDh1Eym709VPTog+sZKEAAsIEa2Bxp70btKOHL5SXZ7cR+lJFl7KZlwgAEfS6aKiL8OZAabYd0XHQWZDGv0F0B62VUX8e4ysmu8LGN8QVGWYGoUKNmHxrBeRXiPr/2ivQ6NZy0uJ5NHRpVAbonAQEDgNeeOlxxVgU/lehYQOlUeMBv42YvPM7CPOeaY1csvvzz2OBeg23cBKvCADkAg1nlKuNokWvZUodatuUs0Nlpz0d+pmzxzEnUOFByslcju8aIV5HCReOitG9lmnYwKzvPO9R1OIWQYwjlrBcR8zslew7shOADuo0cOHXzwwWMdkAxmlOG5BGG8w9ERRxwx1sjusyf5QGxvxtOp+O233x4Zeuyxxw4eMtmNVjKRUXVp1eTzyXw+tlXkH0DYmJ/ugBVMiWS8//77Qw99dTo2AbWPN9YlH/l4JVlnjZKWLri4089PMsMmHyRvgUPHPrIqLvz8EQN0npsbhyeGF2kOeQ4s6zmMmbOMdWccIyjiWCAFMhkSpmolB23zHNKSBIrBZTiZEgOdOSAJChCrWjQAPe644wYdGbV9lckP735rRmO/lURs15oFnF2uPlLxR4Lmi+qQIOS0jfAHkOHAbvwFRmvmP9ussROGdR7JR4YR5hIGn2FdPBSLM0AHPYkEP3iUKN6Lk7k5YTY4xhDGulSAO2OsYaw60RGQYQyxBqyMR88JjpmXvWjIMqyTD6zaDTDJ1VatmecUW9wLGB1o0QHCifa0004b788888zqrrvuWj366KMjGGxAI+BsAJQv+5977rlhlxNtFTGfFQKKrQIrwdjOB35LTAB6lxwNtgkQW3UIsqvIcEULQ0Ni8A9frV3yFDzJhcZ7lUp/8Shm7eF0FUPyR8UiSkCKq75Km/NoKMPjPSWcoVS2cTxZlAKg4AMUD5meycDTV3Ptj+SpZHJ89hQEMmrVfc1Y8jgMnX322SMhXnnlldEmVTgZngFHliRBM3+bVaUAg3zvAgQk9gsQ+/7whz8M3+FCBj8LELtLXjIklqDjCw92GOSS0dep7CRXJdKX/D5jw5VMcfFcwcGQTw3rxc7chkXK3AlVOT1jrp8XfEyerRl4yuAUMcAcQBniYpxWSL4BjLLVHT3nVRg5ZBx11FFb3xuj12LJ1N6sa1lPPvnkkHnCCSeszj333NXDDz88bGYjcKrAPmfSpXX6/HvKKacMMCUZ/dGUVN61bdVTAgqIQJCPt2TUFXQJQe9HDXT0GDpNyVxQ0MIencQIU77Bwt1VjNCGJ9z5JrnNo2uOvtGKDUI9u2I25wJcdAQwgmMZU6DRaIvmZWBZHR0D0JLPoHRxkNOcB9QZZ5wxMh4ffeYABMjXX399AEePyhYk7ZWT7MSryn2nDOg//elPQ87f/va3UbEBTP4ll1wy+PqoQVaVIxG3b98+EpJ+84J35JFHjoRrT8NPDx3o6mSe+S/5JCM6fvOnrlUVC9zcmj1X6bXXMCs2ycFbQoxA7hwbgUfZPICOmWCM6IyygoJGGYyWY9Y4i69KZyiQ8KMHjLUOTIKF5tJLLx0HnldffXXr0FIggcoOdFqYjzHJpQuAgDzzzDNHxrPl1FNPHUlAl+rWalUi/SpTEqhsdkkctOYERuJIBnIcvlx46VK5+Fz8pg+G5iUpv7zrLj4KmaeTvdbJZ6vAoCuB6aolw5HctjQ+oDMKPN4KhF11zfWzzjprmww0CLKQMgxlRKVe9RHIIevmCiqF1uxNBsM4AkTBYJygcxIvB7U7uk8++eTVxRdfPMBQceSqVBWtmoAj4HT1kcBB5Y9//OMAz/6KVoDpNV9noFMiGIJHX6CUZPjY570DmirlC7/Itp2U7JIkHPB4Fiw+oTXghh8tmYagu/gXX4XCbgGqMNiPXyzYwEYyYZcP7uS4P/3006u///3vq/Xls+AILEYXQQR4Ngp2BgSCdUakgDMUcowDnh1CZLggyH60+NGQyzkVge7CCy8cwfFxBo2A9nmVnmeffXZ8y0QvfkGkw6kVrWc01mV4X0ZIBu3X8KeZwJcM9ANWF3HPfgnYXyk6MAkifVUNfzqYkWlNW5cA1tpqws472YIFFxUOYwlSF2STOUFTBJJCIvAbboLMTs/s0PEM9Pjwm3cX2PHnpyllYALb88wBjFGUVJmcTQkgKWU0JYLXZzdG9usMxRIGAPgB234pqOedd97qwQcfHI75qhA9WS+99NLW6fKFF14YlQscJ2G2o2Gbqie70yt+AQo8yYPW3UFLW8fHBv56Z5ePTZLGN1YCZs0pmr4SX9Lw0b7N94IGLwPA5l11AXrZpPrqWFUcGyVUf5xHH9xdJV2JMhQsA5aSpu0O9ujdyd0AIkVVakxzD2cgZQz3bDDe1fNc4VU54IwMoEcFCYKgqCSOO8RU5bKxA84MkLYKmO3LgUY2A11yqR4y2QWcf/zjHyNgvpQIOKCSCTg0ZLBlc/l1yGdbQRJAnYKfZNEtEbyTYwBR15BAtgQ+2HfJKmBw5ANbYWKe7CrXmlO2BMTbdhZ932DBRQIXh4pLV2CXi3xy6bReYM1tAIlDwECIgBJ3BhMsQ8sgQmRRLaODE2G1IXeKyXCVBOSXgVowYP785z8PgB977LFRTYCjg3xDwAHD0aoDGObRCqx3gSZTBeIHSrIEUyD4QKd38mwFfetEnuAXPLR8kyjADkzB8EyXhIINfRLAGUESkGHUMvODT9bY6oDGDrLYBGuJKmnEgq/ozfMPbskuBubCuS4IeziPIxZlJgpobZDzmAmv5QoSg8tCSUGRdWvkMJBxOVhLMac1SxaZp1ucfvrpo2ro1BHsf0899dTQa48lW3YLFLmGAJAF2BtuuGHYwkbfHVujw518NgiC9spGfIIIVPK0d3zWJJYh2e3deNmEXhIIcKAKhnnVLzlee+21kaB4BYVN6OmDEcz47B0e1iRDc/SSGb6CyEZ8dMIHJgLo3br73Dn50DW+oJirqtZgDiPBDHYHBHqGp0yrYayAppRBKZ8zDg2Qa6FXXHHFMFgrdPnPTbRp+52/yhfkhx56aAADKLr8FOdOFhCBwRlJoEIlAFkOVIAXrCrUXHazq6CZs7eSKZlr3QJGBxAlCx57r0SUVOiqmjfeeGMkCR/IYC/MAM9HOuDGdpWIrwNS3QkfnezyzK/i03YgAcyR5xInslzoWx8/tBdYhAlCaAhaFSxwDEWXAHeAqELOuGuPDAEsA4FCRw72Gc/3vJwTCFXZqRUAJ5544giUdYcUH1WASqZhnh1OgeTSZ06LA7qhasmmmx2A5oNEkVwC7iQugVQc281LFpdgAVn1qjB+ohdQuvoDgPZRbZt+HaAkppc+o45GLx8lKXkwV7l0FSQ2G4IVf+3WXHGjx7ouAIMSYKsVW6SsUgYCJgOAAkwpgQwBHkWC6V0wVY05zxnTGoX46eCEg4wKUsFotE1gAZNu+5DqM+8COpCqKvIAat6FllzVbu2JJ55YbV/apFbvq8MXX3xxzLNXoATT/tgpW9IAXIDZxV+VxB77qsCGEQzYyh7BKFH4TaaPj4Au0QuYpMTL3irYniqBJb9kQttZAA2byY+eTnPeyYFpcRIra2I4vlL0IpsAXFYh4hglDYBrQ+YBQSjhBMt0Tgls+wrHOFuVm3eZ74dp2e9gI8AGGwCgCgVKAACtzfl8xnHBAzidLvTs4jRQVarEY6eACrokcJFZ5XV2IJNvfRYVxNqwNYCTBXzdQ9LVyeyT9ElYtkgCvHBlF3/wW+dHeMOFPPMCixY/fTA04CuAAitGZPGBrTA0b86Fp0reGdwdP/RW5gXKIqAEhQLvlBNsDrCMcgmodw7NTuIDFiMEiuECYJ5xVS/QAAIs8gEAfHrQkKE1t3+qFgGvWtBog+5A5zB7AMoflVjSaJVo6HTXDgHLJmD7mMRW9qku3UKymNdiybItSEg2wqXuw09yOwzSWRD4wn+JJaFgWXJY612Q2F/nFINaN1niRIc7eWSU4HgL7viuuLbJEBniIoQBngmpLQCVIQRyjFKZ19/vkrG5HLYoERBgMxrI6MnBT6aDkqQwX6UDVTDYZC8GllMyAAVC8vhopJ2SSRb9OovqUW3AkwR+AOA0mQBio8ThPP/4Qgb7/OwnIPjoMMyTyzbPkocsPukEfZFizXlBMjl9Sx762kLc2S8gMN1ZUSOZ2NrWILHgyQ921nnIgglf4ZpPntkDq4qwvXfr8ERZmRLwiMy3LxBoWAcOQ4Hgat8BGECjkQCGIDJOoFSb0+P2ZQ906m0vRcdxDlbtgkaPoGivnNG2VStaa4JZR+j7YGBx1vemeAAlSIKA3pwzAfsErkCoRHLx8x3QEkyykiEJ6eSve90Mj6pOJh/YZB4PPfDlK5+sq3RzcICb7UniS3Z08BJ4drtLbHTsIldSigOs0bhbM8YGmnOeOchYQmUmBZQzEhguyhnrmdOcr8UxzqUaJAIZFJKBDw9gGUiHpGCMZNAS+/yIjh1kcQitC7hkAocMa4bEkeGqyglbAAHEH2Bz3LmAXPawGSh+CVIh1iWcnwD5ak5SkMkOwSdXgkks9Hw3+Gnu/PPPHzQFNXvJpbN5dtNdG5Wk/EYPJ0lDJzvQ8YHf1gog2jog/My7auHrl1122TbgUUJgGcBgz90rccICWRZpXwxmvD3IBWzVFW1BRQcYhtZGyeWoiqh1t5eikQQCiYdMCQNkgTHHeSAIGD6ZjD65ZPvI4y7YeOoi9m0+dthROXgBZe/FR49gkUu/AEhQAedfunQiwHqHSVsYu+irGAqCO7slhaC70s0/9vLBILf34iAGfKlC2eLZT5PjBxLthPKZKGFAYzBFaAxzDHV1UMJLsdYCeNlOsTlGSQAg0eUEvPxUOIDyJQSg0FU1QPHegYAjAm5dBRZYQQA4QGrbngWKg+zFY05VAs3J2kcf8gRZFRi1V/60Hfl8zAdVHtCSjD/0CZS2zS/8cAEoLPhpv0WPl926kaQn00HRVcJI4BKdXZLfOz/4ryD445lMFQ4f61W49ZKJPWsxlEGM9uwCUo5W4r0DBC/AVMrmUnEqlYMEJ9czhYKrtQUSParBT20qxjOgyeEIMHy80eLIZI85wAhMGS7Q5gChDQPVxyFzAmXYJux/Ko69EkeXolOCAjOg0NPHBjr62FSCA5ed55xzzji991uwgNNNXv6z3ZYBFwGRBN7Jt3VIHpd5NHwx+Crx6RdENhQfthviwWd4jkAu7yX1WO+Ui4jxGVZwOSJIBRGNvQW9Oc5w1B4pWwVeoAKb0ZwCnNOtlu2z4D333DOM4qS76hVsf7cUEGQJjn1PJTNckrAZoPRbFwQ2WBMswZMEVTMbnUyvWL7CtK7a+UWf/Vfl8YkcOgRE4ANMovCXDx28VB8bBNjPgGzhP7/pEBD8KtXHJclfoQiU4U7v3XffPX6yZC9dgioOsOafYEo+MvnIN5iJEd/MJVuCGesLkNs4zUmTDAM2IQUUCBShMUcoEGpF9iOOqjZOoRNQADNctfqz0P5WSNYCScYDwwnZszkOMFhb994pU9VxUAvzLOgC4O6ii4y+BNCG6bWG3nrAqBLgkecUzTey5i8KqjSgWZOsbIWVoAPUBTN4wY3d8JEE5qyhFyCJyQ6JDRvybAuGxKVHokha9FWgefIkCTx0K3rbOuuscEOneMYvWQg4aWDmrItgAzAFHKPn1hkHMM4EsMrpIIHO+q233joCrx3+5S9/GcETAEbbY/sW67777hv7oATAR37ZaP+SYLVQNtMLpCoz4NnYiRi/JFQx/dUF32wLgAS8PU1lsB2wdNAFyOToIuEATIEvCdkrASUTOYIsqcgix9eUbPTHBHjgLMh8UKEKQwH0+dzea1upC6Cn270O6tlVAikm78VtDYCYGAuEqrM9xVyVmwLCgMhYwW5vSRZezxzMqQsuuGAoJZ9znJa92hFQ8KhcumQcJ1U/h/0VhaoRAO90c6QW51kQ0LBHR5m3AsERCLzo0AiySwBqa+70s8+zSgY+oIHvnQx+8Jlec4Lpj+Ykt0TtRwB4SSAJWkWxpWSDEQwkOVwktUNX5weYkGmY4zf70FbR3tlqjj5jxMmkQBU8AiJijAEkTrgIpJCD5gHFMaDKQo51uEFnnaPanDYBVJe9iqGcqmWhIVdADXeg+vG8faY/lVFBdAGWDmDRJ9PJZSe7+GbLcFhRtbVkd22YrSq0Nm0ej0SXfO7Ap18i2Ao66OCBgURkO53tk1qvbgJDtrHFXuovMP2JLLzZb8vRKciSLAKrg9HNlqrUHf5iw6aKsUAW8IL7v/6uGFEZwmBCXFUtowltpFQ1AF8rYiwj0cpORl9++eVb1QLclDO+LBdggGqNgkumCm0fEkBB5qw90ld4ZNc52IgGn+AKhsSgS1UCVhDpUX3mHdjwoQMUmw13SWpIQjYKbD5JJN1CIPljze+5giaBVDk/gG2tU75At/WZFyi2eTYvqBKCvrY0PjXoU4jZ6Z0uPohLuLqvEVLWCyJlGBlVdZUNCeWMIBYYBmu5MrfDjgC0pwmCbKTLvaxTtYygv+Tx5yWyH9iSRILRy3mO+AzMPh+FVKJgte9zkv0SQyDJEGjrWr5Wx1Yg8Emi4EdHT58RPXdIYZtutH3nSbpOoL1KIPIkkfMDvAaoOwMu0NbpMlQvWXDSxdh///33D9t0DXrZDjvdxzteuM0FxX8YWsuXcKLf3PrVV1+9jWEmgOfCBEwCgQKsQbwIREeIALWXMhpPraiW4Xvg9oWcvvfee4dMAcRPTtkpKfqYQh+HXWQDnV4Vxw7geHcAaqgW8oBpTbJIQK2TLyrHXbBdHWDYC0zB1Brx8V/10M0HgZUAaLRKSaRy6UEjMLoW38JMgpIjyTqH0C9hJbvkwCMpBF2b17Xs1+TCp60yH+HigrU7XbD1LDaSd5xrlkPNNs4g5CBBACCYQxyu1HvnIGcYgcdAj5YDZGgxt9122wBesDIGLUPIMtwlFh2MdPSXiZx1B6QA0EkuPYIMWNkPEIFz9WEfn0rTWfzQjlZ10CMYACSLPqdS8gHCZt/3somNqkdL9TmVD52QyWRvfkioOgw82MhucuAKaMkLG+sSr8/6bHPhsTWw2zdltjM03vlYdZJXUN3x5guMHdYk/fhMQ1lVRoBnlctxClUIJwwGM7IDS18myE68ABSc22+/fRhWZSXX/oamb3bIc9FDh4QRMJXJYO/Wtf2A5gx51gEqU4EHyA5jbGR/gDtxs9V82w9/SmT2k8teQHZW6COdPVXQyZMY2myJTQ+M2M0P8+z2bE1yw6vC4GfJqprxCmRxcCcjuWTxnc+Gd4lFPrkFvwTh0wgswaJfRZhjBOFaIWZCASjb0MmODAeYRAAGOpntMMEA+6wgCg5AVc38OY1Mv22ic+L1WY882csGDtVC8QOiztCfmrqjlzDal+CxG1icdijxzDbr5JPLBz6SD5Qqn60CKthAVgXWPOsCTtMwkKQwkExs0t7pEUhBgZUAuMhEgw/e/LDP2pIMPrBHArMJDR8KsLsBU7jAIrr86vwiluOf3ENEqNHmTwBCQspCNIwjUCA5zxDZZ38kixMyXmYDgvNaGTlAJoPz+FwCAjQy+83VxwEgdSgjSzJICnrQsQ0onks2c3QDhC104vVsv+SbIJCNjg98ZzNbtF30gs5/CWrdnMHukrtTNttVIF89s6HPxuTW/dzJkhieJROdntkDB37YFuEdvSAZbJUUZHpG0/bmzq7e0S+JteM3PEwiDwwXAxlsDoOMxoyeg7NCwFEmK9F6RiMJgAwwNIwBFt6qQUujmyP0qiiJYk6ncCgRPEmkI5ADALZJGqCTXxuqStjQAcWc9imYDj6AZ1eBBzB5bOqjERs8AzxQdQLVCFw4CK5RRZqDW3ulROYr3/jlDh+J02GQbns0Xz37KRGNxHLxl1z+sZFM9qCHr8EP6+nCtyMdlkVAYmRYhqsiwSDcutFGzlDBo0QVEQZgBhvm0XIGb21agGQu0AQNwAxiKIcEQDKhKdE4zCE8dKre5gSAnZwEvIOHw413LdMzYJyO+UWPBMUjKQSdHX3MUFECw6c+jklYdNolH+mGiYSzhbDf1dmgwx0c6IYB2+BBDuzgxT/zAgMjSaM908dOtPB3oY3Hc/HyzBZrhueh10RV6BkDUIBcJQJE0AXLpeoo1tbKHgbOwhkLLA73EUVWuczXpgQSDaAllTvHOUM28MgVVENQBZ1t6PucCjzBKxgnR/oZAAAgAElEQVTslwxaHl4+sknA8Klmn4VryRKMLeQKELlVAT5r7IANWWy03g8h7KYvoB22rHsnS0Kwg27JCUMncfokloTXhuGMj930uebAeoZdW0jVLQnY2dj6LwEAwziBJYyR9XNrBVu2V9GEUICPs5Qy3DMZaK1zRHUIoDmyJMbjjz8+7BDofvbjUF+Ay2CtyUGsj0wAI1sg2CGYZNLNSe2RTheQ3DvcqDQHKSDwCagBZK02zl6JWiDaY7VqiZA/bFFdko9v9li0EqPPphKAbHPsZSN72elvnwVx+S5hJFrdDjbk9k42/+CMn+2CmCzrEsjwbPg/3RkgFwgMnDWPuNaFmHDzmMuqPl4AicMSgnMubbL/uhy/VubkK3sFCnDkCaYhECoDH2A3l58BBZ2T9EkaQecYIMz33bBWj8chCR0adz8Xbl++XEBLL3AlhWoRKEMi8pN/gsMHQ0DoFRTyySZDAgDZGlnat32ywPFd0NBadxZw8uerYAi2ec+w7FQOe3rYC1c+iIvBpoJZxZbMcLemw/HFWBOQOViMNWoplAOMEs/otQ08hFEsEYBAYXsXwzjGcAETRG0Lj3Yq84Gt/QATsAwkt6qw13l3ofVZlC1sVPW6i4tO+gxJISHQcJzd7BMUVZLz7CIDH37B4Rtb3SVeW48vMdhWW9XO+cp3d7rY3EcxsmHUu1bcyb8zgWDmC7kFpg6EHybpST472Ec2zKtmNrgUgrH1Hz4LGqfKOgyu9g4ZQ6j3lACOAuAxkrEMYqjWig5N/9AHfkD2Jb2PL8kXRPqBVeW3fwEGuILoCwTVGgAcEQS6VAF9JZjAsIWOOgMAXd5Vh+pTkTJdZbG/iuSzeb6wgS5tly5rAPaOxlo/PPDBRzFzqlfnQC/BKoo6DNskrXX+k+W9A9YI0jIHY7iEkaB6xs9nNvMXjbGGwaJJAxAElYWMb38VfMYJoqB7Z7RnznBEoMngGEA40q8++IBIp6rF4+MOY7RpvGRqxwXLGvqqs22C4wUHKPjpQmeNzfQJMjo2CCjQ7H/u2jHaTsfWJUddA3/6BFNVSzB6+CGohnd0qhEdPnMlBtB1jLYfNrLLOtwLLJthwgY+iwNbzLvQikfxoV8nrLNEN4qyViwYLoIDkVDPwGawd1kyDw7h6aRMEcH2L47KJu/0uAsARxll3/GRBLBABZp/tqDEkXAyE6A+VkgcVVWWsgetLiBA7XOSrVZnnWxgaG2+T7bPl7gAN7RXnYQ/aPktqYC1fdnz2KydOtDV5tFXue7ofRlje0HfVlRXgh1egWAfXPHAViDhA78KiF1wqx3Due2wAoQvm/GzYavjmkRkghAEBscSBBh0lXzzHbrwlfUymbGykEN4BUQQAO6kx2HzeAQafadiR39JYV1FSQC2ZDjd6Omknw7VTyanBbh2lT5As1+lauOAFDAdgmxgw4A9eAObbLiUiIAnX3AFGY9AqDB20mdO0CSkAKpcdtJvjt0Vkzm6+SYB6YMf+gIqydCxaa50djiVdwCMhzxjsXXHRxDAE1Z2A8koiBwsSwAjcBQJGh78nACW4HECPQDQtx949xHGN0B+W/WB3FeILkMFoZ3t0g04QGcdAXh9BKJ/czkw6RD02w/p7ntqVaTq+cJOFxq05JoHIJ2qE9C6ADz4Uttsu2CfNfZo8ejJN08nXCSaeXeV5FlwJAl9dR2yXdbrFGwXTHaGP9sMyVKCWRfIug/+4rSmCjG7PDOizJAFrZsjlJB6PEVVOkcddgomJ8gqgwCGRmZKGsEQVHdzqqoWVhWpLu2ZPnLxs7O9XHDnz6V00Qk8dqsg9wBgEwDt/6q8+X52o0fVBrAkA6J3ydkXGMnOf9sJrCS2ZGMjewVaB5LkdS8+CFqFE958drV1kFEc2Nk5pwQkg59oyCwu6Iy1jLaAwDDnIhAjI1yMq90RwCiB4YQL0GiAgN+61sIIl19JGE4Xh+11eBhYEPqrBO94qmx2oaNX5Wh9Esk+LRiCXVeo2lUwef7fGenU7qOj398w80/14tVNBByfQNEh6E6wkoI9ZPvYFdgq2jpfybSGrg7h58Sqjg+KQ2LAhawCXSDhAzv6tdt4ql72W6sTwlsXKyErpDUMCDlmqEDP5j0zxJDpgmqNcgYRik47qkLxGH17xHiZLCBorGtPgq8NchKAbHCpUHINulwcZbAAcKKqEBSygSex2MLGQGIj+f0RGhr+AIEPbHMJjsBIphKcjRJJ4go0H9lCHz/QkUcXWRWBw53koFs7F2Q28Ffg6aCzPVNiGwUOTvzCA3N28QkPW9hFn8Tgi/XwqaORt9WKYx5allGWyQwMBHQImluydU4ynGJ8jGzfFTzBzCHzhvYEBNkuM2vjeAGakTIfD0cElNN0kOkZcBIB6FVjINWN0Kq8vjniSz8zAlZg+wyMhz2A9Scq7Ccb4LYOun3mloT2aLIEXTdAI/Hs94LCDvYLCv/x1OHIqTPyA358zj82iAmc2OKCc+vW+FVCh7t5Y9G5I2sp2TkxFFaRQMYswxhKGAMNRgKzI3ptAL8P6/3JC34OAo8B6PHK4L5oEDgAy0aJw0Bg+GsM4AFKEPEJpMwl30m372zjraKART55gqAzSCT296cwaCRY/8QtANFWrfzsBwA0fOxE6lAGE34JLJsljI5gXjKhZ0Mt0zwdJSdsJIR1FxmCJ+HqMHjMGebFrE5gzSAPfQU69tiibCEmgQUIpdaBDlTPKWQwkCirHQiCd4BxGD8jnCALKp6yVTD6vOsZD/DRShr7I3nmBNM8HWwRbGDU/iUPvXRph1ohPl2FTpVW1wE+uQEjyQJf4lkTGAkHVLbhsSZxbBlsMSQBm/hpoHMQhKHhnCD5JGqtlv8C3NmCLEnAJ/MFk9y2QwnFrnzHQ0dFKS7GCK4XFyJXlcEZF2WAI9BVUDnhkgic5VzZCDzK2kfRyHrZbI0O6+gZPX+UERTr9KgcIAkIGwTIOsc4RC4dWiXba2eck4gCJVFcfNHunaIlpCQho46DB72glcBkkMk3vrOHLOveBaVqbPuQAC72Slggs9tcFUUXH9nPbncBrMg8F+TOGGyFV8kj+PjwFIcSjfy1enaRBzTDzTMOMUUJIsw6JXg8O9TY/9AZspLhggAY706y7YHoJANH4+E84NGrLvo6+fqumXxrMl9lWi8QdJIFhO7sLPMFSwULgnnVqY0DL3BVA5/IZrvAoatD1XnSLciwwtOXEXQLMFr/HRJ8+Cc5VT5Z6Qy/uQWbw1uVtiWJAzvxwtQ730oOga1q675jYy3ygthCZW6dAhnHiIKGh5O1Ek6V6YLg9FgrJwufwXFOCrR21sEJkHhUtUThHL6SSyJwRBWY0wHYowLxcZReYLIFrzly8TkIkVs1CbbgspEP1vCONrb4Jsm2L5+9yRRgvkkcBzDtnQ62O3ELCHtLkj4mqe4OjWwUFDrY7zL4ICi1W/TWCq6gVbVso4tv7M9Xeg1rPa8VSJOAIJBghmMEirVOhoBCo6KrXDI8U0Zw+xcD8JtHQy5+FYkGMGhkv19tgOnHd2toVZhLAtEJVLLsWUBykUendQlTFnsHEll80e5VltEXDT5z9s1TWw/6ktgXDwXUxze2qJqCKDFg5rN0e6/EE0Qy/EfdgsxPNmrtbCajCoOxYR4NeTAJZ3Tm4CcG5j2T5c43A2/XSE4LjChjvBMmk8oqaznOUVVXX9fiKMYjAID3xQNH24dluL89osezQFJuvQSyJjDABDwnrLdXoqdDRasE/2oqR+yVDknAVWH0a9nk4nEBo0MTW/lgjvz4BY389ulaJODNS4BaNNnwQBu9pOMzm1S4O38Eyfbh5E0fuQqFXXB1mQsH+qzTSYe7RCjY0eswZNCPjl/4PI/A1hpMFAjPBFmLQVYUjKoipQXXur0SaL5lwk+xeR8H/MG1zGSA1swheoDb3wgBA7+LbjIkDB6Zz0n2qSw8qlBgJYKKt+5jiUAKICDMCbjg1ebw+ZMbvvTXGJKILxLHNkG3JGZjLdG6xHSgsw3whwzzdNpiLrrooiGD/RKWLuuSA2bhCFMYsM+dD7oMfXBjc1ij6ZDZ9tdnXHxVNdl8HN88IawtmvSs3RgMaR/wXkYRZKAHrMEJnysZ5j820oY8u1Sq1lXCMAYQePBrr341EQxDYGUxx/CoAGtsEVjVwQkBNu+ft/UVofZXddZpyHEJhiRSXWQAhhygqbLN5YsFAWUTfYJp2xBc9GTABehsloRaNBlwYZtn8smQSGyjh3xJDy8yzbMlbOmCO1z4yyb217nQscmoANlCr3k4ocEzKtYDQouC6G4BkQsDI8xTKBE4KLDePZeVMowDDPbFgn+aJscYQT5D3A1O0i0QwFMxtR1z7KDfAYYe9ggkYMhBA0itH6+uILD2afrYClz0ktevSXNnEkQJ1IFIF9m+tHO0gkafz6N0avUqhq/st4+yiWydAj19uosDFb/st/xBDy/+8gmfOViRZ75OYt2ALR72wp4/FR+ZLnaS1cCDfrRyC0WdAJNlKyLCGWkUFDwJoYAxnAAAcFSmNue/ttPmVCvHc0AwAE5uewQjtTVZXYVKEDZIDna5yJGM9iz2ALgMx+vbIHOCTh7+kgWY2rc9nL34+aIqtEr28YFNdPLLhR8PcCUDfPov9QUWH7/55Zl+tuLF49062ZKfXXyQjCofj6AVcP7gq8Bgj7/is872uVrrbGSgW2NYUSaogLnPLUgQyj6KCKjXM6wvDwhlrGz37w/711A8C6QkIRNfmcvZOZsZW3I5IAiQAAsKPvaqCJdndkgcjqGt06D1X9Dju/7660cgtGIXYKsM3y5JQrQBrQLJJg+gQIaHz6b9RAcDvLqJJHCooxudALtX6ardfqw7lISdK+jkg8CWDHwx511s6qp4JaG5up+40O+dT/DHv2GhyHsuyGVAQCdIEA3zaDkvCynv4ES5PdMXC3feeed49gV6Bxi0QBgtYzHIu4C799lYiyJHpagSANONR5Bq307bQDIPdDx+b8Xnnx3SnlWgtidRCpQkFTA6BcBhrwQRAPY5AOk4/Xe+dJJBB/87DJFvOwAsHvb4Wy4tXoIIOj14OgA6T+BngyQMV5jCiZ2wcffOv4JdEL2jd1XN5hTKOBV7IcAERQw3V1ZjTKg7HsBwyDtF7gXMnWMMt+fdfPPNY48SrM3lgAK0MlS20SnzOxBJKlUPIDxo6JTdLvLNAUO1Ads7e+o4WjZ/6FctHOdPcv0IINjoBZQe+tlSq2SHISkdgJx4sxEm+CWONQkgkDoCO2wV+ASQXkkhgfjNB9uVoU1LavhXofTy18UvvPTym221/iqVDy585uhbX/6fqbbZbwhVsUA3ZJF3QjBVWZi6EojOHBmAkWEyFY+TscsAHoe3LwcUa54ZIuj4OMw48lRuTvl4IXFUQ4cGdrYVmK8N4gUUW7R/gAGTLLyShX3aLXsEXJDMG+yiW3LjEyQAA9Y7PrINd2CjkbACyyZ6BI4taOo8HbwEx0c/67oD38mgG95swpNPcJak7OIreyuuWq87jGx/tqn15f/zZpussgAETMAta6qAOZgEuCgry9xdZOAhj3JZLZCC1x7DAe2Z4ZyTBILP8WwRZGBzkEx0nKcTv0xnI3u9Z6cAAE77FkBOCqqq6uMG4OnSJQAlsckveeevKfmBFq95NrDVO3+BzQ4+ZKd5PC5DMtQ1+OSAZ7ugk/18hG9dhQ7B9i7QEpRP6CumWntxGYqW4dcwW9IGoAwMFPQuKAYjBZGilAPAc71dJjPCSDmH0TCyjyEOKBwEMl4AAx2w9kRz1jghKNopANikHWnt+LU4vJ77bKwd11rZmw4BRstm/IJJF9vIZ19fOgiYdmlPZJNAOSCRzQYnavT0a/H04ako+Kmta/OqVxXDFHa1VboktXfY4nUn3xy7DPbC0nxxkUDhI15wlzwFl99b/KqGEFfBjLAgeae8NoGWQRQZns2hiYcsF0P8P2EJlAOGSgOuDFct9jx3oAESUFo0vg47DJbl9PmMilaQBJtzMlr7dWUjWoCQDUw67X8qTXB0ER0EP53u6CVftmmrHZjIuPLKK4dN7JEwfFEd/WcqbPJMD1mSwr6MToWpVr712Rp2gt4QrLnjVbkSHq4whDMf3flSIYpRxeV5g6AWZyJKCGAQkLxzqD3XHEEuVede++hdYBkgefoDMCdaVQEQWe/rP+DLdgAABb2Wqh2zqaQDsioBqqrSFZoDYvsffiAAhs06gIHWsMZelSdQAst2VYoXj4qTXL5o8RWhYJtjE1q40YdWcvIDJtbYKxB8RCNB6BR0CaLK6DXIURAGm8K56iVHApLtmb7iJBYVEH68ZLnWr7nmmm2MmjOBYsExCKplePdMiYBTVDtGx0ijQMgcRnBW8AANIAZwrEwWVFUoywWdHBWlhZJvDR8ngJijAmYdaIIDQDTW8boEgj72AiI57CKXreykj26+a6cqWOLoAuwni13AV3VsJ7f9TzXCACYSoGp28JMsOo6PZhKTHR3w2F9gw7zCIJ897uTCnSxY8pMPtd5i458qHHsspqqWwrKCQoyMNQit3MsSvAYetJwuERjLKIACySUA9kyAoVcNt9xyy8hkzgAdT077Kc+aSgI8vdYlAN3AA6xnMtkheey99AObb51o+2XI3ieg2rP/zFNVSQwHPEmupbKVjZKHbh1HV9D+2C1g/vCdbnu1RIWZd4nFdn7QozP4g3h6resc7jOec4D5GZZsRCfZ8MARxuZg67nOmUwxWV/+ObxtqkBWAqZWBBDMBdYzsDAbDFEhDBcU9AxCDxBrgsAJ4AAFDfmMw89xgFQR+K3jFUwBZDR5Mh5g5AiYe3okXe2WjVWJuzV66SBfArjbEughXyIILH0+f6uIqlYy2B6A6LtmX7qwA50kckkCuPhBQCAknL0VZk75OpJDHtqKiJ9hycZGmIoFbPmj4NCjYy+88brQuMzT16l4jcMGwy1wbu7d5gowGgERPDQUUJwMz7VhQdXaOG3Yr+oAAYeGHID4diengQoM+5HqUMnpFlCV5WSrPapYp8y+9aLHHkw3kCUPuXSxhRzAp6NAkQFM9GS5JEvVo6rRJp9P1smTGGwhXxKoVpgoGNWvstGRLSlKanbBko7arzuatgzBbBug07MYwdIzXoMso2QY/xxQ0bZQIMsm65W8wLW/WsfHAM4SjM67fU3mMYAixgOKswAyBE01W9MqnZj9+Yr/j3a8Agg4OgTRvsY2oAmstauuumokBh0qMQA3l5aHxr9iLoiqXWABio/t7HBXRe4SRHWpDMCygV06B778o0drJQ9dCSSJ0Lubt5dq335KRKsjsBWGcIIrf2rfVabkEjA2hR/MW4eXNe9sQk+OYc5ljMBaMBEBMCNiDEW1PfO1R3dXFQ5gWWuuFsFw74JNF34AWO+zoqpUtXfcccdIABXHeSCqJNXFtjLZoYeDDilka3Nk4VU9sp7DwPUFBdk33njj8MN+yV77ouSqi5Dvt2T28gGY7JUkviVSrQIETAkqmesI5JEbD7n+feb+HYp46KAPBrVaPtHHdrjUnfgHA/7NgRbUWvccSM942D8Ca6LqpJgg94Lde3Qps54jWoxMZ7RgqDbvaMkGUK3D4aRWygBBks0u+wO+a6+9doCJ136qndkvVZcgu+gEqHYnaTynX7WpbHo5qj3qDgJizZxACTyZ6ACtEu3/+WX/B7zgmmMD8PlnSA57qcqyxi4JZhuxB0te/CV+LZWssBZQdntng7W2Mf4LFuyNeMgtLuE7xw3tCKwLU8wFFrG19gLvggUYBvTxZeafEwW9EaAA5Li2V7sjT3A5D0hf6reHAFTg0LBJ0jjFohVsQFjzHoDmJYnAC4LgARSdtkwH0Mn2Obpvi8hnF98Et2RhP3sEQPDoJMdchyWy6ZUYugeZ6Eo+gWMjHOGjQukRNGtsRy9ILnTo4Qc797B0j04MyDNXsN3hvL7sads4GXNZMSKyjDljPKPjFOFo+4jinYOMqnV4Rl97KQPRdZIkQ6bnOOBVRG2OLE5rr/QDrf2Q0yqcDjRkke0dn+qUDDfddNMASCA5XXdhV4lmHa/9XGJIWn6ikSCe/bTHLu1ekNlKlgrrlxzy6LeO19Xgo0tA6DPYg14ikcVHc/SbC0O0goa3wPKXPPPFwzdzOuL4G5U5mDJgDiaAzFEmkwnwDsiyyhoDKDVn/0kRo83Xhsy376pGGWuYI1eWG6pBYHzcUAU+agCNswXST2Wcopttnl3at8Tpc6uASQZ7t3ZPBxrgAl6wBM5l3xYU8tjjwz75MNJ62YkP8DqNQ53kkZx0wgI/GrR4BR4G4UouvegrBkkCU8PdxQbBJhMPGzwX0GJhrbilY8cfHw1xP/2nfD0TUBAAhqmAUZyD7gIKGAH0jl6VuRiDVxA5oyo45rRKjs+UWiYnOAgEVeGZPncAOUgJlqAIhi8v0kNeYNRR6KXr3uUfv3agQYsPrdOsfVd1AlegBIDt1iQWfknAbjhIjiqr5HHKFlTJhpa9Kjxe/rOdDHOSnn/e2VnSV3WCCXdYmPNcUsDQiNa7Z9ccM7aMv3ny0OjzVJUkEwwK0bkYzyi0lHIaqAWxqvReYtBjn8IPSIlgb+mzXhXn4wHgAS0o9ANGG5QAPpLQRW8f+stic2Ry1McZhyZ+aO0ulSQQbPes2uigW8Dtk/QKLpnA5YNkVZ1VPhk+i7NDokoQekpEMgSXrwJTOyaHbd491ynbMvA1whRtBcY/Mmu/3g3rbDEPL/iP/7OHMqGStmCe0bXGMoeAyj7DOcyQqpJCc3jIAhRZ1lWDNZcgcIazgHSfvwUDtFMnWryqmD0l1Py3yxxkT7qqSu/kCNLmcpZQdQLeN0ICrgsIdoHVWtGzn030CSRfVJz1qqSPQIKD3kVnrZPtBQPw6MhzkReu8bb1ea/o4OkdRkZ83uFecCtC74t9O762ImRmjKiqs56xBdYcJ4Ag4JSUMXPwKSro7mjpxStQwDHMa5kdGMggEx3n2IJPhakOVQloQSQXTd3EexUiEFWIwLJXoASSbPJ0E4EvCJ0T2KVCAasq8UrG2q4uIkFVbQkngGxhP3kliaBaY6N1vsHcZY7NaCu2GfO6EpnFpvsAbxn44DOuMgER5tochxlStmAsaIzwjNczAz0b3msJ0ZDRvgdQcl19Hm0PYhBadggGG7RAhxZrALUOYJUNXPN0o+2bKja4HLbM80lABVAS0UsGHYJRsK1VKSotsAS5PbLA12rN53vgt/24Szo2ClK44QlLd7rQeGaPEabmXPjrkN3NGz+/s2f8HsuglCPynBFVT5kFWEoG80KXo4ydBzpGZhC5cxJ5BzjQgGRICJnPUYeTMl/AVFx/U+Qdb5+FPaPV7tnEVsAIHPvQOfQIIDn2U4nFBnoENLDZw+78adsogSWoZPFZVqKhpd88HnR1C/P0GOzo6p1sNpjHh58c/BLCfImLDg1cmytZwj0b+T4CS0BG1PYwE2JPtOYquBgLbhleoNBQEK15MgGAVhDJFoQOYN47tHAIGAKABx19giKgZAUu2VqXYMwVUYXhIwMf0MhkFxnkOhGzVWDNk2GezIBlMznoYOXyXEAkjQDBykBf1ynh8GQLGs/04UsfDFzstU6Gi6/kmKOz4gh3d1e6C/L4u2KDsQgEmYBZSHOBR0ntFkiMLJPQGmUdmWjTUTZXFTlc6yNLi+00aF4rlhACo5WzzSjj3dlPdh8XgER2WwA/dQP2acV9kySJBF3iGGTjM+ZkKfBVUYleggvQXDHt+1VXyTAE75RNb/suPCQUOnilu5hU1fmeHWR4ngsKzwaDEAsQAgp6p4RhRsEhwKiKq0a8aPCgKaPKTIBbV03WvKcLr6zmpPYJWI7RIciShtPm8ZJZByBP8IwOSGzA4x2PpNhcDkbu8QOkLxa0ZraRGw70d0BiH5zwwAYmJaBndOit0e2q0mrP7KObT+S5vIc/e/lUQpI1FwT+5BdstPSEN5nRjf/TQoNhiFKQYoZYY6B2CSzP5qo29wIOGAprH2Wxd/xoBYN8c4bPlOS6BLcKpEebpMvnTS3VWq1NsFWhKi4g9HnHAzSVYx8tSa1pn+zgq1HyAq6K77OpNTphwza2t1WQWcA9s4dt5LC7REpP3Q0O7CuRskEgwzL83Es6cvBV0dZcdJuva47kkyUUGWWI5xS4c47R7oSgKzCeCfJuTTY1GC4YVRRAGNI+5c6gjKKDLDpbIwNIZKcb0HjILclmndbMdwom08cj8+wjp4MX/+mSAIJk+LysXacPDf/aLuBgLtCrIFhUvdYlanajKeGrRnOCbaAvAfifrbV0tK3nKzklgOfwZ+sGsAFEaYsEIyKIwC4C0RjzXJmCh5zWykgOV4WUks+gHEOHl5PWzKPnrOBY8yxYZS893mu3gMBrdPCJ3nynbf6SVULS3Xs6yKSfjU7i8MkueowwY4dBF1kuc2Fn3miOTBgWqAJfUKwVVDJ0CLa2ThYd8x19/ruTsej7KaCI58hbI9BcBlLmMlflzr09pRTgbY/s9FeLr+LR4CGLDgACNT3WgegOlBzAr8LNzYEsSGQAj353dGSWWJ7R1lYFk78SwHfSDmzW7cMlM5p8V/Fs8R5GntGEo/XwILvgxsdG9hQMiV1RkIUefxUcpuzBRy8az+jwWhuBDcSMaZEwLcow1zphBmElgTn03nNEoMwFIJr2IDprteiS546/QOPXhkugWrVgSAJ2udNLpuFOV4DVqmw3JYdEYFe+4tsCZCdQJRB56UITFoHKFnMlTQka2PSbE4CC5m7dVcD5TI85Os3PmFbpw8llxD+facJ/yJ3bHwZKyxLgU0BRwFHmosiVMQV8BowswQASWWW3O3A57NlFJzrDvcPQ7IR5VWTfdjCJnx2cYUOBLlC1V7bgR+eZX+gF3LMAscNBy1eV7bfZyQ/bQokLA3Nk0cmWMKCjKsyf7JHwZPEAAAHXSURBVHEvKHhL/iqvGJAFg2yeK9Jausib/cdvbvxdcYp6BsbP5xiBIaHuAcSoHMDXyJjklgRzBVhDh898cslgR13DPPBKKPTWXa2xx3OJCDTvRvN8EEB3gxxr3st+wWRTwbdGj/abvpIRXVVqrnbdvhweZBTs8CrZrKHDj6YKJ7vq9Zyf0bM/H/FZz9/xXTGhOYaYEO/WAgHoBmBnJbK2wFTNVZx5gywVABjDvkcn+UDssFL7QVPSWKsicsK7ZzIFo2B7J6NTviqsu9Dno4491MDHPrx0ARCgeHxZoSOgx1fV8CM6NuQHMOFUwOhEW6DnxDFHp3XzdIc1/gJbUMky3Ol0oUeLxlVCJ8fcxgMPPDB+6+wbnRhjIHQ2gpCfC+J8mR/4zdUuMxqgHOLc3CaH9ZMuOgMn/dZLiNYBMQPKtlpTYGQz/rK66mnfTkfrBWOHVT+dM3pHb3Sfn+c1tiXTfAlrvqQRbJcRfgUtfb90Lx54/PkPGU5F/ymIY2IBxnvGeA5EwgMpILzPYAOsYc1oPZnNkT3Tm591eU9/2T3rD0A0Rtk9+0O3kS2e56DN84NwGXOwmnOPdl6f+f8bn/Wfz8+YzTbT8XP8/pt9s02eJbItK6yc6v8HSHYDHP2Scw4AAAAASUVORK5CYII=;imageBorder=#00CC00;" vertex="1" parent="1">
          <mxGeometry x="510" y="651.44" width="85" height="80" as="geometry" />
        </mxCell>
        <mxCell id="32GEzlC8_-ixo2tJrArx-33" value="" style="shape=image;verticalLabelPosition=bottom;labelBackgroundColor=default;verticalAlign=top;aspect=fixed;imageAspect=0;image=data:image/png,iVBORw0KGgoAAAANSUhEUgAAAHsAAABzCAYAAAC4lH0SAAAABHNCSVQICAgIfAhkiAAAIABJREFUeF6t3eeOJle1xvF3xkPOOUOTTM452QM2BiFASP5g+Q6QuAnugW98ByFkkbPBGIMJxgZMzjQ55xzn1G95/u/Z3TPWkc45JZWraoe1nvWssHdVd49PPPrRjz7z97//fXfBBRfs/j+PM2fOjLiu7k+cOHGrKozT7+r8z3/+c+Sq7eTJk+fMNye5XY/rbMzafo6gYw3m0IcXV+c///nPGbXaEd51+nE9x/Hdmu7j825t3K214+w2t7nNdLsP+x//+Mfdr371q92JN77xjWfufOc7706dOrX729/+th9gwr///e+ZlOGejXNqY/y//vWvuafEWZt5OYysxgNw+9vffua5/vWvfx2nkm3+b3/72wHrHkinseSScde73nX3l7/8Zca7N9fYe93rXtMe7lUf+4yj+7a3ve3I+tOf/rS35R//+Mfudre73U7Q3/ve9979/ve/H113vOMdd/e4xz1Gpjl3utOddr/4xS92P/7xj3f3vOc9Ryf85K4caPOMz7vc5S6D/7gj9WuLo54LaPa5x3U2GV+/e3PoJoOOnKvdOFe2/e53v9u99rWv3Y0kEyNjzZ4mGJMA43JwCvU5EELx8fH6O5tLNoMyAPmRTM6PfvSjeUYWZ5HL8RzLgPvf//5DNCdxijkcyeERYKy+8HEUvWQVuPCQZ5zxN9100+DndLKR/ZOf/GR3n/vcZ7LD2D//+c8z5u53v/vMIYtuwffrX/96cAkcwVAQe44XeNitDxaYnLDk/K7a2eMkF5581Dxy3edHz+7Xw/OpBhBOoOccFrjGHHfQ6sTmFRSBXQ0kP2dr5yAno5HkPoPN52QkyhDB8MAHPnAyX1uYVAeEc7LMgzGnc8of/vCHIQkuwUIHh0UiJ7jnKH0F2G9+85sJuDvc4Q4z/sEPfvDIgM/p0I58V/PY4T5MxtPNDkFLP13ac3TOLiDjsfbj/Z7jfXWmNn3H+1enH8lsk4FwOjjHEYCiZxrPc+RoXaucwAFSJnCOdiQhgRORTRdnGUefOQiXRfCY99CHPnScqJTKPnOM4Rxke6ZfgCBbG6dq5yj35Dv00QeHscbAQ4/MFIR0f/e7393d9773nbGqCr2Hh4eDsSpgbsthSwyM9NFThtJ73Ilxro/MjmzRFub6yNC/nmvQ7IVsN9pP1anDpDU6POtPGECegc7xxq/A3GvL2Stwfchow8BByGydrmyaX4bIVnNyknIqS4xReq2f1qQCSjbLyuZ4hsEYc2rP1oJDYHCM8cbCps24NrA///nPJyBd6XbIYvYIBIdggKUq5dmR7njDYdyv1UKbMXA66O/QFrf5Rl+2r77cTzp7o2+c3aAEp5DS7s3J2c0pCPS5B3oNjAAZn2wZw8HOShtikCtyqybI1FZgcXqbIg5uPVTiOZdueKsSsOojmywkkRdhkU6nzOVQThZwHHe/+91vNmNPecpTdt/61rfGiU7BQa7xd7vb3YaT73//+6Pnhz/84WB8wAMeMDjoa1nAEZ3pxUf8ujd/PfQ54M4H7p3x2vi1/7gv4911nJ3SSkmgcmoCCDfJuITkyDJ5dWzz6+MQjlKCGUdPTiAbMXa/ggCx+sxRJh/1qEftvvGNb0zmIVe7suvkJKUVpl/+8pfjXO2c4eQcba4RxSnJ59xsr+R7huOpT33qXvbXv/71cebBwcHeyaqSgIRLALBBm7kPe9jDJnjIau2O67j0LAAFXZyu/ojruMrZVQZzOo87Oh3N2ZdxAwnOQUXNGj0UVHIoLwsTuo5dFZOLCGSLfodNC1lkcASHyV5rXRnOCe5l2DXXXDMlU6DIui9+8YvTLnsQzQGM+t73vjcyBZPsR/jnP//5Kclt4FxtuBz0wtI6zkkC7iEPecis25xPDuzPeMYzJpie+cxnjtNvuOGGvaO+8pWvzJ6BrcZwwLe//e3BSn7BRWcJAW+JJbjN0ebovooVn/rWZKTPHOfKeToKBPNO5fWcjKgirJLHYP05uKzTXtt6fzwakYasn/70p/vSJgNkLAeay8n0kUe+ACCH86yRnG4sR8icn/3sZ9MG12Me85jd9nFo5DvYVPnnAES3ZsOiCiCR0+3wtZkD49Oe9rSRYQwdcJLx2Mc+dnCqFG2UBBgZ+OJQ+wkY9MNuvGqkrAvIRzziEYOLPnayR1CuTlIJPFuaLC/0kxPn5DqMyVf5kF5y858xVY25n5nbsQ7ovqjI0etzglw7CTamCkGu8gU4Y5VwfWUPgjih7K7UNo+TEeX9Vp8Mk9l0CBT6BAkyEPOgBz1o98lPfnKcFKlkweegmzyZRzeHIhtJZD/ykY/cY/nqV786jjSOk9zTaQmhl3yO1VbWPve5zx2syLcnYTd8Mtw4GHMmp6gmxtJBnkAuYHHkXnCZIzjLYHMd+cN9Ts532tjdGNe9s2f22QFNXLNem+ccyeBVWHO7AidTEOtkGIfloDIJiYwkv3dbc7UJEFllDmc4GM45CEKGZeHCCy+ccq2ky64+ngi0NmXGm4t0WMjkaNn17Gc/e/TLIlnn4Hj62SurvO4Z0xosY2ETFE9+8pMnIHx8OdiyPRvJZvsTnvCEcf6NN944FUiQsb+MFdSWJYFoiYCjIMaxJYjz4RYUVa0Buh0lG5kFwnFHG3dy9byBzjKhSDKmthS4IgJhnOMw3jjtMpYzGNLHDLI5ijwEGityGaFcf+lLX9q/lnmObKW2dd1cBOon6/GPf/zuda973ThbeUcSuWSaDx+na7MHoE/Z5wjtMCFZYMIJs/XXPZlsad2FwVzBxD4ZbeNI7+c+97lxkk0cXNb3l7zkJaPPfKeAhZtj6W4J43RBT+aLXvSiGeue7gIUTpx5dpZs+WN1rrYyPP9qO5LZObqJOdCEHK/POG3AFPm1ITdHI0wgAOYEkmEiVQa4N195R2CllwwluayXvQiQEUj1jETZF5HwyGKB0VrYpgexZJGvlJpLN2zufTCBQRBxsAA1ns1evcznaG02dtddd904neMElww39olPfOLYfrh9bNGnynD4zTffPIGmz+dYumBrz6KKtYS95z3vmaB5+MMfPnrdV5084xHXeCsJ+WR1tvt8B1eOP2fNzrEGN2l1NkXOhFRWPCPQmhpx5ld2GSfilSNAHcA7ZYZ5TiRWpmUOZzJQxlkPjak6CIrLLrtsMsy9sX2vbsloN2uOA3nGmGOH7+AE4wQT4i+66KIZJ+MdVS42CAZ2feELXxinwqX9Oc95zshsKbBvsIa3hzCHc5V7B1skA52w4lRWqwwCSkLgRcDgWJVy5Asc4tyRs+dhO4zpbIz2I59LdZiYI92XsU0uAHIYIO6tdUhjhAxBPhL0cTgncxSiyTSOoxml3VWWube+crrr1772tckexCi19NMpq61v1mukCAj95tNnDAxwezYfRniM45hekfSXXcbZUJmvnFuPyVctBAybBPXVV1+9Xwr0CXCZL+C+/OUvz/v5pz/96QkUVQq+rvElMFQFfMhkjqafHieMDjbJbvbkHzKc5tY2g7djdbT7jiNlfHV2A8piz0VQ0ZWgMlo0c7j1EikOEQk4InIm8Eqx9nacnMapnIsY4214YIoE8so2wSBzyO81rNJsDAzKMcycaQxMZMtI+wPka49EDqfXM7uVd5kFJ2I59frrr99de+21I4ujekOAjc6Pf/zjE9CCWzAZw/FtHgWwfu2+zBnzne98Z3jDAew2qrIdDkHH6QK06rRm7nFfDOnbsY7xPEnyyle+8vVuGCMKCS9atGtDuDbGykD3jGWcA+GyAbnmG+cAmnEimHMOtnWaMzmasfqe9axnTaYgmkFkwiIgAEZGco0RMNbGF77whTPOBxMZq53jZCG8iIG/Nc41G9mEQGOR6gxzBLNTMJCRA6ynb37zm0cmzO05BARnstGrGTzmm+vgXHxVlpVptumH1U5dpSPD6cCxe3zARGfJBb97XJvvJF+lFNj5zxxj+edDH/rQLWV8dW4AKhEJI7z10hiO0UdQ6ynhyhCFjBX1HO2KEJFss0KfVxARz4HWsfe+972TVTYynGtchjPE64uxzsc97nGDReYjnDMYTjdizONMsvQjocAzBrHGcQJs+m0QOUm7rITRXFg++tGPztcy9iJfkOIAFmNwoQpwNkcKZngcyjPu2F/imPOkJz1pcKpm+LKhs2yE3Vx2w8EXxnSQR5Z2mByucMFnTtXIvUDWP2Uc8BzumRDnehicUveUIQZJstR92QmwIEAe4jhWqZKF2jmXDITQzSgbnA9+8INDjEyz9gGu3zgZw7naOQ5hyOUsslr34XKwJ6MZSwdH2yTZseesqoexCBUkMloAW3vZALtAbj/BufS3g0asyoIHc+lQkbQrz4JOe3P0kSUwyIWfLO/uliyvc8ZLFA7U1/s/mQVSme6Kf+NaNtmDP7LdTyVQxk32oDFnTyRsQBz6kFO0EIxUZekHP/jBkAiUflfjkYsUBmn/zGc+M07S7pT5yCVHaZdt9NvoyLSqBwyVb+AFjz7zZabMe81rXjPyBaM+wRZWdnA2XJxgvgqi3zhyPFsvXZGqrNJrPHzf/OY3x1b6jIGbjebjTps+AQKjHTsZEsFG8sUvfvE4wcHJlhty7cTNgxtGmDgcvzI+2XFhnLYSz32+K8s9V/K1wSnIVM75TZWyOKcSRoEzZ0ekie45WCSLPiA5ClEiUhYWkYzzlcl4pwxAjrKm3YFoQUMOgskXEJzsXrtoZ4gvWa1v+l71qlftPvvZz06Q0MlQTjAf1rU66DNHBhjjagyHc4Y5dCjD7BFIzrJG8GrnJAHpgIujOK+vdz6aKN+cfrDtU/DBqewQEHSwzeubMebJfsmAPzo53d6Ebhwbz5b8wTfsWX3EFvzimS8EDJ1sg/vIbhwRZXfOFgCc7yDMMwAIBw5wxDEWWcYi3bPxnKiUGcdghPmJEhn0kcf5SLHuGQdDy0AVwzzjBU8fPmzutHsNUtKRYT7sZHCCe+30jcFnCYKPLPrdw+iZDja4N5edxsBjCSlDqw6WEQSTLUie97znzbycSp9gwo1lrH2G4ITv6U9/+rxCurcXId9441QQdvVtIt/kD7g62M0O+NlChnnatTlOERBBhLg/fhQ9JhHYLx+Y66QUME5HLOCyXhmjtLWEbNEmk7UrjUoaEuyuzSUfQQCLTmQCLbpt0shW9n3PFkxeoWSRsaIfqeavToc/YipxgsTaSQ97OLfMbYPpWTuZ9DqSKwO1kedkO2eRacMo+zkOdoevbgJAgMpc+wH2WyLYxuEca47MVPUEP7l+Ehc2ttCX40tAuGSxZ2NwzuaSBIaTOgwkwODAE5aTG+NqMtAAASJA2oiVqbKBEwE3R8mTocoV430ydPUpkiHkGCMQZC0MiCjjRLk2BnCsT5AHWyVALOOM4yDBYhzZZHEG25z6VRb3stwVGWx2JcfJNvIc5jtb1sgXUGyKZH3GkMEGDqOHHezX7iua0k6XavjWt751litcsl1iCADj2SWoXY23BPSNgE6HOeyruuRoQQlbm0zz6XBMgDCM8ZXVSCgiiiDjGOt9mlJGloXtFivjsoW8yGewQCAT6SKWDCQBfumll042GOdZWWQM4AggL9CekSEYVIec2asWR5PR2d6BHTAwWluBCUd92uiUzfDrKwE8s5M++Didc7WRhw8ONN/bh4rETh9hDrePOObTbZ1mq8zGhSrH0ZKHLpxwtB+kGK+dHLbCyS732uOwIMDfemqHz8G2k0UFwQAzoMhvkIHaRCVFCOdYGQ2gKyC9rwJivLYCYo0yziJDpsuCF7zgBZONVQL35pNDhpLIuTZirjLdlcyiHH7kuSKcLZ0IcG98J7lO4xFMp2cyjOlalnOwAy7yOZPTzBHUcMg0G0hvIPhBtHdnyxlbyZTFBZOSLkg5F8cqoit7bfz8RI/8sjv/wAQznPoFW7bwJ3xs7sj+WbMJ0VCJM4igSAOAI6wtRShDIlsb40SoMpjTAAKsdVQ2eFbiRKtsfdnLXjZE2fy4Io4eWWK8QEKSVxg4jDGXw2GnWz+5zgzLLjZwqKMsLggig92wthn0TKarAIaJXG2cLEDXoICJDtd2zXjwbE0OI1s41FgBQRZ85HuXN85ewC6cw317kGCqqeomMGCaLN1sh8k9X6wVKh723j57c8pgylxFN+UERiRiCKLURoYghmpDDoeJaJnm5CjGVDEAqrwLAkYebmVNu3Gi2li7Uw71A366yKRbSeQIY/1USLaLdMaHA2a46E5vGNhJlzOCtLnnDHavAYILDqazbIYnghHb2mhMgZyjyeU4GQ0PB5PpCxn+3MtywSzjq5YSB5/w25cIBHxwvHneaviHzgKEjQJEW1zQvx7GOh2nkFTkmxgxnFlEcxKFgHOCduAAqzzaLCnxDu3kUkK5Z3Nad81FpB144AswpdEXNiQg0AGXNYxBPrlydNXGPM5xzdEcUOaxDYZIKHjXjQs8VSr95MOOfId+4/HARraFTfDR56tc3KhwMLGB3cb3KmesV89+tOl1zT3nV01H6XbgyGdV1cBP0Iz1Pg4X/xR0uKiK5tj8SE4On/qW43KQye4ZjmhGAu0ZKQzJMGR6jgSyKDLfAUSHOQWUe6DNdXCwyEWKUgYDQpGpGtBtvSvr4DHWHE4m15icjggnPNnHYUhyFbgOWM2hqwDxrB0GZ9+vXc2VpfRbVzmKnjiC18l5bbxkOL1IN18wsR+X8OOQY/XBwQ4HHPYAAp3DZbcAMifcMFd1zCnBzuf0UwQW9RmJOIf21moAKGjTZEyOUr4BNZ7h7hHM0W22yEaQNu/Gl19++RhAjlJtrvJ25ZVX7ks1fYxX0hDD2ZGSY41hML0ZXTYXdI2tguV8NuqjW5v5xhSUVTaYtQtgGGExr59w2W+Y45k9ZRJMzTOXDlhzCLkqQhg890oWNjJUOxkuSARQAVaFJa8AWZ1dwOa72aAVwYgVgQBHjIylxARGcj5lxpV5lALFoAJH1jqRIBq127yYjzBZQoaAsb7BYAPCscacPn16Phla35VuwJ36BRzSyCMDVs9lC5yCC57sQULBUBubZHjByR62GCuojCMjrMbrJ5su49gm2B04MJZ+G0iO0Rd35sIqONglY/XhEz/uySCTnQWLAPBLFHhQynFWIlYZ2Jaj8wG+yNw7mzEiigEJIcAabZCJyhDFCEVIpVhf73wcsG7Y7FjJUJ5FdMbQ4cMDg4A3BygRXtTTz0DPSH/Xu941821cKv2qAlLNNd5YeAWmsXDSATf7tFfS2eOeM803puxw9UwGmebGgz6nQ4A4jXUiuzcHnNqN6yc/XswVJOz2MQkGfMhcQeDjCd4sT+ZbvvKPq1dWdnO4QME9vWtVIkdbSWAefPx75Ns4gmRVIN0Dg3D3jAa8CKSYQxlRVWAMBYCYR4nxspksDhIY5hkjE/wCvvUPqF65EGqu1yzEm+c7ck6kE2mqgeAr6IpqOM0XCALJVZYhwRhZ5h42ZNHt3oGs9CPPaUwlOQcao43+3p3tsMktcXBJl8AxVhYLCmN8EoUfX+RzunaZT4655o2jtrnw4cnnYkua7NcvkAVJFVmA4ocd5jhhPvI7aDoB00k4AziUMiAcrWfIqwRSSBgSy3rGkmE+5wIgoxBPVhHHeECN5VBOQ4AxZNp92rX7ZQZrovF2/pxOBvlOuOGnxzzBZaNHbmXXmAhsQxkp5lZ9yuBIFgicwU7j6seTZzjC27LnGVeCmV542SfI2YO/T33qU/MFDVd02KXLbq9c+vGlTZCSRQY+7Hk4e+UJFjhgLnDxsJ77zNYYYQhyz9mtj7KUMuMYCyDHEh5hIpMxgCKHcoCRyEHAIYwcYxHfb6D0I0yOc5hrzTPG2kyX8qW97+5lNPnIgNkpoAQQfbAIAAQIAOUx+bCbyybOqSqwn01rPzIbQ5ZDteNczpBdOOF87cbCoFLph4vj7K5VHeNf/vKXjxy77NZ5H1DYScYll1wywc1+etxztIzmm6qtfjwVhK4dtXk+548EGMp4ZQRAzwQhCliEIA9pAHgmUBtHcICMFyQA9VsZnM6RyjJZ1hw/CCmAkOQUVMmDgxxXX9qs2ZzKWAZqpx95xsFKP0KVQgFnPJlIN5aO5rk6KuM9rwRp6yyD8cKZrghnJ/vsEXAlSASZEw7ZLVhs2uDDlew1zjzZrTRfddVV+z0MDlUzHJMpGFQqNpCnH5+wsYn8loqcbSxOCugjZbzOnGUgAYSWofoQyEBK9DuMRZro04eI1m/EIJzxQMs82QE8sDYiCDCOTPMFm58WyQoZgrTT2w6dITK7CtBaRTdZdApKujjHeDqdnh2u9AmQyi082hx4cK6lkWzOMd7JXv2OAty9tsotLPSzRyCYL6Nh4zBX/X6/TXZzumrEuTLcK6kAwRfMOLTh5Qs6yewDlOBvCcM9/PTlbNiObNAINIgypHcQQkA//is7ENSahABRqM1YY1wjoCzwcd8YwJFBF52MZSgHIKDKwVDtgAs0BPTbMAKAwQKDvsomwjm/QEA+/fTSFU732VnG0eN0aCtrONt4bWs/u7XhrgCgh+4I92wcGZY5nFminJ452+7cfEsBZ6picLv3Kflg+6ysGniTETx+V62kjGN2p9O1AM3h+w+pOhpMIXBKFGNlCoIRyEk5hBAldI0okctZjDVXH2e5l8HWaPI5CliRy1nGV7ILDI4my667vQACyBAo8CIDPhuXymabL/sC5dtVH9LZWZUii5w2XkiEjdyyIqLgwImDHP2c3N4FueThA0eu5LKrpYmMbNMuwK3B8Mtk463XbTphJV91w5O5ZEkY9gowAUOXPqc28+iCKeePHf6jgyMdCDehiK7McUwkINO9MXbIfVRgvKjVDiTjkWKN7l0y+V1FKwwyuerQrhwup0MFMMZz7+BIYrwAI9+f7RxsGYAIMp1tblxhhrG1DS52tc7Cq0+Axgd95Dj0ZRO74DQuPey2jGlniwDTJ2nIFCQOcwW4ANZmnNdKujjbKxm78Eyn8SoYJ5atbIebo/GPbwcZbCTXvfFt5CazE+JedJiozQRgZYKtPgNEv2ubmsBQgAj9wLeBQrDgAbgAYQijHADTgSi6EeAH/ILB2tzOVPniUBFOhw2e93PVgj546al6FNHGqiIIIZMtCKIPJuMKYvidngUBmRzHRoc2B8e1DyCLfleB5l7W6g8THtm27idKHrxxik2lg2OMN18ifexjHxuuYSWPb5wCGseqgD5HzsVnwaqdjew9x9nIbwdogEkGJ6D1HCGAOQE2ljIgHbINcXbOxnIwZ8l8spR2Y9z3+2qcxRBjzPWjQs4no4DhLGNkMbntzDnezr/PiYLBz5JhEiD9VA5+WBBEt9PBziFks1UfwtuwcZQA53TOhK9MhZPNrubLWHbBKdAEGFklAtnkrEuNYDTH2sxOWW4cXsmB3eaNLfTC4iqwBY12Oox3hp9d+tgoUPavXmUWQUjUWdQhgnNMrEQAjDjKACyqKI0UJFAs6kW7Eqf8kGWecszRfuHQHJGsVNPnaox7GcHgT3ziE7uPfOQj++pis8YQc/0kyuuLtU9QweGHB+yRHQIHcQ5tjjVQa4s4ZLqHQXDB0TqMH7abIzhKCPaag0uc6DMOlvV1ULDATLY+v8xRJTCfXI7XxkY4jSXPqV9wCPTm4aGgzMGu+C/LJ6yBdxYZHL1GOiEOwAPPcAA8E1gVMBZ4UWftUT6V4CJSaS67/RKeCDcGOQwkL6d7rRD1sJHJ2XQx3lFmGg9zr3Cyz99xCxBlDrb0ymoYYYAf6bCxV/Z5RhIdsDgQyikwFtzZnbMj2hjZ7Bk+lcnRWi7gnPTZM5DDbjayzRy/nwYfWbDTfbj94ETwsgkGDoczLguuHBw3eCF3AsCDk1ADCBHJTc7IosVYfSlrjWMQw0Ub4SKPTOQyyj2QSESEeYw0Xh+H2Z1qNxfBxjfHGuVvw5BjrVIROFeAyhpyOMpfh8Do2S7eQY9sp4d8MjjYVdUQuDBnl/sCXx9eOIh82HOCcZV9Y8wpqPHlmU7j4BHY7FLe2ajdxktA0qO9igqb9oLTDpw8H6XIFNAcD5NTmwCiH5b8VZUm95xv45yYIxFFQI4nkBBHGwWKCAeW4UAwwNoJKMesr00cw+EyzzrEyYgEEhFI4RjyRDM9ZCrrDK70y3iHXyv2zkkWguAVIKqFgEAQjK7aC7Qyl03ajEFMG0xY4gJRxgj8MqckMYfdggbWMsq4Al4/R5PHPny2tyCXTebjgQ3GG6PdZ2RLFLmqE/vIhtu5YsOHcSVkwZjfjjibMoAY5TSIUkBNtPmgSHYQCpRnYznVM0DmcbRxHK2sAW0T5dlch7W0LOZMgdBGhgzln8PJcjCUnAKMw5Qx5d6GzJrNoRzVbh9u49glgJArUJAajhxmHhs9kytg4GUbDJzJRkfcGEuOYEWyQ3DiROaZ59kY2PCj0sBEFlscqhouO+1r8C5I/UEEvMYo5WwjGwb9OKxykcVncCWr+wte+tKXvh6JgBLI4TodiHIwktAAIg5plCFFH3A+dshUBrauiGTl13jyzUWgXws2DyBtvhiRgRSbuXa1lgBzBQJ9vb4IAoGBMNiNI09VKbPpa/1seZEt7KvkyWQ2kEG+dv0wkc9RZQps+jy7ItX4lrrm9kweGexhpw8gHBbX8cupxpkvINkoeNxzqqBjC302bO5zIP+ET7DSI4DyaRV4fidAZ8DXV66MAtiREE4giEBEU2yHTSFHX3HFFfMvIiDXOEYYy2COsCljMOKQYtzB9n6KcEHiVLbo4xi77zX4EECnbKaPY71amaPdOu6KMNgFrzGwclwfMzwbUwVzreyxF7GCjNPJiVBYjIUTdtc2cOZV8cjXTqc51l9vCuzSLjgFMI5aRmBX4Xw5tCyZCzucsPWtIxkCWT989JFTVruGexwIm4kZskaMyRToc814Jc1BkbllZ9FsvDKlnUECAcEyyMHo3j05rhJnPGLzK8w9AAAgAElEQVT9KhIS6EMO3chxWAY4WOCoDu1MtQsMB5l9iOl1T2YgvGpkrCDUtlaHbKUTUZHFzipIPGirXV8OIMM89jg8sx0nSjjdsrY3AI4UIJwOJ90Fh0rA8Rzq6qCfD1RRnHtDwYMvkS0JYTWePLLhm9044QAG3rPTpJzpStjBloVAcwxBwJLBIRzw/ve/f0ilALAcKJAYRY97/XbY5jqto0Bzvgimn/H0MRa2/tVBc42BxxrGqTAJLvMsGwJFVrffkIGCDma62Kav3XPOqQQiSlsZQi782R3xsEeuZc4cpVNAm8PRnlUfGNhhDrl4sNb6uQPHqk5e0VQ+GOnCpT8YlPHsV8b9aNjB6cbjvY2l9nS4h61z/u3SOnM8IA5EFAQUa5eZjGJ4/Uh1koNQ5DsYw4iWBzIqazlTZiGBbvMRY8MhkgUQMqzPgso9EmUJQvr3RBGpGhjDaFdEkOMeTgbDXKnT5tkBV9FvnHv4st0Y+GBzVKrNc5bJOZe95NDNJgdb1r1PpdvyxVY84JAtqhP7/CTMHD8sIVvg40pwOMyV3ZLBfBirSPrzZ21HnK2xAQYzCthIkRXIRoY2GWQHXPYYi0TPQCBcxpEJjDn6XEWuK8P0+yV4mSm7lToRC4/gsHkr48xBDsNlfpVCJtu1MlwwWvNgpS9d+pDFCdr1cxYinXSw0UFuzhTklW9OLAhaFsIAj2QQ5DabbNNnHPkc1x6BrtZsQWm542zfBoy1H8AF3uDFszH2PaoHzshgk7NfbDAXVj7KlhJp72yDKmUNcjWw50ox5QwwXptsQiLy2rDo067ECAKGIbgKAYxoN95Yp34lyqdNBiBMsPRH99rhEf2+jfvXiwQX4ywJcJKPoH4ipvyRrUSmj8PW9+zKMJyVvKodXtjqjI/wuhpPJ1s5LaLpaj/gaq5A5fyqjYCu0ghqQWwtltW4FDwCuOULF7394IE8/GkzHuYCsw1ndoxtorjIBp4QBjQo5+hjgHYZKGv9dApYTjEH8ebLJFdg+/ghas2x5gAoyjlXJgDISO/QgoPjRCqHCwptIlv5li3k+pJEDpJhcxhDnnKvrWpAFzsQihTLgmfzOYEDKt3sQ6JnhLELPzm0IIkXwU5nf8vFFjyYT65ncnDEuQ646GH/OGHTET+WJjKd5uO4d3P88YGlUsBwcvMFVDirOHxAhlPfyYwCHkgkudfuiowiuWjRBpyDcoIcSFJ+lGEBwTHGAQJ8wGQdEhgp85QmZDgRAaSfWHEMx9mBc5hx5AgG7+nwkc35st0VHgc55LfxQQByHXQ7BJPDOPf0kk+XMUhiu3vYVwcWTOyjF5aw4wGuDrx6xg2Hk2dsyQWbZ/2y2oE7Jyx4cLCNPfCaI/A43D39xhaofAIzn8Gtff6wrzJtgPt1YFFionvrp4MBRZ85FCGLQ3oNKuP8/bUMZJCrw6dPmQYMOV65Wqs5RZugkNWAep0iTxDYuMDiMFbGm+/dW3UwFz6YkCGgYEQ4BzoQ4NReYBSM+ssI92ulqwrARD5nZ7s+m1OBThd5xpXpZHG2zOzNQ+DKUraRRQbnujfWfP6gg81VQpj14bwkpHNt51tBYJ77UzkEEJGiUxugQBDoAFg/B5UZQCECYYgjtDLLSdoc1jI/tTIeIA6vHJFPpgwGlOyyiQwlTMTLPEQo7wWTtjIQbkRwLqyOypg+xMFKdg7PocaxF7Ycqw/JOUu/Zyf5ruzilPjCA1ta7jy7b3xBhQfc6KPPHBhVJ45jX59DYTNOELnHcVjoxYErTvV3Frjkscu5/6mXQUjVaSIQTu2EZbiS6l8EQqz3P5smRgHBAMZzuO/a+voVIVfOE6Fktc5zjmqR8xlOJ8NlK32e/VtiAoZx1mbG+B7uH8qz+ZO9SCJfZsPMUb2DKrX6YUQ+4uFeyREgObv7sgUvDnOqRoJfsDWHDXTS7ZAsuHDAxKGRby/DgcbCDJ9vB+6tza7k47Wg4R9JgTv2l8WubILVlQ79bBO0Zfj8YZ9DB8IId5pkgiuCygLRbL0ksN0xYBQqqZxHOOdW3shmODKUY2Oc+kWwPjhsmPzjdWTnNKTAwVFKv1906Csa/bAp3UiGAaE50z3CPMNNFx1IMY/OnGU+Up0FujFVJ+044BwnW53mGaMtmeaXjXRxtPkC1XgBwEZ4cS25cI8HScReQa/c02lOAQxvGzuywyFAYNBvfImaw0fOeHo7ihSd7lNAGEBtDEQV0H602NcyShArYwEWocDKfNlZ5FpvfTcHUnkG7GB7XwY0gmUvncD1j7XDIns5XAZwmi9nMJEXca7GmkueVxaBAVsVgxOciI4c9hovKBzs0Jbj44QcJwz2JgLJmMbSC4NAZpPAShbZBRf79bMfl+SZK9PNp8+VfemGl1wyyGSDKxuMIQ82zwWgsfAJQm3znh3RFFRqiugZtJ2UcZpTKVFKKeRADhJ5COVochhBkVctMh0yk9GMNMeVPK9R3q/JEOUFgbFKPLlKmI2YyoAUQSewZLdAsGyoAr120a+EkyVY2YlkV+Q4IsKVffqMdRgTsVU1+OCVfdbduMrJ5uOtoGs+WXSwRyC7wupewAgcOO3EXQUPbt3HHUerCHxBFl0CmQx62GtfYh4MZMDF+Wwi66SGwADpyGjEA1MGIJcihioxrpyGAAqMdeUYZRM5NlT9yY/2Nm4c6DMgoBwKEMe5AmweQ/WLcFlyuL0fK9nafTHTl+PphSP89CAgpzCWXTkup7M9UiIG7nhpTuONIdfVQa7xjpJGW+utdjqMxyeO2cJpDjt38/DZL1vQrR8PHKzfla2d8SJIe3+no+x2D7ODzwYbB64GIA14gGUPcO4dwFZiGSNTAFeKGZRwfeYCbcMmkhHkCxF9ZPg9K9EXKbI2UugU7RlGPqchQHDBKIPJSnbvp2Q6lXoZSFan8Q5YYGAnzJ1ltTGwHymBZytc2Q1rFY9cjnGlyzx9xrLPIRDhgtdch3vcSwLz2ezQ77ksVaJxj4/Kf5voArSlsGAmJ390P//oHRARIgKAANhEfZQjuPKRk/RTwokizL0+h8wFXlYynEzgrbvGyNx+rwr55tMjy71HIwkJHGazJ2hUC8Gln1w//4XX2kw32UjwNUvwmEsO3DKDrXS40pmz4dHWaYw52hHWPG3IzZH0yUxLyMEWkHC2HOCLvZ5x6x5GScBpcJPVRxmVSPLIcNyYB3PVaeWVLAfb2ODZWBw3DkY6YOcnx/zTWIwwUGclBBAn0EqDfhsJR8bLBBlCQWuH+RzCKNnlyilKlPXWa1ulx+sV2YDJCnJ9SLEj53Rl3iYPDh9MZAdH+CEHR7bekyHTkSjDBUKOhIfD0uMZbicnkNeYIeQsSTgpuMfo7WhZQSy8dOLMHPJwFTdkwg2Hfg6x7koC8/XD26sqTnAoYPAp0Mm2tgsE83DZq6z5nI0Dcx1ViiqHtpw9OP2nEylAUxYJBAGMGPdFDocyXgDIOEDKQkpktYxHmBJMhl9+d29tBoI8/bKRDMZb30U4TNZnBjEUNhj0IQg+v8NmnH8fDZky2u6fswsMBGSX+RxAt3nakQaDAx7tnrUb514bWwt6fdmmTdDijWzZCyN8fd5lF+fpZw+9JZJnziSDLpXCeLrJ8We7Mt18fTmUfXTCArfxfAMr3SVrpVzb/j3bpAjQQbFr5d0kikRp62fRnCMrQzYMPui7yk79RTh5Pp/KQCWLczhTVsBAp7mcJwD6EMKBMoJMhjKcQe4FC1kMVkFkSITCnDP1w4GUSmG4YHfAZzy5jhxnnEMfHLJUG2c5C5IyF08wmK8KcAi+tMPdeM8OelUzsiUQPiSQ0wFPPqFXeQ8jGwvqfCgI6WFr80ZTUWwCUIRQ5jAYEECBd+oHkmMYp8+BQOPbsERyBMq8g21t0y9gvGsryUUiGRxHRztemQILfeSYJ9K1m+fXcuzMkZozjWO0ee47ckwZoB8hbG5zpU1/FawrXXhy0G2eZzYU9DBqg93Bfm3phU+G4rmPSuxRqRwClR4caffPcOCUbWTQiRsy6eiVjR4yzYU3rOHFhWM+l67GE0xQEQhgpVyfrEGMORkTcFHps6aMtGnye1HaZHHZTrF+8zmCAbISWNnLGEuEtZo+94wy3rqNBIb7v9n43XNLgkgnV/mjzzqHpJadorzlBG521E93hHBcWQdfji+AWq9hgIstMCMW1hIHueTXBwNMrpKFnEqtTIZHoNmz4N//Mur06dNja98WjOcvWFr6qholZ/qNc/BfJX4ym/EZZRKADaSAQO3IF302CUATyFglVXD4mkUZR5HZt3Ek+02UfttCEAgGP8NmCOO9ipHpAwkZZQtjGc9AnxQFhg0cWXSby1kwCbo2h+xBoPmuZFSd4BYg7DTXWIc2utnCVjYY48x+XBQ8dvwO8koIekogJLs3l1zyOMmYfvCjSsDAPjxa9tipfAsm890fnv0ZPH8kB15yBA4d9Ol3ZYPDM7yO+RcOnYhgtIGUM1B70eTewVgEi/42afo4yXzjXZFf1CNCv8z11xsi2ThlqoxRypQ4wJw2LdZrhCLeM6dZCgRcQSATymqyKsPZQ7e3AuPZRK/xTnLX7GdfFaGAYFvje7U0TwDDYxy9ZGtPb3sBjtCHK9xxAh04rtybX+KwXUAYB5s3GRj6kShu8QcTeVUhYwpgc+ksCI1xv//fRhgMbOQTmpGuSLQ+U1DZjBxzKGC8z6Mcx6nAAq+MM9rGS6n12xechzwO9tkPAYwHUlB4FtGc5Pey7NLbpMBmnpOOdbeek5AucOmH11VbWZuDOJ8MNpJLB7Id5LdBhMthPvtkHbzsaRkgg05cymTY6ZV9zvTTjWtjq1psFUCezZcsNmzk+LUsHGmnq9/ayUfk6asqhyPMcBu7/xFnhpiEMEqcjkqQiALQszEMVjoJQrg+pejiiy+e+2u3/43hhz/84SlL2kUpB/duKXAECANssgQEuV7hkIocOs3va5h1mwMYAgcMZNIXtvC5cjQHVjEQEjmRQKe5dLoab66Ao8ccBLrHT7rhFigd+tgmgHIsJ6s+XtXW9V0gGMu+Mpze9JENs99Bcy+J8EV2P/oVjIJEez7LwfAb64yP+ajCWWvkVgYMjERG2fjoQ7zx+hkIrLXUezFiGMHYypPoV8asz348yqn6jAfSO6ag4Thy4RHlonldl8taVwSsgUgevfqKeLa1ZnO6dke2wlpWIlY/OdqSUebBH3HkGiPAw4Rw+snBmSCWvcY58eHAnzEqG3tx6XSvnY6DbTeObz/18+YBu8Brs0o2G7T12kp2Ac0nORqWvW8NYlgn0E5RZkLkIYbSxgPPIQ4COdThC1nrVB8LyHDfaxVZItIGTWRnBMcgklykwGRugBEAFwcwEonmev1ZsxUO2Mkh39WzMeS6dsKCnJUDfa3n9COLbvcyXL954dOf09kIrzGc5lu+OX0HUJX0tRTEi3k4NRZWPwU0n62SLPtseh185AiDfhjCG6bGkDsbtMqUyGCkiAGY8gRwAqKMZ7i+1nDzOUo7Ga2tRTOnaCeDUX7fXAlilF8JtjO3Dnk2p6ilCx7PjKtstU6WiQyCGQ7zy6xeaczX5ywjyc3Bta9tbCnrK+Hwh8PSot1JZ9XMPZ44iKPdw0EXjJxiTD+uNQ9fxoXRei2jZTwZ7dw9e9105Reyyux8xVYnDuDt2XX+sC/Q7hlJiAPZThM5UzZSooxwWtHv2T8jzRhkAC0ilWAR7bXLpstZRFbyOc4XNWuxtZd+eGBpw5JT6VY1EEM+Y2CTLYyGu8xot8xI7bCaS37OdU9W2Q6/5QTGOKkMe3Zvrn6ycAMTHDjgOO2957PfRrXNlXmC3rIlQ11ldrvoAgLPPpPmMPLxb6MryJR8ugU/mXDpL1k4vuWE/TA65pcXOgnIeMa5dxjcRscYkQYI4aIWkQhnsPfE09vHAOP9BSbS9QGDKE61WSMfMYC595MjrxfmMa4qQR98DoHhhIf+gk+/Uq69ykKfewc7yKEPoeY66DBXG50CiEztZYp7gSQQVlLNJ79KIqDwQRanu5ehbDdOENGLD1nNYXFMr/GCxHd+QeLLos0ZbsnGXZ+MPRvbqy9cjoK/e1hKWPfzD+g4KDaY0hyuz7Myoz/FiCyTCAMEaX5r5XB7+RcAriIaWQw0VxQCKCKVIs9A0GP9ZgDg2no3do8M8xCOOAERuQjUjjwbQLrgNY8s+jkZXkdO084mut2Txxby6PDMQfoFAPvI5khZ6VWQ3fEWRnod5qt+5rTEkIEXzsQ1PeRpFxQ+Rgl6eO2+4WopwZcqkGyY+Ik+AcdPsDjcF8TsKXDnT3YjvAhq56q97AaO4ZyGBCAZCLAx+jlZ9Pk3R9/+9rePM8ny2sEBIt2VMXS12aJHxnqvlKEIcqgUgBZMZLnneIaVVdoR6qrNPHjoNx5uZ1FeJulDqHH6YYLF3AJeWxyQ6+/LVS/BRR/7yS2YWorMY6cqpo/Mfs6eTZKGDJ+ScXOwbcgsez5A5WjyOcxaLUjc99UNBzmbfLLy0xC4HbBV2Y78dqmJdSbIVZSspY/DEebQJ5Jyukj0v++1JnsfFBj9AISRjBKV5jPMp1PyfDhhrGogaIB2OpCWU4xlLMMEC8JgEACqARwcZ46x5pWt5HnOxqqNq3mCrIpVkJDdHoWjnQK69ZtNxpBdInBegYZoTpKVTny4wl75VdGU7YK4v7XmD4eKZU8kwBxtytILd4FeUOd0Msr4fWYTYiAByAC2aNHHeBP1O5AmmzybZyxS7KoRoNSRAaAdpUhnhAwWBNZ9ehDXX4eYp8RzFAPC4Nl9TmE8vZV15HF0AUjHmtXkOpRVNsALP5scBRY8cCIT8fTRo4rZTDnbOZvjHgYBTJ/9CNkcCjO97BBIBY/EoIMuQS3wZTJZMPkfsJJV5SLD/+sMT+bQhyPYBBK5sBi/Vi/3Tkf+OeLs1gBKgUAMcDKDcNcEMoiSCGYAMhlADsLbQHmWjYAisjJLhrOslen6Gct5kZITyCYDgZxAHyIRAotxjDaGfs/a2YFM8tjQviRCXWUZnMZU1Rpraelvz8ytkrUkyUz2cTAZnC+74VLV4FSB2I0TmGWiOXjVbqnjOK9cOMUDPZJFMBuHezjZBVv+Ic/pKJNd1+TUN59LHRk4jRtghBNAmTH6KecYigHTbyziPXePYGB8HgVUGfN/r2FApaydNUA2HwxwTzayvGKQ6dRGbziQweHI1icLEZ1zckhzzUsHrPSkz5wyo6plvMBiO1nmOjmIY+hnK0xlPnmtzzhkczy2nxAU7BJQ7CcTrzZnfm5gvqCAD3Y2Wt7IbuPKTjrhgtNZCae34M7Z2hz07J1dZ85PISUJ1lZQMITzgGa8KEZEfzDe6wVwnN6vHJel3j85ynd0JDCKbLLIRACZxjgdSLILli0w0S8THAxGalkXaWUCEtYyjjC2sonDYY/IgslP19iZLHiMFWSwcja9yjznCA6Y4lLmwsypxrCDPHIEU06j2+bU0laFIdeS6H276nmw7WlUBnLw6Czh8gs7s0sbHdoct+zV3WwdncCasEYmwZ61U0AAcjmFcgQ4GIEQlQHxQCtpkS6y/dCj8mv9JZPBZOinH/EFF1wIFyDKqfERVyAguaw1HoYiHlZn/XDqd8CVLPM4zH7jcHtFKjjY4b6fvedMnJijH3b64GwzRkccCmicwN7+w1z3xphrfBksWXxZhKdApE9Q5TxXgdCyQB75a4XK2a7j7Bzo3kRKW0cBcbgykmLRWgbpa73ifPP1ORnCadZfDm7NtAYKCuWXHnNkP8M4Wwm0aeEE/QySzU5Z4cjoXtMYro1OxBcQcLAHEeFHmn544ZMtsJhn3wBf37K1dSIMNnbgQ7aS3T6DTGPpoUNGw++eDfpgzKkSxSEQqibGCJj+CJ+98FnaYFwzt8qAP/a50g2fvriCQf92/vf/S4JiHQYDrg8hoo0S5ZVhwBNqLEdrt9FC7Fmh+2CglAF2k8YgiSzrk/F2uKLab6pEgvdYhxItUGSzkooQesskJK33VY82g/SSDQO9ggfZ7mGPEGMQ5eRAAcAm42CS1YLceIcAo9c4pZctsMKjjQ5Ew+PNg/O8svU/SBdMOLSrplMlocMc82+66aZpo4d8jiYLZrIdcBWELS/5DbZs1oazeXbj6KqTM0wAiNEEi2hkIyZhEUcQJ7dDN8ZzZCGK/GuuuWbWbr++1C/qHWzrEKMQQg59jOAwOA63cirj3Zch9NDh1Nbu3T1snslyv1Yb5ZUshCZD8Lo31xzje+6rFTnpN95zBMo6+xSvle45jQyV69rt5/lsYzNHuQo4+xPPlgUVzOsWXH7SJTh8lGqDxx9OMiVgfoLV6RnP9dWP/+7HwdsxP892cug0nJ3YZIqQ4zCuMQT1DLgy3McD7YEsaJDp5HgZ4BTZIld55tR+EuZ9lfHWLOUUJnLCCBtMrhlNLhzGCEIZw+lwqB6WBwElYM1zus9xssMcuDit0swmctlUZWFHaytn+YCkJHOwysDBPoIIaHLI8FcsMDo4QnCYS5Y9jc+jgsxfxrIJ9jK6ZdJ8XDiyIXmu8DvYTIbn/EvPzOQ4J6IMiMQGAhfoykfEGovc1lf32sgp+inWRiHHcqBftXHITtlt8xXhyh2ClLKit7WQ4eT2oz/jkLv+xQgHwlHGCxrjYGATmR1kFaTmINw4VYBDOR9mJOuHN3u1cQhyLTWcITMFvqWIPXTJfI73lYw8/4gAHJys/JPB8e985zv3/9a4ufSQjWuB6hqn+G0fwCfaCwDXjrj3vP+FQw853T0HO4DSTpHoJcg6ynGVauMYrtQAHlnAAAw4B3OCfg7ThuR+3YZs8gD3j6qaV0kkPydo54TkyEIZxQnaCw7BiRBOUC4FI2eYD59rJ/nGe4aZHDLh9P5rZ4wDMqpaEWs8nPYkbDRGsHqWvWRamjjZXBXM35bDyd6y9n3ve9/uuuuum/lsYZcT7xyebjJwR68zR/MHTPqcVVK2OcwbjzLEMam+Oa1n15waQcpnJaw2wGUeQAzrkydZ+oBX3pCupALDyP45LPPcy0TlW1CQXfl0T69+BLnnSBlNjg82jgIhp8tIPwM2x3h4KnHaakeaQKVPGz0yrc2X++wYRdvhuXVf1plDv+VCCecEwdXfjbMZ4f4ESoCbTyeHCgyfRFUT7eQIZniduFsdyZY4yo41s+FbE7f7+Xk2YM4OoDxTRJgDWG1lzLpB0p+MiaBtjnGuDNaHZE4QFD4WKMM2KoD4ua2sYJS/30K6cbDRax4ZDBZIZMkmBLvaDXO4YILZOEHjdU9AwCI7yek0x6tMJKaTLT7cCCi64edsS4GDfVUx7fAXwF6XbOrINo+N/dI/B5LJ2eZrp59c/3gfGebp87MCfexX8XDTzhveuIDHGJhc8Q0PfgpkQeHQNhu0BuZkV4cJhLsiCRCKZK8oZBAyZSYlyHHfTrq5SqLsIbfXN44tcMyVgV45lHaB5Nq7L71FPCwywqFflJOPFIS4p1cprWwrnW3+yJGRsrYlwFzOMJ58TmNHu2rtBV5Em4sDZOLGcuEZJgGozT1OONF8dpHvYJMq8IEPfGBKOw7gglPgGa8ND57x3H6KHDhUXYexDjr1wbT6Tr+5F2z/Q9PXU+xAknsDOw08n/P1E8CYygpygPBMcQQCALg2BgZaqUKqcmusTQzjjKuk28AAL4CcfpMDIfTAYJ7ItykSvfD4ManslM3sQQq53bOTQ8igxxUuODkMsTLUOis4ZSTZAlYwVVFaRwUpvZzSX8zo83/J1cZ25RyXPovSB9tb3vKWsd1YPwgRHHS1f+ATc/Ef19276msM2zzHi3t25mi/0n2Ll2fKLSUKeS32tSXQRKd+BgPFEZWKot6VYzhNVlDs6mA845RwhCq/DPQ3YjY0HPmOd7xjSO51Dug2HPTT7cox5JnvV5QtB5zofb7NHScULK7GwkMecjnPBw86BKv1E3Y75YPtLaF3biWbXn+DxUFtUunplzPYYw7i2ahUF/hw2oUfblnstFzBbyw7HfROuT0boDm2hCPLgV99gj2Hu9dmbE52Xc8LLrvssn1mFxUEGlR0uK8srO3GG1NU2aggjMLWDX0ch/RefwKLaKTrE+kIkl3ma2P8lJ9tDEKRrV12I9JhbZb9cCilV1999WQp0gWbLIWJHIFMvoBCvENViCT4lWdBoMxzkBLfqxkOPOvjbK97Tg73msjWMHqvhtl4Y8i0dHklE4zWaGMFEf2qCLx05Gw8VTXdC9bVkfkEX2smr+XdeDLOyewyughCjiMF+ougnCBT1s0DpcYA4EB0mx1Gif5KZOWQQziNc2W8cRGOWA7yaznk+DVk4xDst1LtfGWmfx+NU+hWIZTcSrD5rYOySJVBOudyNqyIht04wXN6+6VJpFta9HGc8ZVcP63jcMHXP9fZK5q5cLLTqxtM7PPnxfDCrmKwAz9ksA2/bF8552COPp7N+aJMbp657Kid7zrO+fOfFK0RVORUOhKIjBxLgbIOuPEFRXNlk+DhYARzDEMLFJnmg0R6OYw+6y+ClVWE9O3aTtez4Hj3u989mUw/uRzab5UYw+k2gMjlMHKRaH1VgTgSfm3m+ksMDm7TJ9vhtOTAyAbk08km78js9TvwZOmj3+dPTqXbr2oJBlXHum08vPSqUuwmy7OzTIbVmcNxHv+N7UoGuU73OVq/40gZ12BgxzrJPYUENLnxnrX3SuQZWUAGoFJPDucp4ZUrDkKmPtlgDl2CAQEcimhZJ1MQjlQZatfNQcqofuNlJscqkWTRpRJxfFVGttMHq+DzocM3asFgrrJKp3nkOmC0s+b8XhX1CRJ97PXdXzXy3YD+t73tbfPXqhxtPyDoBRHMApcsPAgKieEkR9KQGeddV//EexznD/K0lWjwKeN7Z+ukpPJQtOT4Nm6rg41PoHmEKlGUOfWX/eQLAFcGumcA0jkAyeYjL0DSLq4AAAW5SURBVCM4m3F0VzH0cabSz4l29Oba7BhDn8wxhn59sDkjDGYl2DPHCNJXv/rVk7HufdaMfA4ho2AlU6a6ChB2CDRXDlZx/Eowu/zevPVZAOtXYfq8ylY4C2y8wgVTwcPZ+tlMHy5aauPdNWfnM1hrJ5dMe5n9P0Gts+zNoRQY2IFMxBMOUOOMMZ8SGeGZYmPdO/XJEkbrK8J9+ECGbJfhAe5zYORxJudGvrVUaRc4giVMiCbHDyc4zHjYCkJ9HEFfm0nVAon64IOzcm/e4bZ7VknYo/TCxk6BAjuncww8NmP2A17H+l7OqTDCAVNO84zj+uKf/PjV74QvB+KSvZ7XpHSvzXyyyGBnx/5HnBoS5p4wZ+2uZYh29ymqtCBKQCDTiTQy9btWHYpOQJQ62dzmCrmVTWWag4FXUpVOJV3wcDISyVAebYDokLFkIppDZBK9ZPkVHyWavDJGtiGP0+AVhLLbBtErFidqL0CVYzKs63CQa81lo743vOEN8yUvfmQ7LjjZIcDiduWXQ+lxljzGrxznYHbWF7fmd5hDf1W19lt19n7m2ZuiKKArCPcE947ouYxOTtltPvKBMwe5gdJmY1N0IkYAySx9nEqHkw5ZKxgEWP88FuPp4DylXBB4NlbmCRgZSW+Z2atUO3VVxFxBp2TLENkHtwORVR5BIdth9JM7JV0A9g7Pyeaxg51VRvawATb4Odl9zl75j3NtuCmByCPDkTzPa+Vw35j9RxUCi45ANJGwFOb0hBijrTKjnUEMrtwwQHSvOsxpTUKWZ0bLGtnC6RGAbNnSLwEosU7Z3WubTY82DuKsXn044PnPf/6snxzEyTKf85RmzhRU/fsuMh1+87T3rixQVB34yOBM/ZahG264YXb2Ts7VXhCTpbr09oFLbbhx4o19sAliPKyHZ7zFMb5znvZ805zaGtN8/fv/iZvMWw+TOC6nmlQwrNFi3HHBnhkEvIMhZTbDOJ48csgU9cjTjqiIkY3WZof5yrAsRLxDmRUQdHEyouGJTFfvw35OrKR7nXPQxeEqhdcjgenLmGDxFY4T6OVo8lQHmIwjg843velN80MMuOiGW9CyhW1sp0Pg6nMY1ybSvByDg/hdneW+5xGwHfmk9pxZYjYnedrL+r2zIz+hq3D3CU/YGl31MZAznWugMJJ8cxgro0U0Yjg4MLKtUsehHMQxgkVZllWuDvO9s+rnVOXTLloW2TBZP23WfMQ42N6H6TFXdTCXw+hon0EGZ7KFPvd25yoGh3mW2f2Eyhg2VZ7JhKX13hz2cCp7zceJdlc8xJUxZHVdHWysY02waViOfAFDCan7eADt/zlLExDtKNJyrDb3hCXkfM7XD7BrIMnyLLoRHKEFV0YKiNZ85ZlzkFF2aZOJ9CLKmWw6lW7EG6esynLO5XybNmWV0wUIPBzHkWTARhcMeBAE9gIynb7+xprOnKidjQKQU923bJERX9Z+8+hju/ls1maOcZ67unfkwO57bqxn8505dSaenav/uIz9b6q0fqTUJPedBCKzQEiwa87Vl5FAeOYIh8zR12uGtVa/ADC27FcuEdj6pR3xdHMC5yPOl7VIEwSyyrpuPgcjGS4lWDZbEugkW0DA4iC393Vyr7/++gkKsjhbXyXaeEFkPr7MZRcbyW0ZgZ1j26u0pMlwJ5vSn1NyTIFSPxvXMTmWbTAUMPkJxjUQVrknXvGKV5wBhmHK1upc90WS+zJ/WDrPUVQel9FzBqzX9Z78AqZMWaNfX+DpQjJCne45KxJat81vTuToQ7ixZKoiLS/hMS8nVXGMJysdrgX6EVKXrFptVz2SH33Hn2tPnufub21sc9i3BhNeBKBk8CtPm5wTZwhjvIH/l4PhjvM5dQV9Ph3nMwQuZ4QlY3WgvgJSu6NrWOpPVmPCW7ZUho/rC0dV6nz417acU9v5bPufZPxv+lUTPqSfbeHtZxb/BU46pFvGns/wAAAAAElFTkSuQmCC;imageBorder=#66CC00;" vertex="1" parent="1">
          <mxGeometry x="623" y="651.44" width="85.57" height="80" as="geometry" />
        </mxCell>
        <mxCell id="32GEzlC8_-ixo2tJrArx-34" value="Day 1" style="text;strokeColor=none;align=center;fillColor=none;html=1;verticalAlign=middle;whiteSpace=wrap;rounded=0;" vertex="1" parent="1">
          <mxGeometry x="152.5" y="732.89" width="120" height="30" as="geometry" />
        </mxCell>
        <mxCell id="32GEzlC8_-ixo2tJrArx-35" value="Day 2" style="text;strokeColor=none;align=center;fillColor=none;html=1;verticalAlign=middle;whiteSpace=wrap;rounded=0;" vertex="1" parent="1">
          <mxGeometry x="260" y="732.89" width="120" height="30" as="geometry" />
        </mxCell>
        <mxCell id="32GEzlC8_-ixo2tJrArx-36" value="Day 3" style="text;strokeColor=none;align=center;fillColor=none;html=1;verticalAlign=middle;whiteSpace=wrap;rounded=0;" vertex="1" parent="1">
          <mxGeometry x="379" y="732.89" width="120" height="30" as="geometry" />
        </mxCell>
        <mxCell id="32GEzlC8_-ixo2tJrArx-37" value="Day 4" style="text;strokeColor=none;align=center;fillColor=none;html=1;verticalAlign=middle;whiteSpace=wrap;rounded=0;" vertex="1" parent="1">
          <mxGeometry x="490" y="732.89" width="120" height="30" as="geometry" />
        </mxCell>
        <mxCell id="32GEzlC8_-ixo2tJrArx-38" value="Day 5" style="text;strokeColor=none;align=center;fillColor=none;html=1;verticalAlign=middle;whiteSpace=wrap;rounded=0;" vertex="1" parent="1">
          <mxGeometry x="599" y="732.89" width="120" height="30" as="geometry" />
        </mxCell>
      </root>
    </mxGraphModel>
  </diagram>
</mxfile>
